<?xml version="1.0" encoding="utf-8"?>
<!-- Generator: Adobe Illustrator 16.0.0, SVG Export Plug-In . SVG Version: 6.00 Build 0)  -->
<!DOCTYPE svg PUBLIC "-//W3C//DTD SVG 1.1//EN" "http://www.w3.org/Graphics/SVG/1.1/DTD/svg11.dtd">
<svg version="1.1" id="Layer_1" xmlns="http://www.w3.org/2000/svg" xmlns:xlink="http://www.w3.org/1999/xlink" x="0px" y="0px"
	 width="120px" height="40px" viewBox="0 0 120 40" enable-background="new 0 0 120 40" xml:space="preserve">
<path d="M54.866,0.093c-22.35,0-20.828,20.954-20.828,32.423h5.388c3.529,4.11,8.761,6.725,14.613,6.725
	c5.852,0,11.083-2.615,14.611-6.725h7.043C75.693,21.047,73.906,0.093,54.866,0.093z M54.039,36.074
	c-8.874,0-16.068-7.171-16.068-16.018c0-8.846,7.194-16.017,16.068-16.017c8.872,0,16.066,7.171,16.066,16.017
	C70.105,28.903,62.911,36.074,54.039,36.074z"/>
<ellipse cx="45.144" cy="25.39" rx="2.777" ry="2.769"/>
<ellipse cx="63.194" cy="23.413" rx="2.777" ry="2.768"/>
</svg>
