<?xml version="1.0" encoding="utf-8"?>
<!-- Generator: Adobe Illustrator 16.0.0, SVG Export Plug-In . SVG Version: 6.00 Build 0)  -->
<!DOCTYPE svg PUBLIC "-//W3C//DTD SVG 1.1//EN" "http://www.w3.org/Graphics/SVG/1.1/DTD/svg11.dtd">
<svg version="1.1" id="Layer_1" xmlns="http://www.w3.org/2000/svg" xmlns:xlink="http://www.w3.org/1999/xlink" x="0px" y="0px"
	 width="120px" height="60px" viewBox="0 0 120 60" enable-background="new 0 0 120 60" xml:space="preserve">
<path d="M54.866,0.093c-22.35,0-20.828,20.954-20.828,32.423h5.388c3.529,4.11,8.761,6.725,14.613,6.725
	c5.852,0,11.083-2.615,14.611-6.725h7.043C75.693,21.047,73.906,0.093,54.866,0.093z M54.039,36.074
	c-8.874,0-16.068-7.171-16.068-16.018c0-8.846,7.194-16.017,16.068-16.017c8.872,0,16.066,7.171,16.066,16.017
	C70.105,28.903,62.911,36.074,54.039,36.074z"/>
<ellipse cx="45.144" cy="25.39" rx="2.777" ry="2.769"/>
<ellipse cx="63.194" cy="23.413" rx="2.777" ry="2.768"/>
<g>
	<g>
		<g>
			<path d="M10.9,56.626H3.927V41.952H0V59.71h10.9V56.626z"/>
			<path d="M16.462,45.759h-3.572v-3.316h3.572V45.759z M16.462,59.71h-3.572V47.296l3.572-0.206V59.71z"/>
			<path d="M25.296,57.539l-2.549,2.413c-1.065-0.438-1.866-1.083-2.397-1.922c-0.532-0.848-0.801-1.858-0.801-3.025
				v-5.434h-1.193v-2.275h1.193v-4.118l3.541-0.248v4.366h1.857v2.275H23.09v4.436c0,0.887,0.2,1.618,0.599,2.202
				C24.085,56.795,24.623,57.236,25.296,57.539z"/>
			<path d="M31.089,56.208c-0.398-0.583-0.6-1.314-0.6-2.202v-4.436h1.859v-2.275h-1.859v-4.366l-3.541,0.248v4.118
				h-1.19v2.275h1.19v5.434c0,1.167,0.268,2.178,0.801,3.025c0.532,0.839,1.332,1.484,2.398,1.922l2.551-2.413
				C32.023,57.236,31.485,56.795,31.089,56.208z"/>
			<path d="M39.504,57.646l-2.48,2.306c-0.896-0.547-1.606-1.179-2.133-1.893c-0.524-0.71-0.785-1.576-0.785-2.583
				V41.952h3.538v12.257c0,0.851,0.149,1.512,0.444,2.008C38.384,56.708,38.856,57.183,39.504,57.646z"/>
			<path d="M53.274,54.007h-9.219c0.194,1.017,0.592,1.745,1.196,2.19c0.603,0.452,1.336,0.675,2.196,0.675
				c0.693,0,1.462-0.105,2.299-0.306c0.839-0.21,1.501-0.482,1.985-0.81V58.9c-0.455,0.322-1.14,0.579-2.051,0.769
				c-0.915,0.185-1.649,0.284-2.202,0.284c-2.199,0-3.914-0.604-5.147-1.799c-1.235-1.199-1.85-2.802-1.85-4.815
				c0-2.022,0.629-3.662,1.892-4.908c1.258-1.243,2.829-1.866,4.72-1.866c1.885,0,3.392,0.664,4.512,1.992
				C52.723,49.89,53.284,51.702,53.274,54.007z M50.015,52.331c-0.178-0.932-0.532-1.643-1.066-2.119
				c-0.534-0.476-1.197-0.713-1.99-0.713c-0.92,0-1.619,0.261-2.085,0.776c-0.47,0.514-0.753,1.201-0.852,2.055H50.015z"/>
			<path d="M72.929,58.344c-0.65,0.526-1.53,0.927-2.636,1.196c-1.11,0.272-2.036,0.413-2.784,0.413
				c-2.918,0-5.072-0.864-6.471-2.578c-1.396-1.725-2.093-3.813-2.093-6.292c0-2.386,0.766-4.529,2.311-6.426
				c1.545-1.897,3.693-2.844,6.448-2.844c0.741,0,1.603,0.138,2.595,0.413c0.987,0.259,1.724,0.583,2.211,0.953l-0.562,3.63h-2.364
				v-1.491c0,0-0.033-0.035-0.083-0.05c-0.522-0.159-1.113-0.242-1.771-0.242c-1.421,0-2.546,0.582-3.37,1.729
				c-0.825,1.154-1.241,2.48-1.249,3.989c-0.007,1.797,0.363,3.237,1.113,4.308c0.753,1.075,1.917,1.612,3.505,1.612
				c0.471,0,0.858-0.028,1.169-0.083c0.312-0.054,0.566-0.118,0.77-0.195v-4.647h-2.911v-1.994h6.17V58.344z"/>
			<path d="M84.133,50.966c-0.224-0.171-0.545-0.331-0.948-0.458c-0.411-0.14-0.889-0.204-1.438-0.204
				c-0.645,0-1.191,0.1-1.628,0.297c-0.443,0.199-0.812,0.444-1.106,0.736v8.371h-3.541V47.296l3.541-0.242v1.212l1.128-0.7
				c0.352-0.214,0.751-0.397,1.204-0.54c0.453-0.146,0.871-0.215,1.254-0.215c0.401,0,0.721,0.025,0.97,0.071
				c0.242,0.051,0.43,0.107,0.564,0.168V50.966z"/>
			<path d="M97.956,54.007h-9.221c0.192,1.017,0.592,1.745,1.195,2.19c0.604,0.452,1.337,0.675,2.202,0.675
				c0.692,0,1.455-0.105,2.292-0.306c0.843-0.21,1.505-0.482,1.987-0.81V58.9c-0.454,0.322-1.137,0.579-2.052,0.769
				c-0.913,0.185-1.648,0.284-2.201,0.284c-2.199,0-3.913-0.604-5.148-1.799c-1.233-1.199-1.85-2.802-1.85-4.815
				c0-2.022,0.633-3.662,1.893-4.908c1.259-1.243,2.831-1.866,4.719-1.866c1.887,0,3.394,0.664,4.513,1.992
				C97.409,49.89,97.961,51.702,97.956,54.007z M94.696,52.331c-0.176-0.932-0.532-1.643-1.067-2.119
				c-0.534-0.476-1.197-0.713-1.989-0.713c-0.922,0-1.615,0.261-2.085,0.776c-0.47,0.514-0.755,1.201-0.854,2.055H94.696z"/>
			<path d="M104.155,56.208c-0.399-0.583-0.6-1.314-0.6-2.202v-4.436h1.859v-2.275h-1.859v-4.366l-3.538,0.248v4.118
				h-1.192v2.275h1.192v5.434c0,1.167,0.263,2.178,0.799,3.025c0.532,0.839,1.333,1.484,2.396,1.922l2.553-2.413
				C105.091,57.236,104.554,56.795,104.155,56.208z"/>
			<path d="M120,57.797l-2.762,2.295c-0.428-0.141-0.792-0.364-1.106-0.663c-0.315-0.306-0.519-0.65-0.623-1.04
				l-2.181,1.24c-0.084,0.044-0.228,0.085-0.435,0.144c-0.205,0.045-0.375,0.068-0.516,0.068c-1.68,0-3.066-0.572-4.16-1.719
				c-1.096-1.155-1.646-2.747-1.646-4.792c0-1.944,0.571-3.544,1.705-4.807c1.133-1.261,2.582-1.887,4.343-1.887
				c0.699,0,1.358,0.138,1.966,0.414c0.612,0.272,1.012,0.523,1.204,0.738l2.023-0.7l0.678,0.206v7.912
				c0,0.697,0.123,1.248,0.366,1.65C119.101,57.267,119.483,57.583,120,57.797z M115.127,56.084v-5.465
				c-0.233-0.287-0.533-0.528-0.909-0.739c-0.371-0.205-0.826-0.309-1.367-0.309c-0.777,0-1.42,0.284-1.934,0.855
				c-0.511,0.565-0.768,1.504-0.768,2.818c0,1.044,0.238,1.881,0.716,2.512c0.479,0.628,1.147,0.942,2.01,0.942
				c0.493,0,0.954-0.075,1.384-0.221C114.694,56.333,114.98,56.197,115.127,56.084z"/>
		</g>
	</g>
</g>
</svg>
