<?xml version="1.0" encoding="utf-8"?>
<!-- Generator: Adobe Illustrator 19.2.1, SVG Export Plug-In . SVG Version: 6.00 Build 0)  -->
<svg version="1.1" xmlns="http://www.w3.org/2000/svg" xmlns:xlink="http://www.w3.org/1999/xlink" x="0px" y="0px"
	 viewBox="0 0 153.7 77.7" style="enable-background:new 0 0 153.7 77.7;" xml:space="preserve">
<style type="text/css">
	.st0{fill:#6B6B6B;}
</style>
<g id="Layer_2">
</g>
<g id="grafika">
</g>
<g id="content">
	<g>
		<g>
			<g>
				<path d="M44.8,69.3L17.4,53.5V21.9L44.8,6.1l27.3,15.8v31.6L44.8,69.3z M18.9,52.6l25.9,14.9l25.9-14.9V22.8L44.8,7.8L18.9,22.8
					V52.6z"/>
			</g>
			<g>
				<rect x="44" y="37.7" width="1.5" height="30.7"/>
			</g>
			<g>
				<rect x="30.7" y="14.7" transform="matrix(0.5 -0.866 0.866 0.5 -10.2649 42.2459)" width="1.5" height="30.7"/>
			</g>
			<g>
				<rect x="16.1" y="44.6" transform="matrix(0.8661 -0.5 0.5 0.8661 -18.4688 21.8025)" width="30.7" height="1.5"/>
			</g>
			<g>
				<polygon points="44.6,37.7 45,37 45.5,37.3 45.5,37.8 44.7,37.8 				"/>
			</g>
		</g>
		<g>
			<g>
				<path d="M78.6,29.9l2.9-5.6h-2.6c0-0.2-0.1-0.4-0.1-0.6c0-0.2,0-0.4,0.1-0.6h4.6l0.1,0.1l-2.9,5.6h2.7c0,0.2,0.1,0.4,0.1,0.6
					c0,0.2,0,0.4-0.1,0.6L78.6,29.9L78.6,29.9z"/>
			</g>
			<g>
				<path d="M86.3,23.2c0.2,0,0.5-0.1,0.7-0.1c0.2,0,0.5,0,0.7,0.1v5.7h2.4c0,0.1,0,0.2,0,0.3c0,0.1,0,0.2,0,0.3c0,0.1,0,0.2,0,0.3
					c0,0.1,0,0.2,0,0.3h-3.7V23.2z"/>
			</g>
			<g>
				<path d="M92.9,23.2c0.2,0,0.5-0.1,0.7-0.1c0.2,0,0.5,0,0.7,0.1V30c-0.2,0-0.5,0.1-0.7,0.1c-0.2,0-0.5,0-0.7-0.1V23.2z"/>
			</g>
			<g>
				<path d="M97.6,23.2c0.2,0,0.4-0.1,0.6-0.1c0.2,0,0.4,0,0.6,0.1l2.6,4.4v-4.4c0.2,0,0.4-0.1,0.7-0.1c0.2,0,0.4,0,0.6,0.1V30
					c-0.2,0-0.4,0.1-0.6,0.1c-0.2,0-0.4,0-0.6-0.1l-2.7-4.4V30c-0.2,0-0.4,0.1-0.6,0.1c-0.2,0-0.4,0-0.6-0.1V23.2z"/>
			</g>
			<g>
				<path d="M83.4,40.2c0.1,0.2,0.2,0.4,0.2,0.5c0.1,0.2,0.1,0.4,0.1,0.6c-0.3,0.1-0.6,0.2-0.9,0.2c-0.3,0-0.5,0.1-0.9,0.1
					c-0.5,0-1-0.1-1.4-0.3c-0.4-0.2-0.8-0.4-1-0.7c-0.3-0.3-0.5-0.7-0.6-1.1c-0.1-0.4-0.2-0.9-0.2-1.4c0-0.5,0.1-1,0.2-1.4
					c0.1-0.4,0.4-0.8,0.6-1.1c0.3-0.3,0.6-0.6,1-0.7c0.4-0.2,0.9-0.3,1.4-0.3c0.3,0,0.6,0,0.8,0.1c0.3,0,0.5,0.1,0.8,0.2
					c0,0.2-0.1,0.4-0.1,0.6c-0.1,0.2-0.1,0.4-0.2,0.5c-0.2-0.1-0.4-0.1-0.6-0.2c-0.2,0-0.4,0-0.6,0c-0.6,0-1.1,0.2-1.4,0.6
					c-0.3,0.4-0.5,1-0.5,1.8c0,1.6,0.7,2.3,2,2.3c0.2,0,0.4,0,0.6,0C83,40.3,83.2,40.3,83.4,40.2z"/>
			</g>
			<g>
				<path d="M86.8,34.6c0.3,0,0.5-0.1,0.8-0.1c0.2,0,0.5,0,0.8,0c0.3,0,0.7,0,1,0.1c0.3,0.1,0.6,0.2,0.9,0.3
					c0.3,0.2,0.5,0.4,0.7,0.7c0.2,0.3,0.3,0.6,0.3,1.1c0,0.3,0,0.5-0.1,0.7c-0.1,0.2-0.1,0.4-0.2,0.5c-0.1,0.1-0.2,0.3-0.3,0.4
					c-0.1,0.1-0.2,0.2-0.3,0.3l-0.2,0.1l1.7,2.9c-0.1,0-0.3,0-0.4,0c-0.1,0-0.3,0-0.4,0c-0.2,0-0.5,0-0.7-0.1l-1.8-3.2l0.2-0.1
					c0.1,0,0.2-0.1,0.3-0.2c0.1-0.1,0.2-0.2,0.4-0.3c0.1-0.1,0.2-0.2,0.3-0.4c0.1-0.2,0.1-0.3,0.1-0.5c0-0.4-0.1-0.7-0.3-0.9
					c-0.2-0.2-0.5-0.3-0.9-0.3c-0.1,0-0.3,0-0.4,0v5.8c-0.1,0-0.2,0-0.3,0c-0.1,0-0.2,0-0.3,0c-0.1,0-0.2,0-0.3,0
					c-0.1,0-0.2,0-0.4,0V34.6z"/>
			</g>
			<g>
				<path d="M94.4,34.6h3.9c0,0.2,0.1,0.4,0.1,0.6c0,0.2,0,0.4-0.1,0.6h-2.5v1.5h2c0,0.2,0.1,0.4,0.1,0.6c0,0.2,0,0.4-0.1,0.6h-2
					v1.8h2.6c0,0.2,0.1,0.4,0.1,0.6c0,0.2,0,0.4-0.1,0.6h-4V34.6z"/>
			</g>
			<g>
				<path d="M103,34.6c0.1,0,0.3,0,0.4,0c0.1,0,0.3,0,0.4,0c0.1,0,0.3,0,0.4,0c0.1,0,0.3,0,0.4,0l2.1,6.9c-0.3,0-0.5,0.1-0.8,0.1
					c-0.2,0-0.5,0-0.7-0.1l-0.4-1.4h-2.3l-0.4,1.4c-0.2,0-0.4,0.1-0.7,0.1c-0.2,0-0.5,0-0.7-0.1L103,34.6z M104.5,39l-0.8-2.9
					l-0.8,2.9H104.5z"/>
			</g>
			<g>
				<path d="M110,35.8h-1.7c0-0.2-0.1-0.4-0.1-0.6c0-0.2,0-0.4,0.1-0.6h4.8c0,0.2,0.1,0.4,0.1,0.6c0,0.2,0,0.4-0.1,0.6h-1.7v5.7
					c-0.1,0-0.2,0-0.3,0c-0.1,0-0.2,0-0.3,0c-0.1,0-0.2,0-0.3,0c-0.1,0-0.2,0-0.4,0V35.8z"/>
			</g>
			<g>
				<path d="M116,34.6c0.2,0,0.5-0.1,0.7-0.1c0.2,0,0.5,0,0.7,0.1v6.9c-0.2,0-0.5,0.1-0.7,0.1c-0.2,0-0.5,0-0.7-0.1V34.6z"/>
			</g>
			<g>
				<path d="M120.1,34.6c0.1,0,0.2,0,0.4,0c0.1,0,0.3,0,0.4,0c0.2,0,0.5,0,0.8,0.1l1.5,5.4l1.5-5.4c0.1,0,0.2,0,0.4,0
					c0.1,0,0.2,0,0.4,0c0.1,0,0.2,0,0.3,0c0.1,0,0.2,0,0.4,0l-2.2,6.9c-0.1,0-0.3,0-0.4,0c-0.1,0-0.3,0-0.4,0c-0.1,0-0.3,0-0.4,0
					c-0.1,0-0.3,0-0.4,0L120.1,34.6z"/>
			</g>
			<g>
				<path d="M128.7,34.6h3.9c0,0.2,0.1,0.4,0.1,0.6c0,0.2,0,0.4-0.1,0.6h-2.5v1.5h2c0,0.2,0.1,0.4,0.1,0.6c0,0.2,0,0.4-0.1,0.6h-2
					v1.8h2.6c0,0.2,0.1,0.4,0.1,0.6c0,0.2,0,0.4-0.1,0.6h-4V34.6z"/>
			</g>
			<g>
				<path d="M83.4,51.6c0.1,0.2,0.2,0.4,0.2,0.5c0.1,0.2,0.1,0.4,0.1,0.6c-0.3,0.1-0.6,0.2-0.9,0.2C82.6,53,82.3,53,82,53
					c-0.5,0-1-0.1-1.4-0.3c-0.4-0.2-0.8-0.4-1-0.7c-0.3-0.3-0.5-0.7-0.6-1.1c-0.1-0.4-0.2-0.9-0.2-1.4c0-0.5,0.1-1,0.2-1.4
					c0.1-0.4,0.4-0.8,0.6-1.1c0.3-0.3,0.6-0.6,1-0.7c0.4-0.2,0.9-0.3,1.4-0.3c0.3,0,0.6,0,0.8,0.1c0.3,0,0.5,0.1,0.8,0.2
					c0,0.2-0.1,0.4-0.1,0.6c-0.1,0.2-0.1,0.4-0.2,0.5c-0.2-0.1-0.4-0.1-0.6-0.2c-0.2,0-0.4,0-0.6,0c-0.6,0-1.1,0.2-1.4,0.6
					c-0.3,0.4-0.5,1-0.5,1.8c0,1.6,0.7,2.3,2,2.3c0.2,0,0.4,0,0.6,0C83,51.8,83.2,51.7,83.4,51.6z"/>
			</g>
			<g>
				<path d="M86.7,46.1c0.2,0,0.5-0.1,0.7-0.1c0.2,0,0.5,0,0.7,0.1v5.7h2.4c0,0.1,0,0.2,0,0.3c0,0.1,0,0.2,0,0.3c0,0.1,0,0.2,0,0.3
					c0,0.1,0,0.2,0,0.3h-3.7V46.1z"/>
			</g>
			<g>
				<path d="M93,46.1c0.1,0,0.2,0,0.4,0c0.1,0,0.2,0,0.4,0c0.1,0,0.2,0,0.3,0c0.1,0,0.2,0,0.4,0v3.6c0,0.4,0,0.7,0,1
					c0,0.3,0.1,0.5,0.2,0.7c0.1,0.2,0.2,0.3,0.4,0.4c0.2,0.1,0.4,0.1,0.6,0.1c0.2,0,0.4,0,0.6-0.1c0.2-0.1,0.3-0.2,0.4-0.4
					c0.1-0.2,0.1-0.4,0.2-0.7c0-0.3,0-0.6,0-1v-3.6c0.1,0,0.2,0,0.4,0c0.1,0,0.2,0,0.3,0c0.1,0,0.2,0,0.3,0c0.1,0,0.2,0,0.4,0v3.9
					c0,0.5,0,0.9-0.1,1.3c-0.1,0.4-0.2,0.7-0.4,1c-0.2,0.3-0.5,0.5-0.8,0.6C96.5,53,96.1,53,95.6,53s-0.9-0.1-1.3-0.2
					c-0.3-0.1-0.6-0.4-0.8-0.6c-0.2-0.3-0.3-0.6-0.4-1c-0.1-0.4-0.1-0.8-0.1-1.3V46.1z"/>
			</g>
			<g>
				<path d="M102.6,49.7c-0.2-0.1-0.4-0.2-0.6-0.3c-0.2-0.1-0.3-0.2-0.4-0.4c-0.1-0.1-0.2-0.3-0.3-0.5c-0.1-0.2-0.1-0.4-0.1-0.7
					c0-0.3,0.1-0.6,0.2-0.9c0.1-0.2,0.3-0.5,0.5-0.6c0.2-0.2,0.4-0.3,0.7-0.4c0.3-0.1,0.6-0.1,1-0.1c0.3,0,0.6,0,0.9,0.1
					c0.3,0.1,0.6,0.1,0.9,0.2c0,0.4-0.1,0.7-0.3,1.1c-0.1,0-0.2-0.1-0.3-0.1c-0.1,0-0.2-0.1-0.3-0.1c-0.1,0-0.2,0-0.4-0.1
					c-0.1,0-0.3,0-0.5,0c-0.1,0-0.2,0-0.3,0c-0.1,0-0.2,0.1-0.3,0.1c-0.1,0.1-0.2,0.1-0.2,0.2c-0.1,0.1-0.1,0.2-0.1,0.4
					c0,0.1,0,0.2,0.1,0.3c0,0.1,0.1,0.2,0.2,0.2c0.1,0.1,0.2,0.1,0.3,0.2c0.1,0,0.2,0.1,0.3,0.1l0.6,0.2c0.2,0.1,0.5,0.2,0.7,0.3
					c0.2,0.1,0.4,0.2,0.5,0.4c0.1,0.1,0.2,0.3,0.3,0.5c0.1,0.2,0.1,0.5,0.1,0.8c0,0.3-0.1,0.6-0.2,0.9c-0.1,0.3-0.3,0.5-0.5,0.7
					c-0.2,0.2-0.5,0.3-0.8,0.4c-0.3,0.1-0.7,0.2-1.1,0.2c-0.2,0-0.4,0-0.6,0c-0.2,0-0.3,0-0.5-0.1c-0.1,0-0.3-0.1-0.4-0.1
					c-0.1,0-0.3-0.1-0.5-0.2c0-0.2,0.1-0.4,0.1-0.6c0.1-0.2,0.1-0.4,0.2-0.6c0.3,0.1,0.5,0.2,0.8,0.2c0.2,0.1,0.5,0.1,0.8,0.1
					c0.4,0,0.7-0.1,0.9-0.2c0.2-0.1,0.3-0.4,0.3-0.7c0-0.2,0-0.3-0.1-0.4c-0.1-0.1-0.1-0.2-0.2-0.3c-0.1-0.1-0.2-0.1-0.3-0.2
					c-0.1,0-0.2-0.1-0.3-0.1L102.6,49.7z"/>
			</g>
			<g>
				<path d="M109.8,47.2h-1.7c0-0.2-0.1-0.4-0.1-0.6c0-0.2,0-0.4,0.1-0.6h4.8c0,0.2,0.1,0.4,0.1,0.6c0,0.2,0,0.4-0.1,0.6h-1.7v5.7
					c-0.1,0-0.2,0-0.3,0c-0.1,0-0.2,0-0.3,0c-0.1,0-0.2,0-0.3,0c-0.1,0-0.2,0-0.4,0V47.2z"/>
			</g>
			<g>
				<path d="M115.8,46.1h3.9c0,0.2,0.1,0.4,0.1,0.6c0,0.2,0,0.4-0.1,0.6h-2.5v1.5h2c0,0.2,0.1,0.4,0.1,0.6c0,0.2,0,0.4-0.1,0.6h-2
					v1.8h2.6c0,0.2,0.1,0.4,0.1,0.6c0,0.2,0,0.4-0.1,0.6h-4V46.1z"/>
			</g>
			<g>
				<path d="M122.9,46.1c0.3,0,0.5-0.1,0.8-0.1c0.2,0,0.5,0,0.8,0c0.3,0,0.7,0,1,0.1c0.3,0.1,0.6,0.2,0.9,0.3
					c0.3,0.2,0.5,0.4,0.7,0.7c0.2,0.3,0.3,0.6,0.3,1.1c0,0.3,0,0.5-0.1,0.7c-0.1,0.2-0.1,0.4-0.2,0.5c-0.1,0.1-0.2,0.3-0.3,0.4
					c-0.1,0.1-0.2,0.2-0.3,0.3l-0.2,0.1l1.7,2.9c-0.1,0-0.3,0-0.4,0c-0.1,0-0.3,0-0.4,0c-0.2,0-0.5,0-0.7-0.1l-1.8-3.2l0.2-0.1
					c0.1,0,0.2-0.1,0.3-0.2c0.1-0.1,0.2-0.2,0.4-0.3c0.1-0.1,0.2-0.2,0.3-0.4c0.1-0.2,0.1-0.3,0.1-0.5c0-0.4-0.1-0.7-0.3-0.9
					c-0.2-0.2-0.5-0.3-0.9-0.3c-0.1,0-0.3,0-0.4,0v5.8c-0.1,0-0.2,0-0.3,0c-0.1,0-0.2,0-0.3,0c-0.1,0-0.2,0-0.3,0
					c-0.1,0-0.2,0-0.4,0V46.1z"/>
			</g>
		</g>
	</g>
</g>
<g id="popisky">
</g>
</svg>
