<?xml version="1.0" encoding="utf-8"?>
<!-- Generator: Adobe Illustrator 19.2.1, SVG Export Plug-In . SVG Version: 6.00 Build 0)  -->
<svg version="1.1" xmlns="http://www.w3.org/2000/svg" xmlns:xlink="http://www.w3.org/1999/xlink" x="0px" y="0px"
	 viewBox="0 0 310.7 77.7" style="enable-background:new 0 0 310.7 77.7;" xml:space="preserve">
<style type="text/css">
	.st0{fill:#6B6B6B;}
</style>
<g id="Layer_2">
</g>
<g id="grafika">
</g>
<g id="content">
	<g>
		<g>
			<g>
				<path d="M43.9,50.8v1.5h-4.3v5.6H38V45.7h6.6v1.5h-5v3.5H43.9z"/>
				<path d="M49.6,57.2c-0.3,0.3-0.8,0.8-1.9,0.8C46,58,45,57.1,45,55.4c0-1.7,1.2-2.6,2.8-2.6c0.8,0,1.6,0.3,1.9,0.7v-1
					c0-1-0.6-1.3-1.5-1.3c-0.9,0-1.8,0.3-2.2,0.5l-0.2-1.4c0.5-0.2,1.3-0.5,2.6-0.5c1.8,0,2.8,0.9,2.8,2.7v5.4h-1.5V57.2z
					 M49.6,55.2c0-0.6-0.8-1-1.6-1c-0.8,0-1.5,0.3-1.5,1.3c0,0.9,0.7,1.2,1.5,1.2c0.9,0,1.6-0.6,1.6-1.1V55.2z"/>
				<path d="M58.7,57.5c-0.3,0.2-1.2,0.5-2.1,0.5c-1.5,0-3.4-0.8-3.4-4.1c0-3.2,1.9-4.1,3.4-4.1c0.9,0,1.7,0.4,2.1,0.6l-0.3,1.4
					c-0.4-0.2-1.1-0.5-1.7-0.5c-0.9,0-1.8,0.8-1.8,2.7c0,2,0.9,2.7,1.8,2.7c0.7,0,1.3-0.3,1.7-0.6L58.7,57.5z"/>
				<path d="M64.9,57.2c-0.3,0.4-0.7,0.8-1.9,0.8c-1.6,0-2.6-1.1-2.6-2.9v-5.3h1.5v5.2c0,0.9,0.4,1.5,1.3,1.5c1.1,0,1.7-0.8,1.7-1.7
					v-5h1.5v8h-1.5V57.2z"/>
				<path d="M70.3,45.7v12.2h-1.5V45.7H70.3z"/>
				<path d="M76.2,57.7c-0.3,0.1-0.6,0.3-1.3,0.3c-0.9,0-2-0.4-2-2.1v-4.7h-1v-1.3h1v-3.1l1.5-0.2v3.3h1.3v1.3h-1.3v4.7
					c0,0.6,0.3,0.7,0.6,0.7c0.4,0,0.7-0.1,1-0.3L76.2,57.7z"/>
				<path d="M79.5,61.2v-4.6l-3-6.8h1.7l2.1,5.1l2.1-5.1h1.7l-3,6.8v4.6H79.5z"/>
				<path d="M92.3,58c-2,0-3.7-1.1-3.7-4.1c0-3,1.8-4.1,3.7-4.1c1.9,0,3.7,1.1,3.7,4.1C96,56.9,94.3,58,92.3,58z M92.3,51.1
					c-1.2,0-2.1,0.9-2.1,2.8c0,1.7,0.9,2.7,2.1,2.7c1.2,0,2.1-0.9,2.1-2.7C94.4,52.1,93.5,51.1,92.3,51.1z"/>
				<path d="M101.5,47.3c-0.3-0.1-0.7-0.3-1.1-0.3c-0.6,0-0.9,0.3-0.9,0.9v1.9h1.3v1.3h-1.3v6.8h-1.5v-6.8h-1v-1.3h1v-1.8
					c0-1.8,0.9-2.4,2.2-2.4c0.7,0,1.2,0.2,1.4,0.3L101.5,47.3z"/>
				<path d="M112.7,57.9h-1.3l-2.6-8.6l-1.3,8.6h-1.7l1.9-12.2h1.6l2.8,9.5l2.9-9.5h1.6l1.8,12.2h-1.9l-1.1-8.6L112.7,57.9z"/>
				<path d="M124.7,57.2c-0.3,0.4-0.7,0.8-1.9,0.8c-1.6,0-2.6-1.1-2.6-2.9v-5.3h1.5v5.2c0,0.9,0.4,1.5,1.3,1.5
					c1.1,0,1.7-0.8,1.7-1.7v-5h1.5v8h-1.5V57.2z"/>
				<path d="M130.1,45.7v12.2h-1.5V45.7H130.1z"/>
				<path d="M136,57.7c-0.3,0.1-0.6,0.3-1.3,0.3c-0.9,0-2-0.4-2-2.1v-4.7h-1v-1.3h1v-3.1l1.5-0.2v3.3h1.3v1.3h-1.3v4.7
					c0,0.6,0.3,0.7,0.6,0.7c0.4,0,0.7-0.1,1-0.3L136,57.7z"/>
				<path d="M138.3,48.4c-0.6,0-1-0.3-1-0.9c0-0.6,0.4-1,1-1c0.6,0,1,0.3,1,1C139.3,48.1,138.9,48.4,138.3,48.4z M139.1,49.9v8h-1.5
					v-8H139.1z"/>
				<path d="M150.4,52.7c0-0.9-0.5-1.5-1.4-1.5c-1,0-1.6,0.6-1.6,1.6v5.2h-1.5v-5.2c0-0.9-0.5-1.5-1.4-1.5c-1,0-1.6,0.6-1.6,1.6v5.2
					h-1.5v-8h1.5v0.7c0.3-0.3,0.9-0.8,1.8-0.8c1,0,1.8,0.4,2.2,1.2c0.4-0.6,1.2-1.2,2.3-1.2c1.6,0,2.7,1.1,2.7,2.9v5.3h-1.5V52.7z"
					/>
				<path d="M155.5,54.5c0.2,1.5,1,2.1,2,2.1c1.2,0,1.9-0.3,2.4-0.6l0.3,1.5c-0.7,0.3-1.5,0.6-2.7,0.6c-2,0-3.7-1.3-3.7-4
					c0-2.7,1.5-4.2,3.4-4.2c2.2,0,3.4,1.6,3.4,3.9v0.8H155.5z M159,53.3c0-1.4-0.7-2.1-1.8-2.1c-0.8,0-1.6,0.5-1.8,2.1H159z"/>
				<path d="M167.4,57.1c-0.2,0.3-0.9,0.9-2.1,0.9c-1.5,0-3.2-1-3.2-4c0-2.9,1.6-4.2,3.4-4.2c1.3,0,1.7,0.5,1.9,0.7v-4.8h1.5v12.2
					h-1.5V57.1z M167.4,53c0-1.3-0.8-1.8-1.8-1.8c-0.9,0-1.9,0.8-1.9,2.8c0,2,0.8,2.6,1.8,2.6c1,0,1.9-0.6,1.9-1.9V53z"/>
				<path d="M172.1,48.4c-0.6,0-1-0.3-1-0.9c0-0.6,0.4-1,1-1c0.6,0,1,0.3,1,1C173.1,48.1,172.7,48.4,172.1,48.4z M172.9,49.9v8h-1.5
					v-8H172.9z"/>
				<path d="M179.4,57.2c-0.3,0.3-0.8,0.8-1.9,0.8c-1.7,0-2.7-0.9-2.7-2.6c0-1.7,1.2-2.6,2.8-2.6c0.8,0,1.6,0.3,1.9,0.7v-1
					c0-1-0.6-1.3-1.5-1.3c-0.9,0-1.8,0.3-2.2,0.5l-0.2-1.4c0.5-0.2,1.3-0.5,2.6-0.5c1.8,0,2.8,0.9,2.8,2.7v5.4h-1.5V57.2z
					 M179.4,55.2c0-0.6-0.8-1-1.6-1c-0.8,0-1.5,0.3-1.5,1.3c0,0.9,0.7,1.2,1.5,1.2c0.9,0,1.6-0.6,1.6-1.1V55.2z"/>
				<path d="M194.3,57.1c-0.5,0.4-1.6,0.9-3.1,0.9c-2.3,0-4.4-1.6-4.4-6.1c0-4.5,2.6-6.2,4.8-6.2c1.4,0,2.2,0.4,2.8,0.8L194,48
					c-0.4-0.3-1.2-0.8-2.4-0.8c-1.6,0-3.1,1.5-3.1,4.7c0,3.2,1.4,4.6,2.8,4.6c1.3,0,2.1-0.4,2.8-0.9L194.3,57.1z"/>
				<path d="M199.3,58c-2,0-3.7-1.1-3.7-4.1c0-3,1.8-4.1,3.7-4.1c1.9,0,3.7,1.1,3.7,4.1C202.9,56.9,201.2,58,199.3,58z M199.3,51.1
					c-1.2,0-2.1,0.9-2.1,2.8c0,1.7,0.9,2.7,2.1,2.7c1.2,0,2.1-0.9,2.1-2.7C201.3,52.1,200.5,51.1,199.3,51.1z"/>
				<path d="M213.8,52.7c0-0.9-0.5-1.5-1.4-1.5c-1,0-1.6,0.6-1.6,1.6v5.2h-1.5v-5.2c0-0.9-0.5-1.5-1.4-1.5c-1,0-1.6,0.6-1.6,1.6v5.2
					h-1.5v-8h1.5v0.7c0.3-0.3,0.9-0.8,1.8-0.8c1,0,1.8,0.4,2.2,1.2c0.4-0.6,1.2-1.2,2.3-1.2c1.6,0,2.7,1.1,2.7,2.9v5.3h-1.5V52.7z"
					/>
				<path d="M226.7,52.7c0-0.9-0.5-1.5-1.4-1.5c-1,0-1.6,0.6-1.6,1.6v5.2h-1.5v-5.2c0-0.9-0.5-1.5-1.4-1.5c-1,0-1.6,0.6-1.6,1.6v5.2
					h-1.5v-8h1.5v0.7c0.3-0.3,0.9-0.8,1.8-0.8c1,0,1.8,0.4,2.2,1.2c0.4-0.6,1.2-1.2,2.3-1.2c1.6,0,2.7,1.1,2.7,2.9v5.3h-1.5V52.7z"
					/>
				<path d="M235.1,57.2c-0.3,0.4-0.7,0.8-1.9,0.8c-1.6,0-2.6-1.1-2.6-2.9v-5.3h1.5v5.2c0,0.9,0.4,1.5,1.3,1.5
					c1.1,0,1.7-0.8,1.7-1.7v-5h1.5v8h-1.5V57.2z"/>
				<path d="M243.5,52.7c0-0.9-0.5-1.5-1.4-1.5c-1,0-1.6,0.6-1.6,1.6v5.2H239v-8h1.5v0.7c0.3-0.3,0.9-0.8,1.8-0.8
					c1.6,0,2.7,1.1,2.7,2.9v5.3h-1.5V52.7z"/>
				<path d="M248.2,48.4c-0.6,0-1-0.3-1-0.9c0-0.6,0.4-1,1-1c0.6,0,1,0.3,1,1C249.2,48.1,248.8,48.4,248.2,48.4z M248.9,49.9v8h-1.5
					v-8H248.9z"/>
				<path d="M256.4,57.5c-0.3,0.2-1.2,0.5-2.1,0.5c-1.5,0-3.4-0.8-3.4-4.1c0-3.2,1.9-4.1,3.4-4.1c0.9,0,1.7,0.4,2.1,0.6l-0.3,1.4
					c-0.4-0.2-1.1-0.5-1.7-0.5c-0.9,0-1.8,0.8-1.8,2.7c0,2,0.9,2.7,1.8,2.7c0.7,0,1.3-0.3,1.7-0.6L256.4,57.5z"/>
				<path d="M262.3,57.2c-0.3,0.3-0.8,0.8-1.9,0.8c-1.7,0-2.7-0.9-2.7-2.6c0-1.7,1.2-2.6,2.8-2.6c0.8,0,1.6,0.3,1.9,0.7v-1
					c0-1-0.6-1.3-1.5-1.3c-0.9,0-1.8,0.3-2.2,0.5l-0.2-1.4c0.5-0.2,1.3-0.5,2.6-0.5c1.8,0,2.8,0.9,2.8,2.7v5.4h-1.5V57.2z
					 M262.3,55.2c0-0.6-0.8-1-1.6-1c-0.8,0-1.5,0.3-1.5,1.3c0,0.9,0.7,1.2,1.5,1.2c0.9,0,1.6-0.6,1.6-1.1V55.2z"/>
				<path d="M269.7,57.7c-0.3,0.1-0.6,0.3-1.3,0.3c-0.9,0-2-0.4-2-2.1v-4.7h-1v-1.3h1v-3.1l1.5-0.2v3.3h1.3v1.3h-1.3v4.7
					c0,0.6,0.3,0.7,0.6,0.7c0.4,0,0.7-0.1,1-0.3L269.7,57.7z"/>
				<path d="M272,48.4c-0.6,0-1-0.3-1-0.9c0-0.6,0.4-1,1-1c0.6,0,1,0.3,1,1C272.9,48.1,272.6,48.4,272,48.4z M272.7,49.9v8h-1.5v-8
					H272.7z"/>
				<path d="M278.2,58c-2,0-3.7-1.1-3.7-4.1c0-3,1.8-4.1,3.7-4.1c1.9,0,3.7,1.1,3.7,4.1C281.9,56.9,280.2,58,278.2,58z M278.2,51.1
					c-1.2,0-2.1,0.9-2.1,2.8c0,1.7,0.9,2.7,2.1,2.7c1.2,0,2.1-0.9,2.1-2.7C280.3,52.1,279.4,51.1,278.2,51.1z"/>
				<path d="M288.3,52.7c0-0.9-0.5-1.5-1.4-1.5c-1,0-1.6,0.6-1.6,1.6v5.2h-1.5v-8h1.5v0.7c0.3-0.3,0.9-0.8,1.8-0.8
					c1.6,0,2.7,1.1,2.7,2.9v5.3h-1.5V52.7z"/>
				<path d="M294.3,58c-1.3,0-2.1-0.4-2.6-0.6l0.3-1.4c0.6,0.3,1.5,0.6,2.4,0.6c0.7,0,1.4-0.2,1.4-0.9s-0.8-0.9-1.6-1.1
					c-1.1-0.3-2.4-0.6-2.4-2.3c0-1.6,1.1-2.4,3-2.4c1.1,0,1.9,0.3,2.4,0.5l-0.3,1.4c-0.6-0.3-1.2-0.5-2.2-0.5c-0.9,0-1.5,0.3-1.5,1
					c0,0.6,0.7,0.8,1.4,1c1.2,0.3,2.6,0.7,2.6,2.4C297.3,57.1,296.4,58,294.3,58z"/>
			</g>
		</g>
		<g>
			<path class="st0" d="M25.4,19.5l-14.3,4.8v-4.9L25.4,19.5L25.4,19.5z M11.2,25.1c0,0.7,1.1,1.3,2.5,1.3c0.5,0,1-0.1,1.4-0.2
				c0.4-0.1,13.7-4.8,13.7-4.8v19.1c0,0-13.4,4.7-13.7,4.8c-0.4,0.1-0.9,0.2-1.4,0.2c-1.4,0-2.5-0.7-2.5-1.9L11.2,25.1L11.2,25.1z"
				/>
			<path d="M40.6,37.1V24.9h-3.4v-1.7h8.6v1.7h-3.4v12.2H40.6z"/>
			<path d="M49.3,37.1c-2.2,0-4.2-1.3-4.2-4.7c0-3.4,2-4.7,4.2-4.7c2.2,0,4.2,1.3,4.2,4.7C53.5,35.9,51.5,37.1,49.3,37.1z
				 M49.3,29.3c-1.4,0-2.4,1.1-2.4,3.1c0,2,1,3.1,2.4,3.1c1.4,0,2.4-1.1,2.4-3.1C51.7,30.4,50.7,29.3,49.3,29.3z"/>
			<path d="M66,31.1c0-1-0.6-1.8-1.6-1.8c-1.2,0-1.8,0.7-1.8,1.8v6h-1.7v-6c0-1-0.6-1.8-1.6-1.8c-1.2,0-1.8,0.7-1.8,1.8v6h-1.7v-9.2
				h1.7v0.8c0.3-0.4,1-0.9,2.1-0.9c1.1,0,2,0.5,2.6,1.4c0.5-0.7,1.3-1.4,2.6-1.4c1.8,0,3,1.2,3,3.3v6H66V31.1z"/>
			<path d="M75.1,36.2c-0.3,0.3-0.9,0.9-2.2,0.9c-2,0-3.1-1-3.1-2.9c0-2,1.4-3,3.2-3c1,0,1.8,0.4,2.1,0.8v-1.1
				c0-1.1-0.7-1.5-1.7-1.5c-1.1,0-2,0.3-2.6,0.6l-0.2-1.6c0.6-0.2,1.5-0.6,3-0.6c2.1,0,3.2,1.1,3.2,3.1v6.2h-1.7V36.2z M75.1,33.9
				c0-0.7-0.9-1.2-1.8-1.2c-0.9,0-1.7,0.4-1.7,1.5c0,1,0.8,1.4,1.7,1.4c1,0,1.8-0.7,1.8-1.3V33.9z"/>
			<path d="M82,37.1c-1.4,0-2.5-0.4-3-0.7l0.3-1.6c0.7,0.3,1.7,0.7,2.7,0.7c0.8,0,1.6-0.2,1.6-1.1c0-0.8-0.9-1-1.9-1.3
				c-1.3-0.3-2.7-0.7-2.7-2.6c0-1.9,1.3-2.7,3.5-2.7c1.3,0,2.2,0.3,2.8,0.5L85,29.9c-0.7-0.3-1.4-0.6-2.5-0.6c-1,0-1.7,0.3-1.7,1.2
				c0,0.7,0.8,0.9,1.6,1.1c1.4,0.4,3,0.8,3,2.8C85.5,36.2,84.5,37.1,82,37.1z"/>
			<path d="M95.9,37.1h-3.9V23.1h4.2c2.6,0,4.1,1.4,4.1,3.7c0,1.6-0.8,2.5-2,3c1.3,0.5,2.1,1.7,2.1,3.2
				C100.4,35.6,98.7,37.1,95.9,37.1z M96.2,24.9h-2.3V29H96c1.4,0,2.4-0.7,2.4-2.1C98.3,25.5,97.5,24.9,96.2,24.9z M96,30.7h-2.1
				v4.6H96c1.4,0,2.5-0.8,2.5-2.2C98.4,31.6,97.4,30.7,96,30.7z"/>
			<path d="M107.4,36.2c-0.3,0.3-0.9,0.9-2.2,0.9c-2,0-3.1-1-3.1-2.9c0-2,1.4-3,3.2-3c1,0,1.8,0.4,2.1,0.8v-1.1
				c0-1.1-0.7-1.5-1.7-1.5c-1.1,0-2,0.3-2.6,0.6l-0.2-1.6c0.6-0.2,1.5-0.6,3-0.6c2.1,0,3.2,1.1,3.2,3.1v6.2h-1.7V36.2z M107.4,33.9
				c0-0.7-0.9-1.2-1.8-1.2c-0.9,0-1.7,0.4-1.7,1.5c0,1,0.8,1.4,1.7,1.4c1,0,1.8-0.7,1.8-1.3V33.9z"/>
			<path d="M115.9,36.8c-0.3,0.2-0.7,0.3-1.5,0.3c-1.1,0-2.3-0.4-2.3-2.4v-5.4h-1.2v-1.4h1.2v-3.6l1.7-0.2v3.8h1.5v1.4h-1.5v5.4
				c0,0.7,0.3,0.8,0.7,0.8c0.4,0,0.8-0.1,1.1-0.3L115.9,36.8z"/>
			<path d="M122.4,36.2c-0.3,0.3-0.9,0.9-2.2,0.9c-2,0-3.1-1-3.1-2.9c0-2,1.4-3,3.2-3c1,0,1.8,0.4,2.1,0.8v-1.1
				c0-1.1-0.7-1.5-1.7-1.5c-1.1,0-2,0.3-2.6,0.6l-0.2-1.6c0.6-0.2,1.5-0.6,3-0.6c2.1,0,3.2,1.1,3.2,3.1v6.2h-1.7V36.2z M122.4,33.9
				c0-0.7-0.9-1.2-1.8-1.2c-0.9,0-1.7,0.4-1.7,1.5c0,1,0.8,1.4,1.7,1.4c1,0,1.8-0.7,1.8-1.3V33.9z"/>
			<path d="M139.9,32.2c0,3.2-1.2,4.9-4.3,4.9c-3.1,0-4.4-1.7-4.4-4.9v-9.1h1.8v9c0,2.1,0.6,3.2,2.5,3.2s2.5-1.1,2.5-3.2v-9h1.8
				V32.2z"/>
			<path d="M147.8,31.1c0-1-0.6-1.8-1.6-1.8c-1.2,0-1.8,0.7-1.8,1.8v6h-1.7v-9.2h1.7v0.8c0.3-0.4,1-0.9,2.1-0.9
				c1.8,0,3.1,1.2,3.1,3.3v6h-1.7V31.1z"/>
			<path d="M153.1,26.1c-0.7,0-1.1-0.4-1.1-1.1c0-0.7,0.4-1.1,1.1-1.1c0.7,0,1.1,0.4,1.1,1.1C154.2,25.8,153.8,26.1,153.1,26.1z
				 M154,27.9v9.2h-1.7v-9.2H154z"/>
			<path d="M155.3,27.9h1.9l2.3,6.9l2.3-6.9h1.9l-3.4,9.2h-1.7L155.3,27.9z"/>
			<path d="M166,33.2c0.2,1.7,1.2,2.4,2.3,2.4c1.3,0,2.1-0.3,2.8-0.7l0.3,1.7c-0.8,0.4-1.7,0.6-3.1,0.6c-2.3,0-4.2-1.4-4.2-4.6
				c0-3.1,1.7-4.8,3.9-4.8c2.5,0,3.9,1.8,3.9,4.5v0.9H166z M170.1,31.8c0-1.6-0.8-2.5-2-2.5c-0.9,0-1.9,0.5-2,2.5H170.1z"/>
			<path d="M178,29.8c-0.2-0.1-0.6-0.2-1.1-0.2c-0.7,0-1.2,0.6-1.2,1.5v6H174v-9.2h1.7v1c0.3-0.6,0.8-1.1,1.7-1.1
				c0.3,0,0.7,0.1,0.8,0.2L178,29.8z"/>
			<path d="M182.5,37.1c-1.4,0-2.5-0.4-3-0.7l0.3-1.6c0.7,0.3,1.7,0.7,2.7,0.7c0.8,0,1.6-0.2,1.6-1.1c0-0.8-0.9-1-1.9-1.3
				c-1.3-0.3-2.7-0.7-2.7-2.6c0-1.9,1.3-2.7,3.5-2.7c1.3,0,2.2,0.3,2.8,0.5l-0.3,1.6c-0.7-0.3-1.4-0.6-2.5-0.6c-1,0-1.7,0.3-1.7,1.2
				c0,0.7,0.8,0.9,1.6,1.1c1.4,0.4,3,0.8,3,2.8C185.9,36.2,184.9,37.1,182.5,37.1z"/>
			<path d="M188.9,26.1c-0.7,0-1.1-0.4-1.1-1.1c0-0.7,0.4-1.1,1.1-1.1c0.7,0,1.1,0.4,1.1,1.1C190.1,25.8,189.6,26.1,188.9,26.1z
				 M189.8,27.9v9.2h-1.7v-9.2H189.8z"/>
			<path d="M196.9,36.8c-0.3,0.2-0.7,0.3-1.5,0.3c-1.1,0-2.3-0.4-2.3-2.4v-5.4h-1.2v-1.4h1.2v-3.6l1.7-0.2v3.8h1.5v1.4h-1.5v5.4
				c0,0.7,0.4,0.8,0.7,0.8c0.4,0,0.8-0.1,1.1-0.3L196.9,36.8z"/>
			<path d="M200.8,40.8v-5.2l-3.5-7.7h1.9l2.4,5.8l2.4-5.8h1.9l-3.5,7.7v5.2H200.8z"/>
		</g>
	</g>
</g>
<g id="popisky">
</g>
</svg>
