<?xml version="1.0" encoding="utf-8"?>
<!-- Generator: Adobe Illustrator 19.2.1, SVG Export Plug-In . SVG Version: 6.00 Build 0)  -->
<svg version="1.1" xmlns="http://www.w3.org/2000/svg" xmlns:xlink="http://www.w3.org/1999/xlink" x="0px" y="0px"
	 viewBox="0 0 217.2 77.7" style="enable-background:new 0 0 217.2 77.7;" xml:space="preserve">
<style type="text/css">
	.st0{fill:#6B6B6B;}
</style>
<g id="Layer_2">
</g>
<g id="grafika">
</g>
<g id="content">
	<g>
		<path class="st0" d="M56.7,45.7c0,1.8-0.5,3-1.3,3.8c-0.8,0.8-2.1,1.3-4.1,1.3l-9.5,0V40.6h9.5c1.9,0,3.2,0.5,4,1.3
			C56.2,42.7,56.7,43.9,56.7,45.7 M41.9,36.7V26.4h8.7c1.9,0,3.2,0.5,4.1,1.3c0.8,0.8,1.3,2,1.3,3.8c0,1.8-0.5,3-1.3,3.8
			c-0.8,0.8-2,1.2-3.9,1.3H41.9z M57.3,38.4c1.9-1.5,2.8-3.9,2.8-6.8v-0.1v0v0c0-2.8-0.8-5-2.5-6.6c-1.7-1.6-4-2.3-6.8-2.3h0
			c0,0,0,0,0,0l-13.2,0v32.2h13.9c2.8,0,5.2-0.7,6.8-2.3c1.7-1.5,2.5-3.8,2.5-6.6l0,0v-0.1C61,42.4,59.7,39.8,57.3,38.4"/>
		<path class="st0" d="M87.7,32.6c0-3.2-1.1-5.9-3.3-7.7c-2.1-1.8-5.1-2.8-8.7-2.8c0,0,0,0,0,0c0,0,0,0,0,0c0,0,0,0,0,0
			c-3.7,0-6.8,1-9,3.1c-2.2,2-3.4,5-3.3,8.6c0,0,0,0,0,0c0,0,0,0,0,0c0,0,0,0,0,0l0,9.4c0,0,0,0,0,0c0,0,0,0,0,0
			c0,3.6,1.2,6.6,3.3,8.7c2.2,2,5.3,3.1,9,3.1l0,0h0.1c3.6,0,6.6-0.9,8.7-2.8c2.1-1.8,3.3-4.5,3.3-7.7v0v0l0,0l0-1.2h-4.1v1.2
			c0,2.1-0.7,3.7-2,4.8c-1.3,1.1-3.2,1.8-5.9,1.8c-2.7,0-4.8-0.8-6.1-2.1c-1.4-1.3-2.1-3.2-2.1-5.8l0-9.5c0-2.6,0.8-4.5,2.1-5.8
			c1.4-1.3,3.4-2.1,6.1-2.1c2.6,0,4.6,0.7,5.9,1.8c1.3,1.1,2,2.7,2,4.8v1.2h0.5l3.6,0V32.6L87.7,32.6L87.7,32.6L87.7,32.6z"/>
		<path class="st0" d="M91.2,43.4L91.2,43.4L91.2,43.4L91.2,43.4L91.2,43.4z M91,43.5l0.1-0.1h0L91,43.5z M111.2,33.8h4.1v-1.2
			c0,0,0,0,0,0c0,0,0,0,0,0c0-3.2-1.1-5.9-3.3-7.7c-2.1-1.8-5.1-2.8-8.7-2.8c0,0,0,0,0,0c0,0,0,0,0,0c0,0,0,0,0,0
			c-3.7,0-6.8,1-9,3.1c-2.2,2-3.4,5-3.3,8.6c0,0,0,0,0,0c0,0,0,0,0,0c0,0,0,0,0,0v9.4c0,0,0,0,0,0c0,0,0,0,0,0
			c0,3.6,1.2,6.6,3.4,8.7c2.2,2,5.3,3.1,9,3.1l0,0h0.1c3.6,0,6.6-0.9,8.7-2.8c2.1-1.8,3.3-4.5,3.3-7.7v0v-1.2h-4.1v1.2
			c0,2.1-0.7,3.7-2,4.8c-1.3,1.1-3.2,1.8-5.9,1.8c-2.7,0-4.8-0.8-6.1-2.1c-1.4-1.3-2.1-3.2-2.1-5.8v-9.5c0-2.6,0.8-4.5,2.1-5.8
			c1.4-1.3,3.4-2.1,6.1-2.1c2.6,0,4.6,0.7,5.9,1.8c1.3,1.1,2,2.7,2,4.8V33.8z"/>
		<polygon class="st0" points="8.2,26.1 22.4,35.1 22.4,47 8.2,38 		"/>
		<polygon class="st0" points="13.1,46.7 30.4,36.6 30.4,48.5 13.1,58.6 		"/>
		<g>
			<path d="M121.4,23.8h3.1c1.3,0,2,0.6,2,1.9c0,0.8-0.3,1.4-0.9,1.7c0.7,0.3,1.1,0.9,1.1,1.8c0,1.3-0.7,1.9-2,1.9h-3.2V23.8z
				 M122.2,27h2.1c0.9,0,1.3-0.4,1.3-1.2c0-0.8-0.4-1.2-1.3-1.2h-2.1V27z M122.2,30.3h2.2c0.9,0,1.3-0.4,1.3-1.2
				c0-0.8-0.4-1.3-1.3-1.3h-2.2V30.3z"/>
			<path d="M127.8,23.8h2.9c1.4,0,2.3,0.7,2.3,2.2c0,1.2-0.5,1.8-1.4,2.1L133,31h-1l-1.3-2.7h-2.1V31h-0.9V23.8z M128.6,27.5h2
				c0.9,0,1.5-0.4,1.5-1.5c0-1.1-0.6-1.5-1.5-1.5h-2V27.5z"/>
			<path d="M134.2,23.8h0.9V31h-0.9V23.8z"/>
			<path d="M135.8,23.8h5.6v0.7h-2.4V31h-0.9v-6.5h-2.4V23.8z"/>
			<path d="M142.3,23.8h0.9V31h-0.9V23.8z"/>
			<path d="M147.7,27.9l-1.4-0.3c-1.1-0.2-1.8-0.8-1.8-1.9c0-1.3,0.9-2,2.6-2c1.6,0,2.6,0.7,2.6,2.2V26h-0.8v-0.1
				c0-0.9-0.6-1.4-1.7-1.4s-1.7,0.4-1.7,1.2c0,0.7,0.4,1.1,1.1,1.2l1.4,0.3c1.2,0.2,1.8,0.8,1.8,1.9c0,1.4-1,2.1-2.6,2.1
				c-1.6,0-2.6-0.7-2.6-2.2v-0.1h0.9v0.1c0,0.9,0.6,1.4,1.8,1.4c1.1,0,1.7-0.4,1.7-1.3C148.8,28.4,148.4,28,147.7,27.9z"/>
			<path d="M155.6,27.8h-3.7V31H151v-7.2h0.9V27h3.7v-3.2h0.9V31h-0.9V27.8z"/>
			<path d="M166.4,28.7L166.4,28.7c0,1.6-1,2.4-2.7,2.4c-1.7,0-2.8-0.9-2.8-2.6v-2.2c0-1.7,1.1-2.6,2.8-2.6c1.7,0,2.7,0.9,2.7,2.4v0
				h-0.9v0c0-1-0.7-1.6-1.8-1.6c-1.2,0-1.9,0.7-1.9,1.8v2.2c0,1.2,0.7,1.8,1.9,1.8c1.2,0,1.9-0.6,1.9-1.7v0H166.4z"/>
			<path d="M172.2,27.8h-3.7V31h-0.9v-7.2h0.9V27h3.7v-3.2h0.9V31h-0.9V27.8z"/>
			<path d="M180.1,31h-0.9l-0.7-1.9h-3.2l-0.7,1.9h-0.8l2.7-7.2h1L180.1,31z M175.5,28.4h2.8l-1.4-3.7L175.5,28.4z"/>
			<path d="M186.2,25.5l-2.3,4.2l-2.2-4.2V31h-0.9v-7.2h0.8l2.3,4.3l2.3-4.3h0.8V31h-0.8V25.5z"/>
			<path d="M188.5,23.8h3.1c1.3,0,2,0.6,2,1.9c0,0.8-0.3,1.4-0.9,1.7c0.7,0.3,1.1,0.9,1.1,1.8c0,1.3-0.7,1.9-2,1.9h-3.2V23.8z
				 M189.3,27h2.1c0.9,0,1.3-0.4,1.3-1.2c0-0.8-0.4-1.2-1.3-1.2h-2.1V27z M189.3,30.3h2.2c0.9,0,1.3-0.4,1.3-1.2
				c0-0.8-0.4-1.3-1.3-1.3h-2.2V30.3z"/>
			<path d="M194.8,23.8h4.7v0.7h-3.8V27h3.3v0.7h-3.3v2.5h3.8V31h-4.7V23.8z"/>
			<path d="M200.6,23.8h2.9c1.4,0,2.3,0.7,2.3,2.2c0,1.2-0.5,1.8-1.4,2.1l1.4,2.9h-1l-1.3-2.7h-2.1V31h-0.9V23.8z M201.5,27.5h2
				c0.9,0,1.5-0.4,1.5-1.5c0-1.1-0.6-1.5-1.5-1.5h-2V27.5z"/>
			<path d="M126.9,40.1c0,1.7-1.1,2.6-2.8,2.6c-1.7,0-2.8-0.9-2.8-2.6v-2.2c0-1.7,1.1-2.6,2.8-2.6c1.7,0,2.8,0.9,2.8,2.6V40.1z
				 M126,37.9c0-1.2-0.7-1.8-1.9-1.8c-1.2,0-1.9,0.7-1.9,1.8v2.2c0,1.2,0.7,1.8,1.9,1.8c1.2,0,1.9-0.7,1.9-1.8V37.9z"/>
			<path d="M128.2,35.4h4.5v0.7h-3.6v2.7h3.1v0.7h-3.1v3h-0.9V35.4z"/>
			<path d="M141.9,40.3L141.9,40.3c0,1.6-1,2.4-2.7,2.4c-1.7,0-2.8-0.9-2.8-2.6v-2.2c0-1.7,1.1-2.6,2.8-2.6c1.7,0,2.7,0.9,2.7,2.4v0
				H141v0c0-1-0.7-1.6-1.8-1.6c-1.2,0-1.9,0.7-1.9,1.8v2.2c0,1.2,0.7,1.8,1.9,1.8c1.2,0,1.9-0.6,1.9-1.6v0H141.9z"/>
			<path d="M148.6,40.1c0,1.7-1.1,2.6-2.8,2.6c-1.7,0-2.8-0.9-2.8-2.6v-2.2c0-1.7,1.1-2.6,2.8-2.6c1.7,0,2.8,0.9,2.8,2.6V40.1z
				 M147.8,37.9c0-1.2-0.7-1.8-1.9-1.8c-1.2,0-1.9,0.7-1.9,1.8v2.2c0,1.2,0.7,1.8,1.9,1.8c1.2,0,1.9-0.7,1.9-1.8V37.9z"/>
			<path d="M155.3,37.1l-2.3,4.2l-2.2-4.2v5.5H150v-7.2h0.8l2.3,4.3l2.3-4.3h0.8v7.2h-0.8V37.1z"/>
			<path d="M163,37.1l-2.3,4.2l-2.2-4.2v5.5h-0.9v-7.2h0.8l2.3,4.3l2.3-4.3h0.8v7.2H163V37.1z"/>
			<path d="M165.3,35.4h4.7v0.7h-3.8v2.5h3.3v0.7h-3.3v2.5h3.8v0.7h-4.7V35.4z"/>
			<path d="M171.1,35.4h2.9c1.4,0,2.3,0.7,2.3,2.2c0,1.2-0.5,1.8-1.4,2.1l1.4,2.9h-1l-1.3-2.7h-2.1v2.7h-0.9V35.4z M171.9,39.1h2
				c0.9,0,1.5-0.4,1.5-1.5c0-1.1-0.6-1.5-1.5-1.5h-2V39.1z"/>
			<path d="M182.9,40.3L182.9,40.3c0,1.6-1,2.4-2.7,2.4c-1.7,0-2.8-0.9-2.8-2.6v-2.2c0-1.7,1.1-2.6,2.8-2.6c1.7,0,2.7,0.9,2.7,2.4v0
				H182v0c0-1-0.7-1.6-1.8-1.6c-1.2,0-1.9,0.7-1.9,1.8v2.2c0,1.2,0.7,1.8,1.9,1.8c1.2,0,1.9-0.6,1.9-1.6v0H182.9z"/>
			<path d="M184.2,35.4h4.7v0.7H185v2.5h3.3v0.7H185v2.5h3.8v0.7h-4.7V35.4z"/>
			<path d="M126.8,51.9L126.8,51.9c0,1.6-1,2.4-2.7,2.4c-1.7,0-2.8-0.9-2.8-2.6v-2.2c0-1.7,1.1-2.6,2.8-2.6c1.7,0,2.7,0.9,2.7,2.4v0
				h-0.9v0c0-1-0.7-1.6-1.8-1.6c-1.2,0-1.9,0.7-1.9,1.8v2.2c0,1.2,0.7,1.8,1.9,1.8c1.2,0,1.9-0.6,1.9-1.6v0H126.8z"/>
			<path d="M131.9,47.7h-4.2V47h5.2v0.7l-4.2,5.7h4.2v0.7h-5.2v-0.7L131.9,47.7z"/>
			<path d="M134,47h4.7v0.7h-3.8v2.5h3.3V51h-3.3v2.5h3.8v0.7H134V47z"/>
			<path d="M145.2,51.9L145.2,51.9c0,1.6-1,2.4-2.7,2.4c-1.7,0-2.8-0.9-2.8-2.6v-2.2c0-1.7,1.1-2.6,2.8-2.6c1.7,0,2.7,0.9,2.7,2.4v0
				h-0.9v0c0-1-0.7-1.6-1.8-1.6c-1.2,0-1.9,0.7-1.9,1.8v2.2c0,1.2,0.7,1.8,1.9,1.8c1.2,0,1.9-0.6,1.9-1.6v0H145.2z"/>
			<path d="M151,51h-3.7v3.2h-0.9V47h0.9v3.2h3.7V47h0.9v7.2H151V51z"/>
			<path d="M156.4,47h2.9c1.4,0,2.3,0.7,2.3,2.2c0,1.2-0.5,1.8-1.4,2.1l1.4,2.9h-1l-1.3-2.7h-2.1v2.7h-0.9V47z M157.2,50.7h2
				c0.9,0,1.5-0.4,1.5-1.5c0-1.1-0.6-1.5-1.5-1.5h-2V50.7z"/>
			<path d="M162.8,47h4.7v0.7h-3.8v2.5h3.3V51h-3.3v2.5h3.8v0.7h-4.7V47z"/>
			<path d="M168.6,47h2.7c1.4,0,2.3,0.7,2.3,2.2c0,1.6-0.9,2.2-2.3,2.2h-1.9v2.7h-0.9V47z M169.5,50.7h1.8c0.9,0,1.5-0.4,1.5-1.5
				c0-1.1-0.6-1.5-1.5-1.5h-1.8V50.7z"/>
			<path d="M180,47v4.8c0,1.6-1,2.5-2.7,2.5c-1.7,0-2.7-0.9-2.7-2.5V47h0.8v4.8c0,1.1,0.7,1.8,1.8,1.8c1.2,0,1.8-0.6,1.8-1.8V47H180
				z"/>
			<path d="M181.4,47h3.1c1.3,0,2,0.6,2,1.9c0,0.8-0.3,1.4-0.9,1.7c0.7,0.3,1.1,0.9,1.1,1.8c0,1.3-0.7,1.9-2,1.9h-3.2V47z
				 M182.3,50.2h2.1c0.9,0,1.3-0.4,1.3-1.2c0-0.8-0.4-1.2-1.3-1.2h-2.1V50.2z M182.3,53.5h2.2c0.9,0,1.3-0.4,1.3-1.2
				c0-0.8-0.4-1.3-1.3-1.3h-2.2V53.5z"/>
			<path d="M187.8,47h0.9v6.5h3.8v0.7h-4.7V47z"/>
			<path d="M193.4,47h0.9v7.2h-0.9V47z"/>
			<path d="M201.1,51.9L201.1,51.9c0,1.6-1,2.4-2.7,2.4c-1.7,0-2.8-0.9-2.8-2.6v-2.2c0-1.7,1.1-2.6,2.8-2.6c1.7,0,2.7,0.9,2.7,2.4v0
				h-0.9v0c0-1-0.7-1.6-1.8-1.6c-1.2,0-1.9,0.7-1.9,1.8v2.2c0,1.2,0.7,1.8,1.9,1.8c1.2,0,1.9-0.6,1.9-1.6v0H201.1z"/>
		</g>
	</g>
</g>
<g id="popisky">
</g>
</svg>
