<?xml version="1.0" encoding="utf-8"?>
<!-- Generator: Adobe Illustrator 19.2.1, SVG Export Plug-In . SVG Version: 6.00 Build 0)  -->
<svg version="1.1" xmlns="http://www.w3.org/2000/svg" xmlns:xlink="http://www.w3.org/1999/xlink" x="0px" y="0px"
	 viewBox="0 0 258.7 77.7" style="enable-background:new 0 0 258.7 77.7;" xml:space="preserve">
<style type="text/css">
	.st0{fill:#6B6B6B;}
</style>
<g id="Layer_2">
</g>
<g id="grafika">
</g>
<g id="content">
	<g>
		<path class="st0" d="M11,29.2c3.5-7.4,11-12.5,19.6-12.5c9.2,0,17,5.7,20.2,13.7c-1.4-1.5-4-2.8-8.8-2.8
			c-10.1,0-10.4,5.4-10.4,7.7V48H37V36.6c0-1.9,0.1-5.2,5-5.2c4.9,0,5,3.3,5,5.2V48h3c-3.6,7.1-10.9,12-19.4,12
			c-8.8,0-16.4-5.3-19.8-12.8c1.5,1.3,4,2.3,8.4,2.3c10.1,0,10.4-5.4,10.4-7.7V29.2h-5.4v11.4c0,1.9-0.1,5.2-5,5.2
			c-4.9,0-5-3.3-5-5.2V29.2H11L11,29.2z"/>
		<path d="M86,48h-3v-2.4H83c-1.4,2.2-3.9,2.9-6.1,2.9c-3.8,0-6.6-1.6-6.6-5.5V32.3h3v10.1c0,2.3,1.4,3.6,4.6,3.6
			c2.7,0,5.2-1.6,5.2-4.7v-9.1h3V48z"/>
		<path d="M89.7,32.3h3v2.4h0.1c1.4-2.2,3.9-2.9,6.1-2.9c3.8,0,6.6,1.6,6.6,5.5V48h-3V37.9c0-2.3-1.4-3.6-4.6-3.6
			c-2.7,0-5.2,1.6-5.2,4.7v9h-3V32.3z"/>
		<rect x="109.1" y="27.4" width="3" height="2.8"/>
		<rect x="109.1" y="32.3" width="3" height="15.7"/>
		<path d="M117.1,27.5h3v4.8h4.5v2.3h-4.5v9.7c0,1.3,0.9,1.7,2.4,1.7c0.7,0,1.4-0.1,2.1-0.2v2.5c-1,0.2-2.1,0.2-3.4,0.2
			c-2.9,0-4.1-1.4-4.1-3.7V34.6h-3.2v-2.3h3.2V27.5z"/>
		<path d="M129.4,41c0.2,3.2,3.1,5,5.8,5c1.7,0,4-0.6,5.1-2.8h3.2c-1.5,3.8-5,5.3-8.1,5.3c-6.1,0-9.1-3.9-9.1-8.4
			c0-4.5,3-8.4,9.1-8.4c4.1,0,8.5,2.4,8.5,8.9V41H129.4z M140.6,38.7c-0.5-2.8-2.7-4.4-5.5-4.4c-2.8,0-5.2,1.6-5.7,4.4H140.6z"/>
		<path d="M160.7,46L160.7,46c-1.2,1.6-3.7,2.5-6,2.5c-4.7,0-8.5-3-8.5-8.3c0-5.3,3.8-8.3,8.5-8.3c2.3,0,4.8,0.8,6,2.5h0.1v-7h3V48
			h-3V46z M155.1,46c4.1,0,5.8-2.8,5.8-5.8c0-3.6-2.3-5.8-5.8-5.8c-3.5,0-5.8,2.2-5.8,5.8C149.3,43.2,151.1,46,155.1,46z"/>
		<path d="M167,37.4c0.5-3.9,2.5-5.2,7.1-5.2c4.5,0,7,1.1,7,4.5v8.6c0,1.1,0,1.8,1,1.8c0.4,0,0.9-0.1,1.3-0.2v1.2
			c-0.4,0.2-1,0.2-1.7,0.2c-1.9,0-1.9-1.3-1.9-3.4h-0.1c-1.7,3.1-5.3,3.5-7.3,3.5c-1.3,0-6.3,0-6.3-4.7c0-3.1,2.7-4.2,5.8-4.4
			l5.4-0.4c1.6-0.1,2.3-0.3,2.3-2.2c0-2.1-1.2-3.5-5.7-3.5c-4,0-5.3,1.3-5.7,4H167z M179.8,39.4L179.8,39.4
			c-0.4,0.4-1.2,0.7-2.5,0.8l-5.2,0.4c-2.6,0.2-4.4,0.9-4.4,3.2c0,3.1,3.1,3.5,5,3.5c3.1,0,7.1-1.4,7.1-5V39.4z"/>
		<path d="M199.1,44.6L199.1,44.6c-0.8,1.8-2.9,3.8-6.9,3.8c-5.4,0-8.2-3.8-8.2-8.2c0-4.9,3.5-8.1,8.2-8.1c3.8,0,5.9,2.1,6.8,3.7
			h0.1v-8.5h1.4V48h-1.4V44.6z M199.3,40.5c0-5.4-3.9-7.1-7-7.1c-3.5,0-6.8,2.2-6.8,6.9c0,4.4,2.8,7,6.6,7
			C197.9,47.3,199.3,43.2,199.3,40.5z"/>
		<path d="M203.9,32.7h1.4v3.1h0.1c1-1.8,3-3.5,6.5-3.5c7,0,7,4.5,7,6.4V48h-1.4v-9.4c0-3.1-1.2-5.2-5.7-5.2c-4.5,0-6.5,2.8-6.5,5.7
			v9h-1.4V32.7z"/>
		<path d="M222.7,40.6c0.1,3.8,2.7,6.7,7.3,6.7c4.8,0,6-3,6.5-4.4h1.4c-1.3,3.9-4,5.6-8.1,5.6c-5.2,0-8.5-3.2-8.5-8.3
			c0-3.2,2-8,8.6-8c5.3,0,8.4,3.5,8.5,8.5H222.7z M236.8,39.4c-0.6-4.2-3.5-6.1-7-6.1c-4,0-6.4,2.4-7,6.1H236.8z"/>
		<path d="M242,27.5h1.4v5.2h4.6v1.2h-4.6v11.1c0,1.9,1.1,2.2,2.8,2.2c0.6,0,1.3-0.1,1.9-0.2v1.2c-0.7,0.1-1.6,0.2-2.3,0.2
			c-3.2,0-3.7-1.2-3.7-4.1V33.9h-3.5v-1.2h3.5V27.5z"/>
	</g>
</g>
<g id="popisky">
</g>
</svg>
