<?xml version="1.0" encoding="UTF-8"?>
<svg width="24px" height="24px" viewBox="0 0 24 24" version="1.1" xmlns="http://www.w3.org/2000/svg" xmlns:xlink="http://www.w3.org/1999/xlink">
    <!-- Generator: Sketch 47.1 (45422) - http://www.bohemiancoding.com/sketch -->
    <title>icon-facebook</title>
    <desc>Created with Sketch.</desc>
    <defs></defs>
    <g id="Symbols" stroke="none" stroke-width="1" fill-rule="evenodd">
        <g id="Footer/Basic" transform="translate(-1232.000000, -41.000000)" fill-rule="nonzero">
            <path d="M1244,41 C1237.37259,41 1232,46.3735635 1232,53 C1232,59.6274112 1237.37259,64.9990254 1244,64.9990254 C1250.62741,64.9990254 1256,59.6274112 1256,53 C1256,46.3735635 1250.62692,41 1244,41 Z M1247.1758,52.9498071 L1245.09791,52.9498071 C1245.09791,56.270335 1245.09791,60.3603249 1245.09791,60.3603249 L1242.01811,60.3603249 C1242.01811,60.3603249 1242.01811,56.3122437 1242.01811,52.9498071 L1240.55326,52.9498071 L1240.55326,50.3334416 L1242.01811,50.3334416 L1242.01811,48.6380914 C1242.01811,47.4246904 1242.59411,45.5305178 1245.12666,45.5305178 L1247.40727,45.5392893 L1247.40727,48.0806091 C1247.40727,48.0806091 1246.02039,48.0806091 1245.75139,48.0806091 C1245.48093,48.0806091 1245.0984,48.2155939 1245.0984,48.7925685 L1245.0984,50.3339289 L1247.44625,50.3339289 L1247.1758,52.9498071 Z" id="icon-facebook"></path>
        </g>
    </g>
</svg>
