<?xml version="1.0" encoding="UTF-8"?>
<svg width="24px" height="24px" viewBox="0 0 24 24" version="1.1" xmlns="http://www.w3.org/2000/svg" xmlns:xlink="http://www.w3.org/1999/xlink">
    <!-- Generator: Sketch 47.1 (45422) - http://www.bohemiancoding.com/sketch -->
    <title>icon-twitter</title>
    <desc>Created with Sketch.</desc>
    <defs></defs>
    <g id="Symbols" stroke="none" stroke-width="1" fill-rule="evenodd">
        <g id="Footer/Basic" transform="translate(-1268.000000, -41.000000)" fill-rule="nonzero">
            <path d="M1280.00049,41 C1273.37281,41 1268,46.3737817 1268,53.0004873 C1268,59.6281676 1273.37281,65 1280.00049,65 C1286.62817,65 1292,59.6281676 1292,53.0004873 C1292,46.3737817 1286.62768,41 1280.00049,41 Z M1286.04532,50.5808967 C1286.05166,50.7105263 1286.05409,50.8406433 1286.05409,50.9722222 C1286.05409,54.9688109 1283.01218,59.5765107 1277.44981,59.5765107 C1275.7422,59.5765107 1274.15205,59.0760234 1272.81384,58.2183236 C1273.05068,58.2461014 1273.29094,58.2602339 1273.53509,58.2602339 C1274.95224,58.2602339 1276.25634,57.7768031 1277.29094,56.9658869 C1275.96784,56.9410331 1274.85136,56.0662768 1274.46637,54.8650097 C1274.65058,54.9010721 1274.84016,54.9191033 1275.03509,54.9191033 C1275.31092,54.9191033 1275.57797,54.8830409 1275.83187,54.8133528 C1274.44786,54.535575 1273.40546,53.3123782 1273.40546,51.8484405 C1273.40546,51.8352827 1273.40546,51.8226121 1273.40595,51.8094542 C1273.81335,52.0360624 1274.27973,52.1720273 1274.77583,52.1881092 C1273.96394,51.6447368 1273.43031,50.7202729 1273.43031,49.6705653 C1273.43031,49.1164717 1273.57943,48.5964912 1273.83967,48.1500975 C1275.33138,49.9795322 1277.55994,51.1837232 1280.07359,51.3094542 C1280.02193,51.088694 1279.99513,50.8572125 1279.99513,50.6203704 C1279.99513,48.9507797 1281.34893,47.5964912 1283.01949,47.5964912 C1283.88938,47.5964912 1284.67495,47.9639376 1285.22661,48.5511696 C1285.91569,48.4161793 1286.56287,48.1637427 1287.14717,47.8172515 C1286.92057,48.5238791 1286.44152,49.1164717 1285.81676,49.4902534 C1286.42934,49.417154 1287.01218,49.254386 1287.55409,49.0141326 C1287.14961,49.6218324 1286.63645,50.1544834 1286.04532,50.5808967 Z" id="icon-twitter"></path>
        </g>
    </g>
</svg>
