<?xml version="1.0" encoding="UTF-8"?>
<svg width="24px" height="24px" viewBox="0 0 24 24" version="1.1" xmlns="http://www.w3.org/2000/svg" xmlns:xlink="http://www.w3.org/1999/xlink">
    <!-- Generator: Sketch 47.1 (45422) - http://www.bohemiancoding.com/sketch -->
    <title>icon-vimeo</title>
    <desc>Created with Sketch.</desc>
    <defs></defs>
    <g id="Symbols" stroke="none" stroke-width="1" fill-rule="evenodd">
        <g id="Footer/Basic" transform="translate(-1340.000000, -41.000000)" fill-rule="nonzero">
            <path d="M1352.00049,41 C1345.37281,41 1340,46.372807 1340,53.0004873 C1340,59.6291423 1345.37281,65.0009747 1352.00049,65.0009747 C1358.62817,65.0009747 1364,59.6291423 1364,53.0004873 C1364,46.372807 1358.62768,41 1352.00049,41 Z M1358.95127,50.0453216 C1358.14961,54.5618908 1353.67154,58.3849903 1352.32456,59.2587719 C1350.97661,60.1306043 1349.74805,58.9074074 1349.30263,57.9834308 C1348.7924,56.9288499 1347.26316,51.211501 1346.86306,50.7373294 C1346.46248,50.2631579 1345.26121,51.211501 1345.26121,51.211501 L1344.67885,50.4463938 C1344.67885,50.4463938 1347.11842,47.5336257 1348.97466,47.1681287 C1350.94298,46.7836257 1350.94006,50.1915205 1351.41423,52.084308 C1351.87183,53.915692 1352.17934,54.961501 1352.57943,54.961501 C1352.98002,54.961501 1353.74464,53.9420078 1354.58187,52.3762183 C1355.42057,50.8094542 1354.54581,49.4254386 1352.90643,50.4098441 C1353.56238,46.4775828 1359.75292,45.5316764 1358.95127,50.0453216 Z" id="icon-vimeo"></path>
        </g>
    </g>
</svg>
