<?xml version="1.0" encoding="UTF-8"?>
<svg width="24px" height="24px" viewBox="0 0 24 24" version="1.1" xmlns="http://www.w3.org/2000/svg" xmlns:xlink="http://www.w3.org/1999/xlink">
    <!-- Generator: Sketch 47.1 (45422) - http://www.bohemiancoding.com/sketch -->
    <title>icon-tumblr</title>
    <desc>Created with Sketch.</desc>
    <defs></defs>
    <g id="Symbols" stroke="none" stroke-width="1" fill-rule="evenodd">
        <g id="Footer/Basic" transform="translate(-1376.000000, -41.000000)" fill-rule="nonzero">
            <path d="M1388,41 C1381.37259,41 1376,46.3725888 1376,53 C1376,59.6283858 1381.3721,65 1388,65 C1394.62839,65 1400,59.6283858 1400,53 C1400,46.3725888 1394.6279,41 1388,41 Z M1392.18404,59.6386193 C1391.53884,59.9412386 1390.95456,60.1556548 1390.4307,60.2779695 C1389.90636,60.4007716 1389.34108,60.4616853 1388.73291,60.4616853 C1388.04191,60.4616853 1387.63452,60.3749442 1387.10335,60.2019492 C1386.57316,60.0270051 1386.11996,59.7765279 1385.74619,59.4558782 C1385.37048,59.1323046 1385.11123,58.7877766 1384.96552,58.4252183 C1384.82079,58.0616853 1384.74867,57.5344162 1384.74867,56.8424365 L1384.74867,51.5439188 L1382.69612,51.5439188 L1382.69612,49.4041421 C1383.28966,49.2116548 1383.97775,48.9348629 1384.39976,48.5747411 C1384.82518,48.214132 1385.16386,47.7818883 1385.42018,47.2765482 C1385.67602,46.7731574 1385.8534,46.1313706 1385.9494,45.3511878 L1388.09844,45.3511878 L1388.09844,48.8471472 L1391.59147,48.8471472 L1391.59147,51.5439188 L1388.09844,51.5439188 L1388.09844,55.4185178 C1388.09844,56.2951878 1388.08723,56.8005279 1388.17933,57.0480812 C1388.27143,57.2956345 1388.5029,57.5524467 1388.75533,57.7010761 C1389.0906,57.9008731 1389.47119,58.0017462 1389.90246,58.0017462 C1390.66753,58.0017462 1391.42822,57.7522437 1392.18502,57.2556751 L1392.18502,59.6386193 L1392.18404,59.6386193 Z" id="icon-tumblr"></path>
        </g>
    </g>
</svg>
