<?xml version="1.0" encoding="UTF-8"?>
<svg width="24px" height="24px" viewBox="0 0 24 24" version="1.1" xmlns="http://www.w3.org/2000/svg" xmlns:xlink="http://www.w3.org/1999/xlink">
    <!-- Generator: Sketch 47.1 (45422) - http://www.bohemiancoding.com/sketch -->
    <title>icon-instagram</title>
    <desc>Created with Sketch.</desc>
    <defs></defs>
    <g id="Symbols" stroke="none" stroke-width="1" fill-rule="evenodd">
        <g id="Footer/Basic" transform="translate(-1304.000000, -41.000000)" fill-rule="nonzero">
            <g id="icon-instagram" transform="translate(1304.000000, 41.000000)">
                <circle id="Oval" cx="12.048" cy="12" r="2.112"></circle>
                <path d="M14.688,6.816 L9.408,6.816 C8.64,6.816 7.968,7.056 7.536,7.488 C7.104,7.92 6.864,8.592 6.864,9.36 L6.864,14.64 C6.864,15.408 7.104,16.08 7.584,16.56 C8.064,16.992 8.688,17.232 9.456,17.232 L14.688,17.232 C15.456,17.232 16.128,16.992 16.56,16.56 C17.04,16.128 17.28,15.456 17.28,14.688 L17.28,9.408 C17.28,8.64 17.04,8.016 16.608,7.536 C16.128,7.056 15.504,6.816 14.688,6.816 Z M12.048,15.264 C10.224,15.264 8.784,13.776 8.784,12 C8.784,10.176 10.272,8.736 12.048,8.736 C13.824,8.736 15.36,10.176 15.36,12 C15.36,13.824 13.872,15.264 12.048,15.264 Z M15.456,9.36 C15.024,9.36 14.688,9.024 14.688,8.592 C14.688,8.16 15.024,7.824 15.456,7.824 C15.888,7.824 16.224,8.16 16.224,8.592 C16.224,9.024 15.888,9.36 15.456,9.36 Z" id="Shape"></path>
                <path d="M12.144,0.096 C5.616,0.096 0.336,5.376 0.336,11.904 C0.336,18.432 5.616,23.712 12.144,23.712 C18.672,23.712 23.952,18.432 23.952,11.904 C24,5.376 18.672,0.096 12.144,0.096 Z M18.432,14.688 C18.432,15.792 18.048,16.752 17.376,17.424 C16.704,18.096 15.744,18.432 14.688,18.432 L9.456,18.432 C8.4,18.432 7.44,18.096 6.768,17.424 C6.048,16.752 5.712,15.792 5.712,14.688 L5.712,9.408 C5.712,7.2 7.2,5.664 9.456,5.664 L14.736,5.664 C15.84,5.664 16.752,6.048 17.424,6.72 C18.096,7.392 18.432,8.304 18.432,9.408 L18.432,14.688 Z" id="Shape"></path>
            </g>
        </g>
    </g>
</svg>
