<?xml version="1.0" encoding="UTF-8"?>
<svg width="35px" height="33px" viewBox="0 0 35 33" version="1.1" xmlns="http://www.w3.org/2000/svg" xmlns:xlink="http://www.w3.org/1999/xlink">
  <path d="M17.383534,0 C-1.27598986,0 0.0192482367,17.5261905 0.0192482367,27.1595238 L4.51210538,27.1595238 C10.2597244,33.9190476 20.378772,34.7285714 27.1382959,28.9809524 C27.7859149,28.4142857 28.3930578,27.8071429 28.9597244,27.1595238 L34.828772,27.1595238 C34.7882959,17.5261905 33.2906768,0 17.383534,0 Z M3.25734347,16.7166667 C3.25734347,9.30952381 9.28829586,3.27857143 16.6954387,3.27857143 C24.1025816,3.27857143 30.133534,9.30952381 30.133534,16.7166667 C30.133534,24.1238095 24.1430578,30.1547619 16.6954387,30.1547619 C9.28829586,30.1547619 3.25734347,24.1238095 3.25734347,16.7166667 Z"></path>
  <circle class="svg-logo__eye" cx="10.5" cy="21.5" r="2.5"></circle>
  <circle class="svg-logo__eye" cx="24.5" cy="19.5" r="2.5"></circle>
</svg>
