<?xml version="1.0" encoding="UTF-8"?>
<svg width="20px" height="20px" viewBox="0 0 20 20" version="1.1" xmlns="http://www.w3.org/2000/svg" xmlns:xlink="http://www.w3.org/1999/xlink">
    <!-- Generator: Sketch 47.1 (45422) - http://www.bohemiancoding.com/sketch -->
    <title>Instagram</title>
    <desc>Created with Sketch.</desc>
    <defs></defs>
    <g id="Page-1" stroke="none" stroke-width="1" fill="none" fill-rule="evenodd">
        <g id="About-Bottom-1" transform="translate(-544.000000, -424.000000)" fill="#FFFFFF">
            <g id="Group" transform="translate(396.000000, 404.000000)">
                <path d="M164.537969,24.6620312 C164.537969,25.3248437 164.000625,25.8620313 163.337969,25.8620313 C162.675313,25.8620313 162.137969,25.3248437 162.137969,24.6620312 C162.137969,23.9992187 162.675312,23.4620312 163.337969,23.4620312 C164.000781,23.4620312 164.537969,23.9992188 164.537969,24.6620312 Z M158,33.3332812 C156.159063,33.3332812 154.666719,31.8409375 154.666719,30 C154.666719,28.1590625 156.159063,26.6667188 158,26.6667188 C159.840937,26.6667188 161.333281,28.1590625 161.333281,30 C161.333281,31.8409375 159.840937,33.3332812 158,33.3332812 Z M158,24.8648437 C155.163906,24.8648437 152.864844,27.1639063 152.864844,30 C152.864844,32.8360937 155.163906,35.1351563 158,35.1351563 C160.836094,35.1351563 163.135156,32.8360938 163.135156,30 C163.135156,27.1639062 160.836094,24.8648437 158,24.8648437 Z M158,21.801875 C160.670156,21.801875 160.986406,21.8120313 162.040781,21.8601562 C163.015781,21.9046875 163.545312,22.0675 163.897656,22.2045312 C164.364375,22.3859375 164.6975,22.6026562 165.0475,22.9526563 C165.3975,23.3025 165.614219,23.635625 165.795625,24.1025 C165.9325,24.4548438 166.095469,24.984375 166.14,25.959375 C166.188125,27.0139063 166.198281,27.3301563 166.198281,30.0003125 C166.198281,32.6704688 166.188125,32.9867188 166.14,34.0410938 C166.095469,35.0160938 165.932656,35.545625 165.795625,35.8979688 C165.614219,36.3646875 165.3975,36.6978125 165.0475,37.0478125 C164.697656,37.3978125 164.364531,37.6145313 163.897656,37.7959375 C163.545312,37.9328125 163.015781,38.0957813 162.040781,38.1403125 C160.986406,38.1884375 160.670156,38.1985938 158,38.1985938 C155.329688,38.1985938 155.013438,38.1884375 153.959063,38.1403125 C152.984062,38.0957813 152.454531,37.9329688 152.102188,37.7959375 C151.635469,37.6145313 151.302344,37.3978125 150.952344,37.0478125 C150.6025,36.6979688 150.385625,36.3648438 150.204219,35.8979688 C150.067344,35.545625 149.904375,35.0160938 149.859844,34.0410938 C149.811719,32.9865625 149.801562,32.6703125 149.801562,30.0003125 C149.801562,27.3301563 149.811719,27.0139063 149.859844,25.959375 C149.904375,24.984375 150.067187,24.4548438 150.204219,24.1025 C150.385625,23.6357813 150.602344,23.3026562 150.952344,22.9526563 C151.302188,22.6026562 151.635312,22.3859375 152.102188,22.2045312 C152.454531,22.0676562 152.984062,21.9046875 153.959063,21.8601562 C155.013594,21.8120313 155.329844,21.801875 158,21.801875 Z M158,20 C155.284219,20 154.943594,20.0115625 153.877031,20.0601562 C152.812656,20.10875 152.085625,20.2778125 151.449688,20.525 C150.792031,20.7804688 150.234375,21.1225 149.678438,21.6784375 C149.1225,22.234375 148.780469,22.7920313 148.525,23.4496875 C148.277813,24.0857813 148.10875,24.8126562 148.060156,25.8770313 C148.011562,26.9435937 148,27.2842188 148,30 C148,32.7157812 148.011562,33.0564063 148.060156,34.1229687 C148.10875,35.1873437 148.277813,35.9142188 148.525,36.5503125 C148.780469,37.2079687 149.1225,37.765625 149.678438,38.3215625 C150.234375,38.8775 150.792031,39.219375 151.449688,39.475 C152.085781,39.7221875 152.812656,39.89125 153.877031,39.9398437 C154.943594,39.9884375 155.284219,40 158,40 C160.715781,40 161.056406,39.9884375 162.122969,39.9398437 C163.187344,39.89125 163.914219,39.7221875 164.550312,39.475 C165.207969,39.219375 165.765625,38.8775 166.321562,38.3215625 C166.8775,37.765625 167.219375,37.2079687 167.475,36.5503125 C167.722187,35.9142188 167.89125,35.1873437 167.939844,34.1229687 C167.988438,33.0564063 168,32.7157812 168,30 C168,27.2842188 167.988438,26.9435937 167.939844,25.8770313 C167.89125,24.8126562 167.722187,24.0857813 167.475,23.4496875 C167.219375,22.7920313 166.8775,22.234375 166.321562,21.6784375 C165.765625,21.1225 165.207969,20.780625 164.550312,20.525 C163.914219,20.2778125 163.187344,20.10875 162.122969,20.0601562 C161.056406,20.0115625 160.715781,20 158,20 Z" id="Instagram"></path>
            </g>
        </g>
    </g>
</svg>