<?xml version="1.0" encoding="UTF-8"?>
<svg width="22px" height="18px" viewBox="0 0 22 18" version="1.1" xmlns="http://www.w3.org/2000/svg" xmlns:xlink="http://www.w3.org/1999/xlink">
    <!-- Generator: Sketch 47.1 (45422) - http://www.bohemiancoding.com/sketch -->
    <title>Shape</title>
    <desc>Created with Sketch.</desc>
    <defs></defs>
    <g id="Page-1" stroke="none" stroke-width="1" fill="none" fill-rule="evenodd">
        <g id="About-Bottom-1" transform="translate(-875.000000, -424.000000)" fill-rule="nonzero" fill="#FFFFFF">
            <g id="Group-2" transform="translate(728.000000, 404.000000)">
                <path d="M169,22.1212121 C168.188811,22.4801865 167.321678,22.7226107 166.407925,22.8344988 C167.340326,22.2750583 168.058275,21.3892774 168.393939,20.3356643 C167.522145,20.8531469 166.55711,21.2307692 165.526807,21.4312354 C164.701632,20.5501166 163.526807,20 162.230769,20 C159.736597,20 157.717949,22.02331 157.717949,24.5174825 C157.717949,24.8717949 157.755245,25.2167832 157.834499,25.5477855 C154.081585,25.3613054 150.752914,23.5617716 148.529138,20.8251748 C148.142191,21.4918415 147.918415,22.2703963 147.918415,23.0955711 C147.918415,24.6620047 148.715618,26.04662 149.927739,26.8578089 C149.18648,26.8391608 148.487179,26.6340326 147.881119,26.2937063 C147.881119,26.3123543 147.881119,26.3310023 147.881119,26.3496503 C147.881119,28.5407925 149.438228,30.3636364 151.503497,30.7785548 C151.125874,30.8811189 150.724942,30.9370629 150.314685,30.9370629 C150.025641,30.9370629 149.741259,30.9090909 149.4662,30.8531469 C150.039627,32.6480186 151.708625,33.95338 153.685315,33.990676 C152.142191,35.2027972 150.193473,35.9254079 148.076923,35.9254079 C147.713287,35.9254079 147.354312,35.9020979 147,35.8601399 C148.995338,37.1561772 151.368298,37.9020979 153.913753,37.9020979 C162.221445,37.9020979 166.762238,31.016317 166.762238,25.044289 C166.762238,24.8484848 166.757576,24.6526807 166.748252,24.4615385 C167.629371,23.8228438 168.393939,23.025641 169,22.1212121 Z" id="Shape"></path>
            </g>
        </g>
    </g>
</svg>