<?xml version="1.0" encoding="utf-8"?>
<!-- Generator: Adobe Illustrator 18.0.0, SVG Export Plug-In . SVG Version: 6.00 Build 0)  -->
<!DOCTYPE svg PUBLIC "-//W3C//DTD SVG 1.1//EN" "http://www.w3.org/Graphics/SVG/1.1/DTD/svg11.dtd">
<svg version="1.1" id="Layer_1" xmlns="http://www.w3.org/2000/svg" xmlns:xlink="http://www.w3.org/1999/xlink" x="0px" y="0px"
	 viewBox="0 0 120 60" enable-background="new 0 0 120 60" xml:space="preserve">
<g>
	<path d="M54.9,0.1C32.5,0.1,34,21,34,32.5h5.4c3.5,4.1,8.8,6.7,14.6,6.7s11.1-2.6,14.6-6.7h7C75.7,21,73.9,0.1,54.9,0.1z M54,36.1
		c-8.9,0-16.1-7.2-16.1-16C38,11.2,45.2,4,54,4c8.9,0,16.1,7.2,16.1,16C70.1,28.9,62.9,36.1,54,36.1z"/>
	<ellipse cx="45.1" cy="25.4" rx="2.8" ry="2.8"/>
	<ellipse cx="63.2" cy="23.4" rx="2.8" ry="2.8"/>
</g>
<g class="svg-logo__text">
	<g>
		<g>
			<path d="M10.9,56.6h-7V42H0v17.8h10.9V56.6z"/>
			<path d="M16.5,45.8h-3.6v-3.3h3.6V45.8z M16.5,59.7h-3.6V47.3l3.6-0.2V59.7z"/>
			<path d="M25.3,57.5L22.7,60c-1.1-0.4-1.9-1.1-2.4-1.9c-0.5-0.8-0.8-1.9-0.8-3v-5.4h-1.2v-2.3h1.2v-4.1l3.5-0.2v4.4h1.9v2.3h-1.9
				V54c0,0.9,0.2,1.6,0.6,2.2C24.1,56.8,24.6,57.2,25.3,57.5z"/>
			<path d="M31.1,56.2c-0.4-0.6-0.6-1.3-0.6-2.2v-4.4h1.9v-2.3h-1.9v-4.4l-3.5,0.2v4.1h-1.2v2.3h1.2V55c0,1.2,0.3,2.2,0.8,3
				c0.5,0.8,1.3,1.5,2.4,1.9l2.6-2.4C32,57.2,31.5,56.8,31.1,56.2z"/>
			<path d="M39.5,57.6L37,60c-0.9-0.5-1.6-1.2-2.1-1.9c-0.5-0.7-0.8-1.6-0.8-2.6V42h3.5v12.3c0,0.9,0.1,1.5,0.4,2
				C38.4,56.7,38.9,57.2,39.5,57.6z"/>
			<path d="M53.3,54h-9.2c0.2,1,0.6,1.7,1.2,2.2c0.6,0.5,1.3,0.7,2.2,0.7c0.7,0,1.5-0.1,2.3-0.3c0.8-0.2,1.5-0.5,2-0.8v3.1
				c-0.5,0.3-1.1,0.6-2.1,0.8C48.8,59.9,48,60,47.5,60c-2.2,0-3.9-0.6-5.1-1.8c-1.2-1.2-1.8-2.8-1.8-4.8c0-2,0.6-3.7,1.9-4.9
				c1.3-1.2,2.8-1.9,4.7-1.9c1.9,0,3.4,0.7,4.5,2C52.7,49.9,53.3,51.7,53.3,54z M50,52.3c-0.2-0.9-0.5-1.6-1.1-2.1
				c-0.5-0.5-1.2-0.7-2-0.7c-0.9,0-1.6,0.3-2.1,0.8c-0.5,0.5-0.8,1.2-0.9,2.1L50,52.3L50,52.3z"/>
			<path d="M72.9,58.3c-0.7,0.5-1.5,0.9-2.6,1.2c-1.1,0.3-2,0.4-2.8,0.4c-2.9,0-5.1-0.9-6.5-2.6c-1.4-1.7-2.1-3.8-2.1-6.3
				c0-2.4,0.8-4.5,2.3-6.4c1.5-1.9,3.7-2.8,6.4-2.8c0.7,0,1.6,0.1,2.6,0.4c1,0.3,1.7,0.6,2.2,1l-0.6,3.6h-2.4v-1.5c0,0,0,0-0.1,0
				C69,45.1,68.4,45,67.7,45c-1.4,0-2.5,0.6-3.4,1.7c-0.8,1.2-1.2,2.5-1.2,4c0,1.8,0.4,3.2,1.1,4.3c0.8,1.1,1.9,1.6,3.5,1.6
				c0.5,0,0.9,0,1.2-0.1c0.3-0.1,0.6-0.1,0.8-0.2v-4.6h-2.9v-2h6.2L72.9,58.3L72.9,58.3z"/>
			<path d="M84.1,51c-0.2-0.2-0.5-0.3-0.9-0.5c-0.4-0.1-0.9-0.2-1.4-0.2c-0.6,0-1.2,0.1-1.6,0.3c-0.4,0.2-0.8,0.4-1.1,0.7v8.4h-3.5
				V47.3l3.5-0.2v1.2l1.1-0.7c0.4-0.2,0.8-0.4,1.2-0.5c0.5-0.1,0.9-0.2,1.3-0.2c0.4,0,0.7,0,1,0.1c0.2,0.1,0.4,0.1,0.6,0.2V51z"/>
			<path d="M98,54h-9.2c0.2,1,0.6,1.7,1.2,2.2c0.6,0.5,1.3,0.7,2.2,0.7c0.7,0,1.5-0.1,2.3-0.3c0.8-0.2,1.5-0.5,2-0.8v3.1
				c-0.5,0.3-1.1,0.6-2.1,0.8c-0.9,0.2-1.6,0.3-2.2,0.3c-2.2,0-3.9-0.6-5.1-1.8c-1.2-1.2-1.8-2.8-1.8-4.8c0-2,0.6-3.7,1.9-4.9
				c1.3-1.2,2.8-1.9,4.7-1.9c1.9,0,3.4,0.7,4.5,2C97.4,49.9,98,51.7,98,54z M94.7,52.3c-0.2-0.9-0.5-1.6-1.1-2.1
				c-0.5-0.5-1.2-0.7-2-0.7c-0.9,0-1.6,0.3-2.1,0.8c-0.5,0.5-0.8,1.2-0.9,2.1L94.7,52.3L94.7,52.3z"/>
			<path d="M104.2,56.2c-0.4-0.6-0.6-1.3-0.6-2.2v-4.4h1.9v-2.3h-1.9v-4.4l-3.5,0.2v4.1h-1.2v2.3h1.2V55c0,1.2,0.3,2.2,0.8,3
				c0.5,0.8,1.3,1.5,2.4,1.9l2.6-2.4C105.1,57.2,104.6,56.8,104.2,56.2z"/>
			<path d="M120,57.8l-2.8,2.3c-0.4-0.1-0.8-0.4-1.1-0.7c-0.3-0.3-0.5-0.7-0.6-1l-2.2,1.2c-0.1,0-0.2,0.1-0.4,0.1
				c-0.2,0-0.4,0.1-0.5,0.1c-1.7,0-3.1-0.6-4.2-1.7c-1.1-1.2-1.6-2.7-1.6-4.8c0-1.9,0.6-3.5,1.7-4.8c1.1-1.3,2.6-1.9,4.3-1.9
				c0.7,0,1.4,0.1,2,0.4c0.6,0.3,1,0.5,1.2,0.7l2-0.7l0.7,0.2v7.9c0,0.7,0.1,1.2,0.4,1.7C119.1,57.3,119.5,57.6,120,57.8z
				 M115.1,56.1v-5.5c-0.2-0.3-0.5-0.5-0.9-0.7c-0.4-0.2-0.8-0.3-1.4-0.3c-0.8,0-1.4,0.3-1.9,0.9c-0.5,0.6-0.8,1.5-0.8,2.8
				c0,1,0.2,1.9,0.7,2.5c0.5,0.6,1.1,0.9,2,0.9c0.5,0,1-0.1,1.4-0.2C114.7,56.3,115,56.2,115.1,56.1z"/>
		</g>
	</g>
</g>
</svg>
