<svg class="svg-award--beer-2" xmlns="http://www.w3.org/2000/svg" viewBox="0 0 66 93">
  <g fill-rule="evenodd">
    <path d="M0,92.758875 L65.4864375,92.758875 L65.4864375,0.515625 L0,0.515625 L0,92.758875 Z M2.14551563,90.5953125 L63.3569063,90.5953125 L63.3569063,2.62504688 L2.14551563,2.62504688 L2.14551563,90.5953125 Z"/>
    <polygon points="5.157 54.579 60.132 54.579 60.132 52.421 5.157 52.421"/>
    <polygon points="5.157 8.279 60.132 8.279 60.132 6.121 5.157 6.121"/>
    <polygon points="9.868 17.217 9.897 17.217 12.149 10.275 14.372 10.275 16.482 17.217 16.511 17.217 18.536 10.275 21.443 10.275 18.008 21.023 15.157 21.023 13.275 14.795 13.247 14.795 11.137 21.023 8.3 21.023 5.094 10.275 8.001 10.275"/>
    <path d="M36.7232766,15.0935297 L36.9929484,15.0935297 C37.9061203,15.0935297 38.9322141,14.9223422 38.9322141,13.7529047 C38.9322141,12.5844984 37.9061203,12.4133109 36.9929484,12.4133109 L36.7232766,12.4133109 L36.7232766,15.0935297 Z M42.8664328,21.0232172 L39.3885422,21.0232172 L36.7516359,16.8889359 L36.7232766,16.8889359 L36.7232766,21.0232172 L33.9291047,21.0232172 L33.9291047,10.2750141 L38.1061828,10.2750141 C40.2300422,10.2750141 41.8403391,11.2871859 41.8403391,13.5822328 C41.8403391,15.0646547 41.0137922,16.3470141 39.4880578,16.6187484 L42.8664328,21.0232172 Z"/>
    <polygon points="46.702 18.657 50.051 18.657 50.051 21.023 43.908 21.023 43.908 10.275 46.702 10.275"/>
    <path d="M53.7575156 18.6573234L54.384 18.6573234C56.0520469 18.6573234 57.4772344 17.7441516 57.4772344 15.6496828 57.4772344 13.7248547 56.2087969 12.6415266 54.412875 12.6415266L53.7575156 12.6415266 53.7575156 18.6573234zM50.9633438 10.2753234L54.9264375 10.2753234C57.919125 10.2753234 60.3848438 12.6281203 60.3848438 15.6496828 60.3848438 18.6707297 57.9046875 21.0230109 54.9264375 21.0230109L50.9633438 21.0230109 50.9633438 10.2753234zM11.3705625 36.2364234L11.9532187 36.2364234C13.3062187 36.2364234 15.5914687 36.3070641 15.5914687 34.3703766 15.5914687 32.2485797 13.3294219 32.4584391 11.8361719 32.4584391L11.3705625 32.4584391 11.3705625 36.2364234zM11.3705625 29.0542828L11.8836094 29.0542828C13.0963594 29.0542828 14.3555156 28.8439078 14.3555156 27.3511734 14.3555156 25.7419078 12.9323906 25.6490953 11.6969531 25.6490953L11.3705625 25.6490953 11.3705625 29.0542828zM6.8000625 39.7349391L6.8000625 22.1505797 13.3294219 22.1505797C16.454625 22.1505797 18.5532187 23.3633297 18.5532187 26.7226266 18.5532187 28.3076578 18.0401719 29.5900172 16.6175625 30.3134391L16.6175625 30.3598453C19.1363906 30.6857203 20.2094062 32.3888297 20.2094062 34.8370172 20.2094062 38.5221891 17.0604844 39.7349391 13.8429844 39.7349391L6.8000625 39.7349391z"/>
    <polygon points="26.225 26.021 26.225 28.96 31.379 28.96 31.379 32.831 26.225 32.831 26.225 35.863 31.659 35.863 31.659 39.735 21.654 39.735 21.654 22.151 31.659 22.151 31.659 26.021"/>
    <polygon points="38.118 26.021 38.118 28.96 43.273 28.96 43.273 32.831 38.118 32.831 38.118 35.863 43.552 35.863 43.552 39.735 33.548 39.735 33.548 22.151 43.552 22.151 43.552 26.021"/>
    <path d="M50.0117063 30.0335578L50.4546281 30.0335578C51.9473625 30.0335578 53.6262375 29.7535734 53.6262375 27.8406047 53.6262375 25.9291828 51.9473625 25.6491984 50.4546281 25.6491984L50.0117063 25.6491984 50.0117063 30.0335578zM60.0627844 39.7345266L54.3733781 39.7345266 50.0586281 32.9715891 50.0117063 32.9715891 50.0117063 39.7345266 45.4406906 39.7345266 45.4406906 22.1501672 52.2737531 22.1501672C55.74855 22.1501672 58.3839094 23.8063547 58.3839094 27.5616516 58.3839094 29.9866359 57.0309094 32.0852297 54.5358 32.5276359L60.0627844 39.7345266zM10.1867391 43.8575156L10.1619891 43.8575156 9.15652031 46.8378281 11.1798328 46.8378281 10.1867391 43.8575156zM8.48569219 48.69975L7.83961406 50.3260313 5.25736406 50.3260313 8.85797344 40.9643438 11.5144734 40.9643438 15.0408328 50.3260313 12.4467234 50.3260313 11.8372547 48.69975 8.48569219 48.69975z"/>
    <polygon points="17.735 47.011 17.761 47.011 19.722 40.964 21.658 40.964 23.496 47.011 23.522 47.011 25.285 40.964 27.817 40.964 24.825 50.326 22.342 50.326 20.703 44.9 20.678 44.9 18.841 50.326 16.37 50.326 13.577 40.964 16.11 40.964"/>
    <path d="M31.0202063 43.8575156L30.9954563 43.8575156 29.9894719 46.8378281 32.0138156 46.8378281 31.0202063 43.8575156zM29.3186438 48.69975L28.6730813 50.3260313 26.0908313 50.3260313 29.6919563 40.9643438 32.3484563 40.9643438 35.8748156 50.3260313 33.279675 50.3260313 32.6712375 48.69975 29.3186438 48.69975zM39.0657609 45.1609125L39.3014016 45.1609125C40.0954641 45.1609125 40.9895578 45.0118969 40.9895578 43.9940531 40.9895578 42.9762094 40.0954641 42.8277094 39.3014016 42.8277094L39.0657609 42.8277094 39.0657609 45.1609125zM44.4164016 50.3264438L41.3871047 50.3264438 39.0899953 46.7258344 39.0657609 46.7258344 39.0657609 50.3264438 36.6309797 50.3264438 36.6309797 40.9642406 40.2697453 40.9642406C42.1192922 40.9642406 43.5233391 41.8459594 43.5233391 43.8450375 43.5233391 45.1356469 42.8024953 46.2540375 41.4747609 46.4891625L44.4164016 50.3264438zM47.5086047 48.2647172L48.0546516 48.2647172C49.5066516 48.2647172 50.7482766 47.4701391 50.7482766 45.6453422 50.7482766 43.9690453 49.6438078 43.0259672 48.0788859 43.0259672L47.5086047 43.0259672 47.5086047 48.2647172zM45.0738234 40.9639828L48.5264484 40.9639828C51.1334484 40.9639828 53.2815422 43.0130766 53.2815422 45.6453422 53.2815422 48.2776078 51.1210734 50.3261859 48.5264484 50.3261859L45.0738234 50.3261859 45.0738234 40.9639828zM59.0547891 43.3736016C58.6082578 43.0008047 58.0364297 42.7522734 57.4403672 42.7522734 56.9938359 42.7522734 56.3988047 43.0131797 56.3988047 43.5344766 56.3988047 44.0805234 57.0557109 44.2919297 57.4780078 44.4285703L58.0988203 44.6147109C59.4023203 44.9993672 60.4077891 45.6583359 60.4077891 47.1727266 60.4077891 48.1034297 60.1845234 49.0588828 59.4399609 49.6925859 58.7077734 50.3139141 57.7265391 50.5748203 56.7829453 50.5748203 55.6031953 50.5748203 54.4487109 50.1772734 53.4927422 49.5064453L54.5358516 47.5455234C55.1437734 48.0786797 55.8641016 48.5133516 56.6963203 48.5133516 57.2671172 48.5133516 57.8750391 48.2282109 57.8750391 47.5702734 57.8750391 46.8875859 56.9190703 46.6514297 56.3988047 46.5013828 54.8710078 46.0677422 53.8650234 45.6701953 53.8650234 43.8572578 53.8650234 41.9576953 55.2185391 40.7160703 57.0928359 40.7160703 58.0364297 40.7160703 59.1919453 41.0135859 60.0231328 41.4858984L59.0547891 43.3736016zM28.0311797 18.1170516L26.6828203 18.1170516 28.8401953 14.4293016 26.8643203 14.4293016 26.8643203 13.3882547 30.7469766 13.3882547 28.0311797 18.1170516zM25.7216953 18.1170516L24.4919297 18.1170516 24.4919297 14.4272391 23.8138828 14.4272391 23.8138828 13.3861922 25.7216953 13.3861922 25.7216953 18.1170516zM27.1205859 10.0665984C24.0304453 10.0665984 21.1821328 12.3456609 21.1821328 15.5925516 21.1821328 19.0663172 23.6741484 21.5155359 27.1205859 21.5155359 30.5659922 21.5155359 33.0580078 19.0663172 33.0580078 15.5925516 33.0580078 12.3456609 30.2102109 10.0665984 27.1205859 10.0665984L27.1205859 10.0665984zM7.42881563 67.1769656C8.87050313 67.1769656 10.07655 66.974325 11.1573 65.9564813 12.1287375 65.0464031 12.629925 63.8099344 12.629925 62.4925125 12.629925 61.1462156 12.1132688 59.8447781 11.0938781 58.9522313 10.0141594 57.9967781 8.82306563 57.808575 7.42881563 57.808575L6.47284688 57.808575 6.47284688 67.1769656 7.42881563 67.1769656zM5.1574875 56.5870594L7.38240938 56.5870594C9.15203438 56.5870594 10.5942375 56.8216688 11.9879719 58.0117313 13.3353 59.1713719 13.9468313 60.753825 13.9468313 62.5090125 13.9468313 64.2312 13.3198313 65.7517781 12.0189094 66.9109031 10.6091906 68.1638719 9.19947188 68.3995125 7.35095625 68.3995125L5.1574875 68.3995125 5.1574875 56.5870594z"/>
    <polygon points="15.782 56.587 21.907 56.587 21.907 57.809 17.097 57.809 17.097 61.318 21.766 61.318 21.766 62.54 17.097 62.54 17.097 67.177 21.907 67.177 21.907 68.399 15.782 68.399"/>
    <path d="M29.5075688,58.8902016 C29.0373188,58.0739672 28.4737406,57.6052641 27.4713656,57.6052641 C26.4215531,57.6052641 25.5130219,58.3575609 25.5130219,59.4383109 C25.5130219,60.4561547 26.5618031,60.9264047 27.3615375,61.2868266 L28.1442563,61.6317797 C29.6797875,62.3041547 30.9796781,63.0729516 30.9796781,64.9524047 C30.9796781,67.0216078 29.3198813,68.6019984 27.2671781,68.6019984 C25.371225,68.6019984 23.9615063,67.3809984 23.5856156,65.5484672 L24.8705531,65.1875297 C25.0432875,66.3940922 25.9672875,67.3809984 27.235725,67.3809984 C28.5046781,67.3809984 29.6643188,66.4105922 29.6643188,65.0792484 C29.6643188,63.6999516 28.5830531,63.2297016 27.4863188,62.7279984 L26.7659906,62.4144984 C25.3866938,61.7885297 24.1961156,61.0826391 24.1961156,59.3908734 C24.1961156,57.5583422 25.7471156,56.3837484 27.5023031,56.3837484 C28.8176625,56.3837484 29.9298656,57.0561234 30.5568656,58.2152484 L29.5075688,58.8902016 Z"/>
    <polygon points="32.94 68.399 34.257 68.399 34.257 56.587 32.94 56.587"/>
    <path d="M47.6360156,62.4622969 C47.6679844,64.0591875 47.4957656,65.3750625 46.4139844,66.6285469 C45.3332344,67.8825469 43.6889063,68.6023594 42.0435469,68.6023594 C38.7224063,68.6023594 35.9648438,65.8458281 35.9648438,62.5241719 C35.9648438,59.1396094 38.7224063,56.3835938 42.1219219,56.3835938 C44.1895781,56.3835938 45.8669063,57.3075938 47.1188438,58.9364531 L46.1639063,59.8295156 C45.1764844,58.4362969 43.844625,57.6051094 42.1054219,57.6051094 C39.4112813,57.6051094 37.2807188,59.8764375 37.2807188,62.5401563 C37.2807188,63.793125 37.7824219,64.9842188 38.6595,65.8772813 C39.521625,66.738375 40.7735625,67.3808438 42.0120938,67.3808438 C44.0647969,67.3808438 46.2273281,65.8772813 46.2273281,63.6827813 L42.7169531,63.6827813 L42.7169531,62.4622969 L47.6360156,62.4622969 Z"/>
    <polygon points="49.582 56.085 58.794 65.736 58.794 56.587 60.11 56.587 60.11 68.932 50.899 59.297 50.899 68.399 49.582 68.399"/>
    <path d="M20.5878234 78.6677203C20.6290734 80.7843609 20.4011672 82.5271734 18.9687609 84.1874859 17.5373859 85.8472828 15.3583547 86.8017047 13.1798391 86.8017047 8.78052656 86.8017047 5.12835469 83.1500484 5.12835469 78.7507359 5.12835469 74.2684078 8.78052656 70.6162359 13.2834797 70.6162359 16.0224797 70.6162359 18.2427609 71.8403297 19.9030734 73.9987359L18.6372141 75.1815797C17.3301047 73.3346109 15.5661516 72.2347828 13.2623391 72.2347828 9.69369844 72.2347828 6.87116719 75.2434547 6.87116719 78.7713609 6.87116719 80.4311578 7.53580781 82.0084547 8.69699531 83.1912984 9.83858906 84.3323766 11.4989016 85.1831578 13.1380734 85.1831578 15.8564484 85.1831578 18.7202297 83.1912984 18.7202297 80.2862672L14.0718703 80.2862672 14.0718703 78.6677203 20.5878234 78.6677203zM24.0139453 78.7087641C24.0139453 82.2366703 26.8777266 85.1834672 30.4262578 85.1834672 33.9742734 85.1834672 36.8380547 82.2366703 36.8380547 78.7087641 36.8380547 75.1607484 34.0160391 72.2345766 30.4262578 72.2345766 26.8364766 72.2345766 24.0139453 75.1607484 24.0139453 78.7087641M38.5808672 78.7299047C38.5808672 83.2328578 34.8874453 86.8020141 30.4262578 86.8020141 25.9645547 86.8020141 22.2706172 83.2328578 22.2706172 78.7299047 22.2706172 74.2480922 25.9645547 70.6160297 30.4262578 70.6160297 34.8874453 70.6160297 38.5808672 74.2480922 38.5808672 78.7299047"/>
    <polygon points="42.693 84.914 47.009 84.914 47.009 86.532 40.949 86.532 40.949 70.886 42.693 70.886"/>
    <path d="M51.7408547,84.9136406 C53.6496984,84.9136406 55.2476203,84.6439688 56.6795109,83.2950938 C57.9665109,82.091625 58.6301203,80.4524531 58.6301203,78.7086094 C58.6301203,76.9240313 57.9453703,75.2018438 56.5964953,74.0195156 C55.1651203,72.7536563 53.5878234,72.5046094 51.7408547,72.5046094 L50.4755109,72.5046094 L50.4755109,84.9136406 L51.7408547,84.9136406 Z M48.7321828,70.8855469 L51.6784641,70.8855469 C54.0235266,70.8855469 55.9328859,71.1969844 57.7798547,72.7742813 C59.5639172,74.3103281 60.3729328,76.4058281 60.3729328,78.72975 C60.3729328,81.0124219 59.5432922,83.0254219 57.8205891,84.5609531 C55.9535109,86.22075 54.0859172,86.5321875 51.6372141,86.5321875 L48.7321828,86.5321875 L48.7321828,70.8855469 Z"/>
  </g>
</svg>
