<svg class="svg-award--germandesign" xmlns="http://www.w3.org/2000/svg" viewBox="0 0 130 79">
  <g fill-rule="evenodd">
    <path d="M72.1016065,6.66547742 L70.2002516,6.66547742 L70.2002516,4.76412258 L74.4860581,4.76412258 L74.4860581,10.1897355 C73.1550258,10.8330258 71.6633806,11.1550903 69.6882194,11.1550903 C67.9772516,11.1550903 66.3388323,10.5851871 66.3388323,8.09883226 L66.3388323,4.01809032 C66.3388323,1.54557419 67.3192839,0.419187097 70.0538968,0.419187097 C71.2243161,0.419187097 72.7012839,0.56596129 74.2080258,0.829316129 L73.7840581,2.67196129 C72.1603161,2.42370323 71.150929,2.33605806 70.3172516,2.33605806 C68.8843161,2.33605806 68.7232839,2.89170323 68.7232839,4.13509032 L68.7232839,8.06905806 C68.7232839,9.09312258 69.1183161,9.26883226 70.1859935,9.26883226 C70.6976065,9.26883226 71.5463806,9.13715484 72.1016065,8.97612258 L72.1016065,6.66547742 Z"/>
    <polygon points="76.798 11.024 76.798 .551 84.023 .551 83.716 2.511 79.182 2.511 79.182 4.603 83.657 4.603 83.35 6.563 79.182 6.563 79.182 9.064 83.964 9.064 83.964 11.024"/>
    <path d="M91.6147323,3.40319032 C91.6147323,2.7599 91.3081839,2.46760968 90.342829,2.46760968 L88.5433774,2.46760968 L88.5433774,5.02735161 L90.5617323,5.02735161 C91.3081839,5.02735161 91.6147323,4.71996452 91.6147323,4.07583548 L91.6147323,3.40319032 Z M91.8634097,11.0241258 L89.9331194,6.82554516 L88.5433774,6.82554516 L88.5433774,11.0241258 L86.1589258,11.0241258 L86.1589258,0.551158065 L90.1960548,0.551158065 C92.3460871,0.551158065 93.9996032,0.887480645 93.9996032,3.60783548 L93.9996032,4.0469 C93.9996032,5.36325484 93.4427,6.18225484 92.2731194,6.60664194 L94.5552484,11.0241258 L91.8634097,11.0241258 Z"/>
    <polygon points="105.16 11.024 105.16 4.12 102.629 9.415 101.094 9.415 98.563 4.12 98.563 11.024 96.252 11.024 96.252 .551 99.149 .551 101.854 6.387 104.574 .551 107.471 .551 107.471 11.024"/>
    <path d="M114.053906,2.86180323 L112.737132,7.22141613 L115.384939,7.22141613 L114.053906,2.86180323 Z M116.438358,11.0241258 L115.824003,9.12193226 L112.298487,9.12193226 L111.684132,11.0241258 L109.037165,11.0241258 L112.722874,0.551158065 L115.399616,0.551158065 L119.070648,11.0241258 L116.438358,11.0241258 Z"/>
    <polygon points="126.765 11.024 122.947 4.442 122.947 11.024 120.636 11.024 120.636 .551 122.933 .551 126.838 7.046 126.838 .551 129.163 .551 129.163 11.024"/>
    <path d="M73.397371,17.9290968 C73.397371,16.5515161 73.3273387,15.800871 71.5480161,15.800871 L69.4378226,15.800871 L69.4378226,23.738 L71.4092097,23.738 C73.0832742,23.738 73.397371,23.2666452 73.397371,22.079871 L73.397371,17.9290968 Z M66.5941774,26.0046129 L66.5941774,13.5158065 L71.2515323,13.5158065 C74.6529194,13.5158065 76.2405968,14.4404839 76.2405968,17.7890323 L76.2405968,21.7313871 C76.2405968,24.5226129 75.3683387,26.0046129 71.5832419,26.0046129 L66.5941774,26.0046129 Z"/>
    <polygon points="78.682 26.005 78.682 13.516 87.299 13.516 86.933 15.854 81.525 15.854 81.525 18.348 86.863 18.348 86.497 20.684 81.525 20.684 81.525 23.667 87.229 23.667 87.229 26.005"/>
    <path d="M98.9149452,22.4990161 C98.9149452,24.7492742 97.3448806,26.1616613 94.0835581,26.1616613 C92.2170097,26.1616613 90.4204935,25.8307903 89.3393968,25.5343065 L90.1068161,23.2664355 C90.8918484,23.4748548 92.4791065,23.8241774 94.0659452,23.8241774 C95.479171,23.8241774 96.0197194,23.2664355 96.0197194,22.3597903 L96.0197194,22.0637258 C96.0197194,21.0514032 95.5487839,20.7553387 94.3628484,20.7553387 L92.8275903,20.7553387 C90.4905258,20.7553387 89.3565903,19.4293387 89.3565903,17.3359194 L89.3565903,17.0042097 C89.4090097,14.6147258 90.8213968,13.3591774 93.2637194,13.3591774 L93.6822355,13.3591774 C95.2694935,13.3591774 97.7466226,13.6380484 98.8801387,13.8120806 L98.0435258,16.0275323 C96.7523323,15.8711129 94.9038161,15.7134355 93.9439129,15.6958226 L93.4729774,15.6958226 C92.5483,15.6958226 92.2346226,16.2019839 92.2346226,16.9345968 L92.2346226,17.2830806 C92.2346226,17.9116935 92.4963,18.3482419 93.3681387,18.3482419 L95.1650742,18.3482419 C97.4677516,18.3482419 98.9149452,19.2896935 98.9149452,21.8704032 L98.9149452,22.4990161 Z"/>
    <polygon points="101.34 26.005 104.182 26.005 104.182 13.516 101.34 13.516"/>
    <path d="M113.618994,20.8068355 L111.351542,20.8068355 L111.351542,18.5398032 L116.4618,18.5398032 L116.4618,25.010029 C114.874542,25.7778677 113.095639,26.1619968 110.740961,26.1619968 C108.700381,26.1619968 106.746606,25.4813839 106.746606,22.5161258 L106.746606,17.6503516 C106.746606,14.7014484 107.914929,13.3590935 111.17709,13.3590935 C112.572284,13.3590935 114.333994,13.5331258 116.13051,13.8476419 L115.624768,16.0454806 C113.689026,15.7485774 112.485058,15.6441581 111.491187,15.6441581 C109.781477,15.6441581 109.589832,16.3067387 109.589832,17.7891581 L109.589832,22.4813194 C109.589832,23.7020613 110.060768,23.9113194 111.334348,23.9113194 C111.94451,23.9113194 112.955994,23.7553194 113.618994,23.5632548 L113.618994,20.8068355 Z"/>
    <polygon points="126.303 26.005 121.751 18.156 121.751 26.005 118.994 26.005 118.994 13.516 121.733 13.516 126.39 21.261 126.39 13.516 129.163 13.516 129.163 26.005"/>
    <path d="M71.2768194,31.3378 L69.7302387,36.4618968 L72.8410129,36.4618968 L71.2768194,31.3378 Z M74.0789484,40.9301226 L73.3568194,38.6953806 L69.2144323,38.6953806 L68.4923032,40.9301226 L65.3811097,40.9301226 L69.7130452,28.6233161 L72.8582065,28.6233161 L77.1729484,40.9301226 L74.0789484,40.9301226 Z"/>
    <polygon points="88.036 40.93 85.802 32.439 83.584 40.93 79.871 40.93 77.156 28.623 80.215 28.623 81.831 37.938 84.22 29.001 87.4 29.001 89.789 37.938 91.405 28.623 94.447 28.623 91.732 40.93"/>
    <path d="M100.326577 31.3378L98.7799968 36.4618968 101.890352 36.4618968 100.326577 31.3378zM103.127868 40.9301226L102.406158 38.6953806 98.263771 38.6953806 97.5416419 40.9301226 94.4304484 40.9301226 98.7623839 28.6233161 101.907545 28.6233161 106.221868 40.9301226 103.127868 40.9301226zM114.386832 31.9746323C114.386832 31.2185355 114.025768 30.8746645 112.891413 30.8746645L110.777445 30.8746645 110.777445 33.8831161 113.149316 33.8831161C114.025768 33.8831161 114.386832 33.5216323 114.386832 32.7651161L114.386832 31.9746323zM114.678703 40.9299548L112.410413 35.9970839 110.777445 35.9970839 110.777445 40.9299548 107.976155 40.9299548 107.976155 28.6235677 112.719477 28.6235677C115.24651 28.6235677 117.188961 29.0181806 117.188961 32.2157613L117.188961 32.7315677C117.188961 34.277729 116.536026 35.2401484 115.160542 35.7387613L117.841897 40.9299548 114.678703 40.9299548zM126.616939 32.9722355C126.616939 31.6135258 126.548165 30.8746226 124.794423 30.8746226L122.714842 30.8746226 122.714842 38.695171 124.657294 38.695171C126.307874 38.695171 126.616939 38.2317839 126.616939 37.0630419L126.616939 32.9722355zM119.91439 40.9303323L119.91439 28.6235258 124.502552 28.6235258C127.854455 28.6235258 129.419068 29.5339452 129.419068 32.8342677L129.419068 36.7187516C129.419068 39.4688806 128.55939 40.9303323 124.829229 40.9303323L119.91439 40.9303323z"/>
    <polygon points="75.466 54.853 73.447 47.182 71.444 54.853 68.09 54.853 65.637 43.734 68.401 43.734 69.86 52.151 72.019 44.077 74.891 44.077 77.049 52.151 78.509 43.734 81.258 43.734 78.804 54.853"/>
    <polygon points="83.075 54.853 85.605 54.853 85.605 43.735 83.075 43.735"/>
    <polygon points="94.528 54.853 90.475 47.865 90.475 54.853 88.021 54.853 88.021 43.734 90.46 43.734 94.606 50.629 94.606 43.734 97.074 43.734 97.074 54.853"/>
    <polygon points="106.027 54.853 101.974 47.865 101.974 54.853 99.521 54.853 99.521 43.734 101.959 43.734 106.105 50.629 106.105 43.734 108.574 43.734 108.574 54.853"/>
    <polygon points="111.021 54.853 111.021 43.734 118.691 43.734 118.366 45.815 113.552 45.815 113.552 48.036 118.303 48.036 117.977 50.117 113.552 50.117 113.552 52.772 118.63 52.772 118.63 54.853"/>
    <path d="M126.616939 46.7626355C126.616939 46.0795065 126.290681 45.7687645 125.265777 45.7687645L123.356455 45.7687645 123.356455 48.4857645 125.498939 48.4857645C126.290681 48.4857645 126.616939 48.1603452 126.616939 47.4772161L126.616939 46.7626355zM126.881132 54.852829L124.831326 50.3959258 123.356455 50.3959258 123.356455 54.852829 120.82481 54.852829 120.82481 43.7344742 125.110616 43.7344742C127.393584 43.7344742 129.147745 44.0926032 129.147745 46.9798613L129.147745 47.4461839C129.147745 48.8434742 128.558132 49.7132161 127.315165 50.1640226L129.738197 54.852829 126.881132 54.852829zM8.51898387 53.7229194C10.6010806 63.6209516 19.5165645 70.8049194 29.718629 70.8049194 41.6660484 70.8049194 51.3858548 61.1652097 51.3858548 49.3159194 51.3858548 37.466629 41.6660484 27.8265 29.718629 27.8265 19.5165645 27.8265 10.6010806 35.0108871 8.51898387 44.9089194L8.49424194 45.0284355 16.9056613 45.0284355 16.9283065 44.9613387C18.797371 39.519371 23.9285968 35.8529516 29.7182097 35.8114355L29.7177903 44.0429516C26.831371 44.0957903 24.4993387 46.4408226 24.4993387 49.3159194 24.4993387 52.1914355 26.831371 54.5360484 29.7177903 54.5888871L29.7177903 62.8204032C23.9285968 62.7793065 18.7969516 59.1128871 16.9283065 53.6705L16.9052419 53.6038226 8.49424194 53.6038226 8.51898387 53.7229194zM29.718629 78.7894355C13.3319194 78.7894355.000209677419 65.5680161.000209677419 49.3159194.000209677419 42.2183387 2.58175806 35.3635645 7.26930645 30.0130161 11.9090484 24.7174032 18.2983387 21.2287903 25.2604677 20.188371L25.3447581 20.1762097 25.3447581 13.1759194 25.2776613 13.1528548C19.8205968 11.2863065 16.1445323 6.20414516 16.1021774.486241935L24.4020484.486241935C24.4553065 3.34875806 26.819629 5.6615 29.718629 5.6615 32.6172097 5.6615 34.9815323 3.34875806 35.0347903.486241935L43.3342419.486241935C43.2927258 6.20456452 39.6158226 11.2867258 34.1583387 13.1528548L34.0912419 13.1759194 34.0912419 20.1762097 34.176371 20.188371C41.1380806 21.2287903 47.527371 24.7169839 52.1671129 30.0130161 56.8546613 35.3631452 59.4362097 42.2183387 59.4362097 49.3159194 59.4362097 65.5680161 46.1045 78.7894355 29.718629 78.7894355L29.718629 78.7894355zM66.2687161 77.8227387L66.2687161 73.812029C66.2687161 69.8013194 66.9463935 68.6715774 70.3645548 66.8637387 71.2397484 66.3839968 73.5277484 65.2257387 74.3186516 64.7736742 74.8835226 64.4633516 75.4483935 64.0674806 75.4483935 63.163771L75.4483935 62.5708032C75.4483935 61.4125452 74.5442645 61.1018032 73.2736194 61.1018032 71.5785871 61.1018032 68.8955548 61.5538677 67.3137484 61.8646097L66.0712 58.3340613C68.4439097 57.7972871 71.2397484 57.3456419 73.7252645 57.3456419 77.7644903 57.3456419 80.052071 58.6162871 80.052071 62.3162548L80.052071 63.3050935C80.052071 65.6492871 78.7814258 66.8637387 76.8322645 67.9372871 75.9004581 68.4455452 73.2736194 69.8013194 72.3413935 70.3661903 71.1835548 71.0442871 70.8728129 72.0041903 70.8728129 73.2186419L70.8728129 74.0661581 80.1933935 74.0661581 80.1933935 77.8227387 66.2687161 77.8227387zM93.6652097 64.3501258C93.6652097 61.8365129 93.2412419 61.0175129 90.8970484 61.0175129L90.1627581 61.0175129C87.8185645 61.0175129 87.3950161 61.8365129 87.3950161 64.3501258L87.3950161 71.0719645C87.3950161 73.5859968 87.8185645 74.4054161 90.1627581 74.4054161L90.8970484 74.4054161C93.2412419 74.4054161 93.6652097 73.5859968 93.6652097 71.0719645L93.6652097 64.3501258zM90.3036613 78.0768677C84.7400806 78.0768677 82.7909194 75.8454806 82.7909194 71.1004806L82.7909194 64.322029C82.7909194 59.5766097 84.7400806 57.3456419 90.3036613 57.3456419L90.7561452 57.3456419C96.3201452 57.3456419 98.2693065 59.5766097 98.2693065 64.322029L98.2693065 71.1004806C98.2693065 75.8454806 96.3201452 78.0768677 90.7561452 78.0768677L90.3036613 78.0768677z"/>
    <polygon points="106.064 77.823 106.064 62.458 102.42 64.858 100.415 62.034 106.713 57.599 110.639 57.599 110.639 77.823"/>
    <path d="M125.100468,62.7967935 C125.100468,61.5538258 124.648823,61.017471 123.038919,61.017471 L121.852565,61.017471 C120.270758,61.017471 119.790597,61.5538258 119.790597,62.7967935 L119.790597,64.7451161 C119.790597,66.1013097 119.960016,66.7223742 121.711242,66.7223742 C122.78479,66.7223742 124.309565,66.5248581 125.100468,66.3273419 L125.100468,62.7967935 Z M125.100468,69.8578903 C123.745113,70.1401161 122.586855,70.3376323 121.259597,70.3376323 C116.627403,70.3376323 115.1865,68.2760839 115.1865,64.8302452 L115.1865,63.1356323 C115.1865,58.729471 117.559629,57.3456 121.767855,57.3456 L123.321145,57.3456 C127.501694,57.3456 129.704565,58.7575677 129.704565,63.163729 L129.704565,72.1735677 C129.704565,76.4950194 127.642597,78.0772452 123.321145,78.0772452 C120.835629,78.0772452 117.220371,77.6247613 115.215016,77.2578258 L116.260048,73.783471 C118.011274,74.0942129 120.863726,74.433471 122.586855,74.433471 C124.790145,74.433471 125.100468,73.8119871 125.100468,71.8066323 L125.100468,69.8578903 Z"/>
  </g>
</svg>
