<svg class="svg-award--ida" xmlns="http://www.w3.org/2000/svg" viewBox="0 0 80 74" data-inview="short">
  <g fill-rule="evenodd">
    <path d="M0,73.0081226 L79.7002299,73.0081226 L79.7002299,0 L0,0 L0,73.0081226 Z M2.65532567,70.3491188 L77.0445977,70.3491188 L77.0445977,2.65716475 L2.65532567,2.65716475 L2.65532567,70.3491188 Z"/>
    <path d="M14.0899923,33.3429272 L16.0158161,33.3429272 C17.7476169,33.3429272 18.7137471,34.2164904 18.7137471,36.0157241 C18.7137471,37.8940383 17.888613,38.9570268 16.0158161,38.9570268 L14.0899923,38.9570268 L14.0899923,33.3429272 Z M14.8369655,38.3289808 L16.0792644,38.3289808 C16.5908352,38.3289808 17.9661609,38.1876782 17.9661609,36.1193257 C17.9661609,34.7823142 17.4723678,33.9718927 16.0955096,33.9718927 L14.8369655,33.9718927 L14.8369655,38.3289808 Z"/>
    <polygon points="19.628 33.343 23.504 33.343 23.504 33.972 20.375 33.972 20.375 35.756 23.293 35.756 23.293 36.385 20.375 36.385 20.375 38.329 23.529 38.329 23.529 38.957 19.628 38.957"/>
    <path d="M27.6828506,34.9862682 C27.5964138,34.1764598 27.0701303,33.8374559 26.2906667,33.8374559 C25.6540383,33.8374559 25.0321226,34.0658084 25.0321226,34.7977625 C25.0321226,36.181364 28.6259923,35.2051188 28.6259923,37.416613 C28.6259923,38.6117088 27.4551111,39.0901762 26.4325824,39.0901762 C25.1740383,39.0901762 24.1116628,38.4697931 24.1116628,37.1091801 L24.8203218,37.1091801 C24.8203218,38.0550805 25.6062222,38.4609042 26.4561839,38.4609042 C27.133272,38.4609042 27.8793257,38.2484904 27.8793257,37.4389885 C27.8793257,35.8981456 24.2842299,36.9142375 24.2842299,34.8532414 C24.2842299,33.7203678 25.291433,33.2091034 26.3225441,33.2091034 C27.4707433,33.2091034 28.3522759,33.7513257 28.3912031,34.9862682 L27.6828506,34.9862682 Z"/>
    <polygon points="29.564 38.957 30.31 38.957 30.31 33.343 29.564 33.343"/>
    <path d="M36.0862222,38.1977625 C35.6451494,38.7798314 34.8690575,39.090023 33.9982529,39.090023 C32.3240766,39.090023 31.3248429,37.7303295 31.3248429,36.2615172 C31.3248429,34.6256552 32.2220077,33.2092567 33.9982529,33.2092567 C35.2172567,33.2092567 36.2088276,33.7588352 36.5699004,35.0725517 L35.8213946,35.0725517 C35.5167203,34.2235096 34.8393257,33.8373027 33.9982529,33.8373027 C32.6376398,33.8373027 32.0715096,35.0259617 32.0715096,36.2216705 C32.0715096,37.3922452 32.7489042,38.460751 33.9982529,38.460751 C35.1639234,38.460751 36.0273716,37.708567 36.0273716,36.6308659 L34.2327356,36.6308659 L34.2327356,36.0000613 L36.6955709,36.0000613 L36.6955709,38.9573027 L36.0862222,38.9573027 L36.0862222,38.1977625 Z"/>
    <polygon points="37.906 33.343 38.699 33.343 41.656 37.894 41.673 37.894 41.673 33.343 42.38 33.343 42.38 38.957 41.563 38.957 38.628 34.45 38.613 34.45 38.613 38.957 37.906 38.957"/>
    <path d="M15.5258851,41.0566437 L16.3375326,41.0566437 L18.4917088,46.5708199 L17.6794483,46.5708199 L17.0774559,44.9110498 L14.7445824,44.9110498 L14.1278774,46.5708199 L13.3714023,46.5708199 L15.5258851,41.0566437 Z M14.9772261,44.2925057 L16.8460383,44.2925057 L15.9274176,41.7202452 L15.9130115,41.7202452 L14.9772261,44.2925057 Z"/>
    <polygon points="23.816 46.571 23.053 46.571 21.792 41.936 21.777 41.936 20.504 46.571 19.739 46.571 18.327 41.057 19.076 41.057 20.156 45.643 20.171 45.643 21.407 41.057 22.203 41.057 23.423 45.643 23.439 45.643 24.558 41.057 25.291 41.057"/>
    <path d="M27.3512031 41.0566437L28.1640766 41.0566437 30.3176398 46.5708199 29.5056858 46.5708199 28.9043065 44.9110498 26.5708199 44.9110498 25.9541149 46.5708199 25.1985594 46.5708199 27.3512031 41.0566437zM26.8043831 44.2925057L28.6722759 44.2925057 27.7533487 41.7202452 27.7383295 41.7202452 26.8043831 44.2925057zM30.9949425 41.0566437L33.588046 41.0566437C34.6323372 41.0566437 35.2643678 41.6117395 35.2643678 42.4987893 35.2643678 43.1721992 34.9783908 43.7128889 34.3068199 43.8983295L34.3068199 43.9145747C34.948659 44.0377931 35.0718774 44.5156475 35.1331801 45.0499004 35.1721073 45.5810881 35.1494253 46.2011648 35.4577778 46.5708199L34.6378544 46.5708199C34.4306513 46.3476782 34.547433 45.7518161 34.4377011 45.2111264 34.3527969 44.6774866 34.229272 44.2158774 33.5190805 44.2158774L31.7284291 44.2158774 31.7284291 46.5708199 30.9949425 46.5708199 30.9949425 41.0566437zM33.256092 43.5973333C33.9371648 43.5973333 34.5318008 43.4201686 34.5318008 42.6171034 34.5318008 42.0684444 34.2363218 41.6733487 33.5509579 41.6733487L31.7284291 41.6733487 31.7284291 43.5973333 33.256092 43.5973333zM36.2849962 41.0566437L38.17741 41.0566437C39.8764138 41.0566437 40.8256858 41.9127356 40.8256858 43.681318 40.8256858 45.5283678 40.0146513 46.5708199 38.17741 46.5708199L36.2849962 46.5708199 36.2849962 41.0566437zM37.0194023 45.9525824L38.2399387 45.9525824C38.7407816 45.9525824 40.0925057 45.8134253 40.0925057 43.783387 40.0925057 42.4715096 39.606069 41.6733487 38.2552644 41.6733487L37.0194023 41.6733487 37.0194023 45.9525824zM44.9122452 42.6703448C44.827341 41.8749425 44.3102529 41.5429885 43.5455019 41.5429885 42.9205211 41.5429885 42.3102529 41.7673563 42.3102529 42.4858238 42.3102529 43.8439847 45.8391418 42.8864368 45.8391418 45.0565517 45.8391418 46.2301916 44.6887969 46.7009962 43.685272 46.7009962 42.4484904 46.7009962 41.4069579 46.092567 41.4069579 44.7555556L42.1015172 44.7555556C42.1015172 45.6830651 42.8745441 46.0845977 43.707954 46.0845977 44.3724751 46.0845977 45.1059617 45.874636 45.1059617 45.0807663 45.1059617 43.5675096 41.5770728 44.5630651 41.5770728 42.5385441 41.5770728 41.4262069 42.5643525 40.9256705 43.5770728 40.9256705 44.7044291 40.9256705 45.5687969 41.4590038 45.6077241 42.6703448L44.9122452 42.6703448z"/>
    <polygon points="14.052 49.156 14.765 49.156 14.765 50.771 16.612 50.771 16.612 49.156 17.322 49.156 17.322 53.216 16.612 53.216 16.612 51.384 14.765 51.384 14.765 53.216 14.052 53.216"/>
    <path d="M21.9081992,51.1865747 C21.9081992,52.3504061 21.1740996,53.3116322 19.9633716,53.3116322 C18.7526437,53.3116322 18.0194636,52.3504061 18.0194636,51.1865747 C18.0194636,50.0310192 18.7526437,49.0593716 19.9633716,49.0593716 C21.1740996,49.0593716 21.9081992,50.0310192 21.9081992,51.1865747 M18.7302682,51.1865747 C18.7302682,51.9660383 19.0944061,52.7317088 19.9633716,52.7317088 C20.8332567,52.7317088 21.1977011,51.9660383 21.1977011,51.1865747 C21.1977011,50.4074176 20.8332567,49.638682 19.9633716,49.638682 C19.0944061,49.638682 18.7302682,50.4074176 18.7302682,51.1865747"/>
    <polygon points="22.745 49.156 23.494 49.156 25.349 52.148 25.36 52.148 25.36 49.156 26.036 49.156 26.036 53.216 25.285 53.216 23.438 50.23 23.42 50.23 23.42 53.216 22.745 53.216"/>
    <path d="M30.6728582 51.1865747C30.6728582 52.3504061 29.9396782 53.3116322 28.7289502 53.3116322 27.5176092 53.3116322 26.7841226 52.3504061 26.7841226 51.1865747 26.7841226 50.0310192 27.5176092 49.0593716 28.7289502 49.0593716 29.9396782 49.0593716 30.6728582 50.0310192 30.6728582 51.1865747M27.4949272 51.1865747C27.4949272 51.9660383 27.8584521 52.7317088 28.7289502 52.7317088 29.5979157 52.7317088 29.9626667 51.9660383 29.9626667 51.1865747 29.9626667 50.4074176 29.5979157 49.638682 28.7289502 49.638682 27.8584521 49.638682 27.4949272 50.4074176 27.4949272 51.1865747M31.3810575 49.1559234L33.3203678 49.1559234C34.2117088 49.1559234 34.6610575 49.5663448 34.6610575 50.2526284 34.6610575 51.0311724 34.1277241 51.2300996 33.9913257 51.2779157L33.9913257 51.2886437C34.2356169 51.3177625 34.5942375 51.5096398 34.5942375 52.1478008 34.5942375 52.6235096 34.6610575 53.0507893 34.8158467 53.2163065L34.0547739 53.2163065C33.9450421 53.0391418 33.9450421 52.8175326 33.9450421 52.6189119 33.9450421 51.8719387 33.7923985 51.5445824 33.1386054 51.5445824L32.0933946 51.5445824 32.0933946 53.2163065 31.3810575 53.2163065 31.3810575 49.1559234zM32.0933946 51.0029732L33.2578391 51.0029732C33.712705 51.0029732 33.9514789 50.7878008 33.9514789 50.3565364 33.9514789 49.832092 33.6158467 49.7364598 33.2461916 49.7364598L32.0933946 49.7364598 32.0933946 51.0029732zM36.5507739 49.1559234L37.3069425 49.1559234 38.8716935 53.2163065 38.1078621 53.2163065 37.728092 52.1404444 36.1078621 52.1404444 35.7268659 53.2163065 34.9939923 53.2163065 36.5507739 49.1559234zM36.301272 51.6000613L37.5417318 51.6000613 36.9323831 49.8556935 36.9142989 49.8556935 36.301272 51.6000613zM39.3899157 49.1559234L41.3635556 49.1559234C42.0906054 49.1559234 42.5678467 49.4860383 42.5678467 50.1603678 42.5678467 50.5707893 42.3581916 50.8674943 41.9885364 51.0274943L41.9885364 51.0385287C42.4881533 51.1458084 42.7496092 51.5320153 42.7496092 52.0855785 42.7496092 52.7200613 42.3076169 53.2163065 41.2541303 53.2163065L39.3899157 53.2163065 39.3899157 49.1559234zM40.1013333 50.8567663L41.2596475 50.8567663C41.6023295 50.8567663 41.8573487 50.656613 41.8573487 50.2915556 41.8573487 49.8829732 41.647387 49.7364598 41.2596475 49.7364598L40.1013333 49.7364598 40.1013333 50.8567663zM40.1013333 52.6366897L41.3574253 52.6366897C41.7883831 52.6366897 42.0391111 52.4009808 42.0391111 51.9923985 42.0391111 51.5887203 41.7883831 51.3683372 41.3574253 51.3683372L40.1013333 51.3683372 40.1013333 52.6366897z"/>
    <polygon points="43.401 49.156 44.111 49.156 44.111 52.601 46.176 52.601 46.176 53.216 43.401 53.216"/>
    <polygon points="46.702 49.156 49.626 49.156 49.626 49.77 47.414 49.77 47.414 50.832 49.461 50.832 49.461 51.412 47.414 51.412 47.414 52.601 49.667 52.601 49.667 53.216 46.702 53.216"/>
    <polygon points="14.059 54.902 14.999 54.902 16.053 58.078 16.063 58.078 17.089 54.902 18.02 54.902 18.02 58.961 17.383 58.961 17.383 55.827 17.373 55.827 16.315 58.961 15.764 58.961 14.706 55.827 14.694 55.827 14.694 58.961 14.059 58.961"/>
    <polygon points="19.009 54.902 21.931 54.902 21.931 55.514 19.719 55.514 19.719 56.577 21.766 56.577 21.766 57.157 19.719 57.157 19.719 58.346 21.972 58.346 21.972 58.961 19.009 58.961"/>
    <polygon points="22.674 54.902 23.425 54.902 25.277 57.892 25.29 57.892 25.29 54.902 25.966 54.902 25.966 58.961 25.215 58.961 23.369 55.975 23.35 55.975 23.35 58.961 22.674 58.961"/>
    <polygon points="26.566 54.902 29.483 54.902 29.483 55.514 28.383 55.514 28.383 58.961 27.671 58.961 27.671 55.514 26.566 55.514"/>
    <polygon points="30.175 58.961 30.885 58.961 30.885 54.902 30.175 54.902"/>
    <path d="M35.507341,56.9306973 C35.507341,58.0960613 34.7732414,59.0563678 33.5625134,59.0563678 C32.352092,59.0563678 31.6179923,58.0960613 31.6179923,56.9306973 C31.6179923,55.7760613 32.352092,54.8041073 33.5625134,54.8041073 C34.7732414,54.8041073 35.507341,55.7760613 35.507341,56.9306973 M32.32941,56.9306973 C32.32941,57.7101609 32.6929349,58.476751 33.5625134,58.476751 C34.4323985,58.476751 34.7968429,57.7101609 34.7968429,56.9306973 C34.7968429,56.1512337 34.4323985,55.3837241 33.5625134,55.3837241 C32.6929349,55.3837241 32.32941,56.1512337 32.32941,56.9306973"/>
    <polygon points="36.218 54.902 36.969 54.902 38.823 57.892 38.834 57.892 38.834 54.902 39.51 54.902 39.51 58.961 38.76 58.961 36.913 55.975 36.894 55.975 36.894 58.961 36.218 58.961"/>
    <path d="M14.1028659 62.2686284C14.0737471 61.3365211 14.6037088 60.6195862 15.5817931 60.6195862 16.3287663 60.6195862 16.9816398 61.0980536 16.9816398 61.8971341 16.9816398 63.1320766 15.6694559 63.232613 15.0748199 64.0706207L17.0052414 64.0706207 17.0052414 64.7801992 14.0096858 64.7801992C14.0096858 63.8321533 14.5920613 63.4422682 15.2970421 62.956751 15.6516782 62.7063295 16.1531341 62.4614253 16.1531341 61.9611954 16.1531341 61.5716169 15.8971954 61.3300843 15.5422529 61.3300843 15.0521379 61.3300843 14.8958161 61.8392031 14.8958161 62.2686284L14.1028659 62.2686284zM18.973272 60.618728C19.7898238 60.618728 20.4770268 61.1321379 20.4770268 62.7253946 20.4770268 64.3499157 19.7898238 64.8636322 18.973272 64.8636322 18.1640766 64.8636322 17.4817778 64.3499157 17.4817778 62.7253946 17.4817778 61.1321379 18.1640766 60.618728 18.973272 60.618728M18.973272 64.1819464C19.6506667 64.1819464 19.6506667 63.1827126 19.6506667 62.7253946 19.6506667 62.3002605 19.6506667 61.3013333 18.973272 61.3013333 18.3032337 61.3013333 18.3096705 62.3002605 18.3096705 62.7253946 18.3096705 63.1827126 18.3096705 64.1819464 18.973272 64.1819464M22.7382375 64.7812107L21.9109579 64.7812107 21.9109579 62.1356935 20.8838314 62.1356935 20.8838314 61.5110192C21.4616092 61.530023 21.9869732 61.3258851 22.0792337 60.7018238L22.7382375 60.7018238 22.7382375 64.7812107zM25.0284138 60.618728C26.0429732 60.618728 26.3908659 61.3194176 26.3908659 61.7145134 26.3908659 62.1178851 26.1876475 62.4394176 25.798069 62.5715249L25.798069 62.5831724C26.2863448 62.6953563 26.5600613 63.0677701 26.5600613 63.5814866 26.5600613 64.4424828 25.798069 64.8636322 25.0348506 64.8636322 24.2471111 64.8636322 23.4832797 64.4666973 23.4832797 63.5851648 23.4832797 63.0677701 23.7692567 62.699954 24.2535479 62.5831724L24.2535479 62.5715249C23.856 62.4614866 23.6524751 62.1356628 23.6524751 61.7335172 23.6524751 60.997272 24.3638927 60.618728 25.0284138 60.618728M25.0348506 64.2389579C25.4299464 64.2389579 25.7337011 63.9603372 25.7337011 63.5499157 25.7337011 63.1603372 25.4179923 62.8994943 25.0348506 62.8994943 24.6323985 62.8994943 24.3114789 63.1260077 24.3114789 63.5462375 24.3114789 63.9640153 24.6379157 64.2389579 25.0348506 64.2389579M25.0284138 62.3456245C25.3720153 62.3456245 25.6396015 62.1577318 25.6396015 61.808613 25.6396015 61.5995709 25.5412107 61.2443218 25.0284138 61.2443218 24.6958467 61.2443218 24.404659 61.4429425 24.404659 61.808613 24.404659 62.1577318 24.6958467 62.3456245 25.0284138 62.3456245"/>
    <polygon points="14.086 31.171 16.998 31.171 16.998 14.26 14.086 14.26"/>
    <path d="M18.6550805 14.2600766L24.9824368 14.2600766C30.1931648 14.2600766 33.9142375 18.0501149 33.9142375 22.7155556 33.9142375 27.3809962 30.1931648 31.1710345 24.9824368 31.1710345L18.6550805 31.1710345 18.6550805 14.2600766zM21.6150805 28.5242912L24.2354636 28.5242912C28.8785287 28.5242912 30.8843525 26.1261303 30.8843525 22.7155556 30.8843525 19.3052874 28.8785287 16.8743295 24.2354636 16.8743295L21.6150805 16.8743295 21.6150805 28.5242912zM56.6780077 5.28947126L56.6780077 10.6623448C60.8695785 16.6479387 63.6487356 23.6937625 64.5241379 31.3204291L67.8378544 25.3863295C65.8924138 17.7146054 61.9862069 10.8263295 56.6780077 5.28947126M64.6940383 33.1313103C64.7764904 34.2448736 64.8215479 35.3685517 64.8215479 36.5023448 64.8215479 46.1170575 61.8045364 55.0258697 56.6780996 62.3438774L56.6780996 67.7170575C64.447295 59.614069 69.2212414 48.6163678 69.2212414 36.5023448 69.2212414 35.3685517 69.1669885 34.2460996 69.0836169 33.1313103L64.6940383 33.1313103z"/>
    <path d="M74.0765364 33.1313103L68.7937778 23.6744521 67.8371494 25.3863295C68.4734713 27.889931 68.8884904 30.4805824 69.0837395 33.1313103L74.0765364 33.1313103zM51.9809349 23.6799693C49.2042299 23.6799693 46.9550345 25.9297778 46.9550345 28.7055632 46.9550345 31.4807356 49.2042299 33.7311571 51.9809349 33.7311571 52.0814713 33.7311571 52.1789425 33.7216552 52.2785594 33.7158314L52.2785594 23.694682C52.1789425 23.6888582 52.0814713 23.6799693 51.9809349 23.6799693"/>
    <path d="M52.2784674 33.7158927L52.2775479 67.7171188C53.8796935 66.0453946 55.3463602 64.2458544 56.6781609 62.3436322L56.6781609 30.4784981C55.9943295 32.2890728 54.2983908 33.597272 52.2784674 33.7158927M56.6780077 26.9325057L56.6780077 10.6624674C55.3462069 8.76116475 53.8795402 6.96039847 52.2783142 5.2902069L52.2783142 23.6948046C54.2982375 23.8131188 55.9944828 25.1216245 56.6780077 26.9325057M39.7470345 14.2699464L42.5409042 14.2699464 49.9530115 31.1717088 46.8538544 31.1717088 44.9476475 27.0389885 37.118682 27.0389885 35.3458084 31.1717088 32.3076475 31.1717088 39.7470345 14.2699464zM38.1853487 24.3594483L43.8941609 24.3594483 41.0769962 17.6541609 41.0022069 17.6541609 38.1853487 24.3594483z"/>
  </g>
</svg>
