<svg class="svg-award--adesign" xmlns="http://www.w3.org/2000/svg" viewBox="0 0 61 101">
  <g fill-rule="evenodd">
    <polygon points="7.126 87.19 5.712 92.811 5.693 92.811 4.216 87.19 3.532 87.19 2.027 92.811 2.009 92.811 .613 87.19 0 87.19 1.676 93.676 2.351 93.676 3.856 87.946 3.874 87.946 5.378 93.676 6.054 93.676 7.756 87.19"/>
    <polygon points="8.865 93.676 9.477 93.676 9.477 87.189 8.865 87.189"/>
    <polygon points="11.801 88.019 11.784 88.019 11.784 93.676 11.171 93.676 11.171 87.19 11.865 87.19 15.613 92.856 15.63 92.856 15.63 87.19 16.243 87.19 16.243 93.676 15.531 93.676"/>
    <polygon points="18.342 88.019 18.324 88.019 18.324 93.676 17.711 93.676 17.711 87.19 18.405 87.19 22.153 92.856 22.171 92.856 22.171 87.19 22.783 87.19 22.783 93.676 22.072 93.676"/>
    <polygon points="24.27 93.676 24.27 87.189 28.585 87.189 28.585 87.712 24.882 87.712 24.882 90.055 28.225 90.055 28.225 90.577 24.882 90.577 24.882 93.153 28.675 93.153 28.675 93.676"/>
    <path d="M32.3231084 90.2075916C32.5512763 90.2075916 32.7631466 90.1833779 32.9582534 90.135416 33.1533603 90.0874542 33.3228565 90.0110878 33.4672076 89.9058511 33.6115588 89.8006145 33.7256427 89.6669733 33.8094595 89.5049275 33.893742 89.3428817 33.936116 89.1477748 33.936116 88.9191412 33.936116 88.6793321 33.892345 88.4809656 33.8052687 88.3249733 33.7177267 88.1685153 33.6008489 88.045584 33.4537038 87.9557137 33.3065588 87.8653779 33.1384595 87.8020496 32.9494061 87.7661947 32.759887 87.7303397 32.5638489 87.7121794 32.359429 87.7121794L30.4130168 87.7121794 30.4130168 90.2075916 32.3231084 90.2075916zM30.4130168 90.7300496L30.4130168 93.6757443 29.8006885 93.6668969 29.8006885 87.1897214 32.3412687 87.1897214C33.055574 87.1897214 33.6022458 87.3233626 33.9808183 87.5901794 34.3593908 87.8579275 34.5484443 88.2919122 34.5484443 88.8921336 34.5484443 89.3005076 34.4660244 89.6250649 34.3007191 89.8653397 34.1354137 90.1056145 33.8662687 90.3100344 33.4946809 90.4781336 33.6865282 90.5437901 33.8369328 90.6401794 33.9449634 90.7663702 34.0529939 90.8920954 34.1344824 91.0364466 34.1880321 91.1984924 34.2420473 91.3610038 34.2765053 91.5318969 34.2918718 91.7121031 34.3067725 91.8923092 34.3170168 92.0664618 34.3235359 92.2345611 34.3291237 92.4808893 34.3398336 92.6848435 34.3547344 92.8468893 34.3696351 93.0094008 34.3877954 93.141645 34.4087496 93.2436221 34.4297038 93.3455992 34.4553145 93.4252252 34.4855817 93.4825 34.5153832 93.5393092 34.5512382 93.5830802 34.5931466 93.6128817L34.5931466 93.6668969 33.9179557 93.6757443C33.8518336 93.5677137 33.8052687 93.4177748 33.7782611 93.2254618 33.7507878 93.0331489 33.7298336 92.8324542 33.7149328 92.6219809 33.7000321 92.4115076 33.6883908 92.2075534 33.6790779 92.0096527 33.6702305 91.8112863 33.6534672 91.6487748 33.6297191 91.5230496 33.5933985 91.3488969 33.5351924 91.2092023 33.4537038 91.1039656 33.3726809 90.9991947 33.2753603 90.9191031 33.1612763 90.8650878 33.0471924 90.8110725 32.9191389 90.7752176 32.778513 90.7570573 32.6369557 90.7393626 32.4912076 90.7300496 32.3412687 90.7300496L30.4130168 90.7300496zM1.00095878 98.8016534C1.01911908 99.0177145 1.06754656 99.2011802 1.14624122 99.352516 1.22493588 99.5033863 1.32644733 99.6263176 1.45030992 99.7203786 1.57417252 99.8149053 1.71712672 99.8838214 1.87963817 99.9266611 2.04121832 99.9695008 2.21490534 99.9909206 2.39976794 99.9909206 2.61582901 99.9909206 2.8025542 99.963913 2.96040916 99.9094321 3.11826412 99.8554168 3.24631756 99.7823099 3.34550076 99.6901115 3.44468397 99.597913 3.51779084 99.4908137 3.56528702 99.3692794 3.61231756 99.247745 3.63606565 99.119226 3.63606565 98.9841878 3.63606565 98.7946687 3.59322595 98.6419359 3.50801221 98.5245924 3.42186718 98.4072489 3.3105771 98.3117908 3.17321069 98.237287 3.03584427 98.1627832 2.87798931 98.1031802 2.70011145 98.0584779 2.52269924 98.0133099 2.34016489 97.9695389 2.15297405 97.9266992 1.96578321 97.8838595 1.7837145 97.8331038 1.60583664 97.7744321 1.42795878 97.716226 1.27010382 97.6375313 1.1327374 97.5383481.995370992 97.4391649.884080916 97.3115771.797935878 97.156516.712722137 97.0009893.669882443 96.8040198.669882443 96.565142.669882443 96.3984397.704806107 96.2363939.774653435 96.0785389.844500763 95.9211496.948340458 95.781455 1.08570687 95.6599206 1.22307328 95.5383863 1.39536336 95.4415313 1.6025771 95.3693557 1.80932519 95.2971802 2.04820305 95.2608595 2.31827939 95.2608595 2.59347786 95.2608595 2.83328702 95.2995084 3.03817252 95.3758748 3.24305802 95.4527069 3.4134855 95.5574779 3.54852366 95.6901878 3.68356183 95.8233634 3.78507328 95.9774931 3.85212672 96.1530427 3.92011145 96.3285924 3.95363817 96.5157832 3.95363817 96.713684L3.51406565 96.713684C3.51406565 96.529287 3.48147023 96.3691038 3.41627939 96.2340656 3.35108855 96.0990275 3.26214962 95.9886687 3.1494626 95.9029893 3.03677557 95.8173099 2.90872214 95.7544473 2.76437099 95.7139359 2.6204855 95.6734244 2.47147786 95.6529359 2.31827939 95.6529359 2.08452366 95.6529359 1.88708855 95.6859969 1.72737099 95.7511878 1.56765344 95.8163786 1.44006565 95.9006611 1.34553893 96.0045008 1.25101221 96.1078748 1.18535573 96.2228901 1.14950076 96.3490809 1.1136458 96.4748061 1.10712672 96.6014626 1.12901221 96.7271878 1.1564855 96.8850427 1.21934809 97.0112336 1.3185313 97.1057603 1.4177145 97.200287 1.53924885 97.2780504 1.6836 97.3385847 1.8274855 97.3995847 1.98627176 97.4494092 2.15949313 97.4875924 2.33318015 97.5257756 2.51012672 97.566287 2.69033282 97.6091267 2.87053893 97.6519664 3.04515725 97.7027221 3.21372214 97.7609282 3.38275267 97.8196 3.5326916 97.8987603 3.66307328 97.9974779 3.79392061 98.0966611 3.8986916 98.2237832 3.97738626 98.3793099 4.05608092 98.5348366 4.09566107 98.7294779 4.09566107 98.9636992 4.09566107 99.4139817 3.94013435 99.7632183 3.62954656 100.010944 3.31895878 100.258669 2.8817145 100.382997 2.31827939 100.382997 2.06636336 100.382997 1.83214198 100.349936 1.61561527 100.284745 1.3995542 100.219089 1.21282901 100.120371 1.05497405 99.9871954.897119084 99.8544855.774653435 99.6901115.686645802 99.4940733.599103817 99.2980351.554867176 99.0675389.554867176 98.8016534L1.00095878 98.8016534z"/>
    <polygon points="12.744 100.254 13.237 100.254 13.237 95.39 12.744 95.39"/>
    <polygon points="22.102 100.254 22.102 95.39 22.561 95.39 22.561 99.862 25.17 99.862 25.17 100.254"/>
    <polygon points="33.075 95.39 33.554 95.39 35.021 99.714 36.48 95.39 36.96 95.39 35.271 100.254 34.764 100.254"/>
    <polygon points="45.27 100.254 45.27 95.39 48.507 95.39 48.507 95.781 45.729 95.781 45.729 97.538 48.237 97.538 48.237 97.93 45.729 97.93 45.729 99.862 48.575 99.862 48.575 100.254"/>
    <path d="M58.9255809 97.6529908C59.096474 97.6529908 59.2552603 97.6348305 59.401474 97.5989756 59.5481534 97.5631206 59.6752756 97.5053802 59.7833061 97.4266855 59.8913366 97.3479908 59.977016 97.2474107 60.0403443 97.1258763 60.1032069 97.004342 60.134871 96.8581282 60.134871 96.6867695 60.134871 96.5065634 60.1018099 96.3580214 60.0370847 96.2406779 59.9714282 96.1238 59.8838863 96.0316015 59.7730618 95.9640824 59.6627031 95.8960977 59.5365122 95.8490672 59.394955 95.8220595 59.2529321 95.7950519 59.105787 95.7810824 58.9525885 95.7810824L57.493245 95.7810824 57.493245 97.6529908 58.9255809 97.6529908zM57.493245 98.0450672L57.493245 100.254105 57.0336496 100.247586 57.0336496 95.3894718 58.9386191 95.3894718C59.4750466 95.3894718 59.8848176 95.4895863 60.1688634 95.6902809 60.4519779 95.8905099 60.5944664 96.2164641 60.5944664 96.6667466 60.5944664 96.9731435 60.5320695 97.2162122 60.4086725 97.3964183 60.2843443 97.5761588 60.0827183 97.7298229 59.8037947 97.8560137 59.9476802 97.9053725 60.0608328 97.9770824 60.1413901 98.0716092 60.222413 98.1666015 60.283413 98.2746321 60.3239244 98.3961664 60.3644359 98.5177008 60.3905122 98.6462198 60.4016878 98.781258 60.4128634 98.9162962 60.4207794 99.0471435 60.4254359 99.1733344 60.4296267 99.3581969 60.4375427 99.5109298 60.4487183 99.6324641 60.4603595 99.7544641 60.4733977 99.8536473 60.4892298 99.9300137 60.5055275 100.006846 60.5246191 100.066449 60.5465046 100.108823 60.5693214 100.152128 60.596329 100.184724 60.6279931 100.207075L60.6279931 100.247586 60.1209015 100.254105C60.0715427 100.173082 60.0370847 100.060861 60.0165962 99.9165099 59.9961076 99.7721588 59.9807412 99.6217542 59.9691 99.4638992 59.9579244 99.3060443 59.9490771 99.1528458 59.942558 99.0043038 59.9355733 98.8557618 59.9230008 98.7342275 59.9053061 98.6397008 59.8778328 98.5088534 59.8340618 98.4040824 59.7730618 98.3253878 59.7120618 98.2462275 59.638955 98.1866244 59.5537412 98.146113 59.4680618 98.1056015 59.3721382 98.0785939 59.2664359 98.0650901 59.1607336 98.0515863 59.0517718 98.0450672 58.9386191 98.0450672L57.493245 98.0450672zM42.1717679 89.1182992C42.1717679 88.8207496 42.2178672 88.5506733 42.3091344 88.3071389 42.4004015 88.0645359 42.5321802 87.8554595 42.7040046 87.6813069 42.8753634 87.5066885 43.0825771 87.372116 43.3261115 87.2775893 43.5687145 87.1835282 43.8392565 87.1364977 44.1368061 87.1364977 44.4394779 87.1364977 44.707226 87.1807344 44.9386534 87.2692076 45.1700809 87.3581466 45.3647221 87.476887 45.5221115 87.625429 45.6795008 87.773971 45.7982412 87.9513832 45.8783328 88.1572 45.9584244 88.3630168 45.9984702 88.5804748 45.9984702 88.8091084 45.9984702 89.0782534 45.9537679 89.3157344 45.8657603 89.5215511 45.7763557 89.7273679 45.6594779 89.9103679 45.5137298 90.0705511 45.367516 90.2307344 45.201745 90.3736885 45.0159511 90.4994137 44.8301573 90.6251389 44.6401725 90.7438794 44.4455313 90.8556351 44.2508901 90.9669252 44.0595084 91.0744901 43.870455 91.1773985 43.6818672 91.2803069 43.5133023 91.3888031 43.3647603 91.5033527 43.2674397 91.5778565 43.1724473 91.6565511 43.0811802 91.7394366 42.989913 91.8223221 42.9065618 91.9121924 42.8325237 92.009513 42.7580198 92.1068336 42.6979511 92.2139328 42.6523176 92.3312763 42.606684 92.4486198 42.5806076 92.5790015 42.5750198 92.7214901L45.9467832 92.7214901 45.9467832 93.1848107 41.9915618 93.1848107C41.9971496 92.8933145 42.0288137 92.6302229 42.0856229 92.3955359 42.1428977 92.1613145 42.2690885 91.9322153 42.4637298 91.7091695 42.6751344 91.4688947 42.8939893 91.2630779 43.119829 91.0917191 43.3456687 90.9198947 43.5673176 90.7671618 43.7847756 90.6321237 44.0022336 90.4980168 44.2080504 90.3750855 44.4026916 90.2633298 44.5968672 90.1520397 44.7686916 90.0305053 44.9172336 89.8991924 45.0662412 89.7674137 45.1835847 89.6188718 45.2687985 89.4526351 45.3549435 89.2868641 45.3977832 89.0838412 45.3977832 88.8435664 45.3977832 88.6493908 45.3633252 88.4747725 45.2948748 88.3201771 45.2264244 88.1660473 45.1314321 88.0342687 45.0117603 87.9257725 44.8916229 87.8172763 44.7514626 87.7353221 44.5912794 87.6813069 44.4310962 87.626826 44.2569435 87.5993527 44.0678901 87.5993527 43.8681267 87.5993527 43.686058 87.6412611 43.5230809 87.7241466 43.3601038 87.8070321 43.2199435 87.9169252 43.1026 88.0542916 42.9852565 88.191658 42.8953863 88.3518412 42.8325237 88.5348412 42.7691954 88.7178412 42.7440504 88.9124824 42.755226 89.1182992L42.1717679 89.1182992zM50.2369458 90.2078244C50.2369458 89.8818702 50.2183198 89.5629008 50.1810679 89.250916 50.143816 88.9393969 50.0711748 88.6604733 49.962213 88.4146107 49.8537168 88.1687481 49.7005183 87.971313 49.5030832 87.8223053 49.3056481 87.674229 49.0467473 87.5992595 48.7268466 87.5992595 48.4232435 87.5992595 48.175984 87.675626 47.9846023 87.8269618 47.792755 87.9782977 47.642816 88.1803893 47.5338542 88.4318397 47.425358 88.6837557 47.3499229 88.9696641 47.3070832 89.2895649 47.2637779 89.6099313 47.242358 89.9363511 47.242358 90.2678931 47.242358 90.6567099 47.2665718 91.0101374 47.3154649 91.3272443 47.3638924 91.6448168 47.4453809 91.9153588 47.5599305 92.1384046 47.6744802 92.3614504 47.827213 92.5342061 48.0185947 92.6571374 48.210442 92.7800687 48.4521137 92.8415344 48.7440756 92.8415344 49.0700298 92.8415344 49.3317244 92.7614427 49.5286939 92.6017252 49.726129 92.4410763 49.8765336 92.2352595 49.9789763 91.9838092 50.0823504 91.7318931 50.1508008 91.4492443 50.1852588 91.1344656 50.2197168 90.819687 50.2369458 90.5109618 50.2369458 90.2078244M48.7440756 87.1364046C49.0411595 87.1364046 49.2986634 87.1806412 49.5161214 87.2691145 49.7335794 87.3580534 49.9175107 87.4795878 50.0697779 87.6337176 50.2211137 87.788313 50.3435794 87.9685191 50.4385718 88.1743359 50.5326328 88.3801527 50.6057397 88.5990076 50.6569611 88.8309008 50.7086481 89.0623282 50.7431061 89.3012061 50.7598695 89.5475344 50.7770985 89.7929313 50.7859458 90.0332061 50.7859458 90.2678931 50.7859458 90.6683511 50.7570756 91.0515802 50.6998008 91.4175802 50.6429916 91.7835802 50.5382206 92.1067405 50.3868847 92.3870611 50.2350832 92.6673817 50.0278695 92.8904275 49.7647779 93.0561985 49.5016863 93.2219695 49.1612969 93.304855 48.7440756 93.304855 48.3259229 93.304855 47.9846023 93.2219695 47.7187168 93.0561985 47.4528313 92.8904275 47.243755 92.6659847 47.0924191 92.3824046 46.9406176 92.0992901 46.8363122 91.770542 46.7790374 91.3961603 46.7217626 91.0217786 46.693358 90.6250458 46.693358 90.2078244 46.693358 89.8245954 46.7189687 89.4502137 46.7706557 89.0837481 46.8223427 88.7177481 46.9210603 88.3903969 47.0663427 88.1016947 47.2125565 87.8125267 47.4193046 87.5797023 47.6884496 87.4022901 47.957129 87.2248779 48.3091595 87.1364046 48.7440756 87.1364046M53.7284275 88.6892504L52.1671069 88.6892504 52.1671069 88.3288382C52.3957405 88.3116092 52.6034198 88.2887924 52.7887481 88.2603878 52.9750076 88.2319832 53.1379847 88.1775023 53.278145 88.0974107 53.4183053 88.0173191 53.5356489 87.9013725 53.6297099 87.749571 53.7242366 87.5982351 53.7945496 87.3938153 53.8401832 87.1363115L54.2778931 87.1363115 54.2778931 93.1850901 53.7284275 93.1850901 53.7284275 88.6892504zM58.284429 87.5994924C58.1130702 87.5994924 57.9524214 87.6227748 57.8038794 87.6679427 57.6548718 87.714042 57.5249557 87.782958 57.4136656 87.8742252 57.3023756 87.965958 57.2148336 88.080042 57.151971 88.2174084 57.0891084 88.3547748 57.0574443 88.5121641 57.0574443 88.6891107 57.0574443 88.8781641 57.0928336 89.0397443 57.1650092 89.1738511 57.2362534 89.3084237 57.3321771 89.4183168 57.4523145 89.5044618 57.5724519 89.5901412 57.7098183 89.6544008 57.8639481 89.6972405 58.0185435 89.7400802 58.1782611 89.7615 58.3444977 89.7615 58.5102687 89.7615 58.6643985 89.7400802 58.8078183 89.6972405 58.9507725 89.6544008 59.0737038 89.5845534 59.1766122 89.4872328 59.2799863 89.3899122 59.3614748 89.2669809 59.4210779 89.1184389 59.4811466 88.9694313 59.5114137 88.7864313 59.5114137 88.5689733 59.5114137 88.2602481 59.4112992 88.0213702 59.2110702 87.8523397 59.0108412 87.6842405 58.7016504 87.5994924 58.284429 87.5994924M58.3105053 90.2248206C58.0986351 90.2248206 57.9039939 90.2508969 57.7270473 90.3021183 57.5496351 90.3538053 57.3950397 90.4320344 57.2637267 90.5382023 57.1314824 90.6439046 57.0290397 90.7784771 56.9550015 90.9414542 56.8800321 91.1044313 56.8427802 91.2972099 56.8427802 91.5202557 56.8427802 91.7093092 56.8786351 91.8839275 56.950345 92.043645 57.0215893 92.2038282 57.1217038 92.3430573 57.2506885 92.4599351 57.3792076 92.5772786 57.5365969 92.6699427 57.7223908 92.7388588 57.9081847 92.8073092 58.1158641 92.8417672 58.3444977 92.8417672 58.5447267 92.8417672 58.7305206 92.8091718 58.9018794 92.7430496 59.0737038 92.6773931 59.2241084 92.5842634 59.3526275 92.464126 59.4811466 92.3439885 59.5812611 92.2010344 59.6525053 92.0352634 59.7246809 91.8694924 59.7600702 91.6864924 59.7600702 91.4862634 59.7600702 91.2748588 59.7228183 91.0904618 59.6487802 90.9326069 59.5742763 90.7756832 59.4713679 90.6439046 59.340055 90.5382023 59.2078107 90.4320344 59.0536809 90.3538053 58.8762687 90.3021183 58.6993221 90.2508969 58.5102687 90.2248206 58.3105053 90.2248206M57.3494061 89.9333244C57.2003985 89.8415916 57.0728107 89.7545153 56.967574 89.6716298 56.8614061 89.5887443 56.7743298 89.498874 56.7054137 89.4015534 56.6369634 89.3042328 56.5866733 89.193874 56.5554748 89.0709427 56.5242763 88.9480115 56.5084443 88.7952786 56.5084443 88.611813 56.5084443 88.4059962 56.5540779 88.2118206 56.645345 88.028355 56.7370779 87.8458206 56.8600092 87.6865687 57.0146046 87.5524618 57.1687344 87.4178893 57.3503374 87.313584 57.5594137 87.2395458 57.7684901 87.165042 57.9924672 87.130584 58.2332076 87.1361718 58.4618412 87.1361718 58.686284 87.165042 58.9065359 87.2218511 59.1267878 87.2795916 59.3223603 87.3675992 59.4941847 87.4882023 59.6660092 87.6083397 59.8029099 87.7615382 59.9058183 87.9473321 60.0087267 88.133126 60.0604137 88.3547748 60.0604137 88.611813 60.0604137 88.9265916 59.9961542 89.195271 59.8671695 89.4183168 59.7386504 89.6413626 59.5286427 89.8248282 59.2366809 89.9673168 59.5682229 90.0879198 59.8299176 90.2793015 60.0212992 90.5423931 60.2136122 90.8054847 60.3095359 91.1142099 60.3095359 91.4690344 60.3095359 91.766584 60.2592458 92.0296756 60.1591313 92.2583092 60.0590168 92.4874084 59.9160626 92.6787901 59.7298031 92.8333855 59.5440092 92.9875153 59.3195664 93.1048588 59.0564748 93.1849504 58.7933832 93.265042 58.501887 93.3050878 58.181055 93.3050878 57.9640626 93.3050878 57.7424137 93.2678359 57.516574 93.1937977 57.2902687 93.1192939 57.0877115 93.0075382 56.9075053 92.8589962 56.7268336 92.7104542 56.5801542 92.5241947 56.4656046 92.3011489 56.351055 92.0781031 56.2942458 91.8178053 56.2942458 91.5202557 56.2942458 91.1598435 56.384116 90.8385458 56.5643221 90.5554313 56.7440626 90.2723168 57.0062229 90.0646374 57.3494061 89.9333244M3.12366565 84.2084977L2.41727634 82.588971 1.67736031 84.2084977 3.12366565 84.2084977zM3.41702443 84.8841542L1.37794809 84.8841542.847574046 86.040826.0732 86.040826 2.42984885 80.9792229 4.70314656 86.040826 3.9162 86.040826 3.41702443 84.8841542z"/>
    <polygon points="5.532 81.072 6.149 81.312 5.27 83.076 4.801 82.882"/>
    <path d="M8.1625916,85.3651229 L8.48621756,85.3651229 C8.80937786,85.3651229 9.0775916,85.3311305 9.29132443,85.2631458 C9.50505725,85.1914359 9.69830153,85.0773519 9.87105725,84.9208939 C10.2249504,84.5981992 10.4018969,84.1777183 10.4018969,83.6594511 C10.4018969,83.1369931 10.226813,82.7137183 9.87757634,82.3886954 C9.56279771,82.0985962 9.09901145,81.9537794 8.48621756,81.9537794 L8.1625916,81.9537794 L8.1625916,85.3651229 Z M7.44362977,86.0407794 L7.44362977,81.2785885 L8.44337786,81.2785885 C8.92206489,81.2785885 9.30017176,81.3256191 9.57816412,81.4201458 C9.87617939,81.5128099 10.1467214,81.6701992 10.3893244,81.8923137 C10.880584,82.3402679 11.1264466,82.9297794 11.1264466,83.6594511 C11.1264466,84.3914511 10.8703397,84.9837565 10.3585916,85.4359015 C10.1015534,85.6622069 9.83194275,85.8195962 9.55022519,85.9080695 C9.28713359,85.9965427 8.91368321,86.0407794 8.43080534,86.0407794 L7.44362977,86.0407794 Z"/>
    <polygon points="14.772 81.954 12.863 81.954 12.863 83.098 14.716 83.098 14.716 83.773 12.863 83.773 12.863 85.365 14.772 85.365 14.772 86.041 12.144 86.041 12.144 81.278 14.772 81.278"/>
    <path d="M18.5851168,81.9878183 L18.0021244,82.3333298 C17.8931626,82.1442763 17.7893229,82.0208794 17.6906053,81.9631389 C17.5876969,81.8974824 17.454987,81.8644214 17.2929412,81.8644214 C17.0931779,81.8644214 16.9274069,81.9207649 16.7960939,82.0339176 C16.6643153,82.1452076 16.5986588,82.2849023 16.5986588,82.4534672 C16.5986588,82.685826 16.7714145,82.8730168 17.116926,83.0150397 L17.5918878,83.2092153 C17.9783763,83.3652076 18.2610252,83.5561237 18.4398344,83.7814977 C18.6191092,84.0064061 18.7085137,84.2825359 18.7085137,84.6094214 C18.7085137,85.0475969 18.5623,85.4094061 18.2703382,85.6953145 C17.9760481,85.9830855 17.611445,86.126971 17.1755977,86.126971 C16.7621015,86.126971 16.4207809,86.0045053 16.1511702,85.7600397 C15.886216,85.5151084 15.7209107,85.1705282 15.6547885,84.7267649 L16.3830634,84.566116 C16.4156588,84.845971 16.4733992,85.0392153 16.5558191,85.1463145 C16.7034298,85.3516656 16.9194908,85.454574 17.203071,85.454574 C17.4275137,85.454574 17.6133076,85.3796046 17.761384,85.2292 C17.9094603,85.0792611 17.9834985,84.8892763 17.9834985,84.6587802 C17.9834985,84.566116 17.970926,84.4813679 17.9448496,84.4045359 C17.9192389,84.3272382 17.8787275,84.2564595 17.8247122,84.1912687 C17.7702313,84.1270092 17.6999183,84.0660092 17.6133076,84.0096656 C17.5271626,83.9533221 17.4242542,83.8988412 17.3050481,83.8476198 L16.8454527,83.6562382 C16.1935443,83.3810397 15.8675901,82.9777878 15.8675901,82.4474137 C15.8675901,82.0897954 16.0044908,81.7903832 16.2778267,81.5501084 C16.5516282,81.3070397 16.8915519,81.185971 17.2989947,81.185971 C17.8479947,81.185971 18.2768573,81.4532534 18.5851168,81.9878183"/>
    <polygon points="19.689 86.041 20.407 86.041 20.407 81.279 19.689 81.279"/>
    <path d="M24.1774664,83.5607336 L26.1457641,83.5607336 L26.1457641,83.7181229 C26.1457641,84.0757412 26.1033901,84.3923824 26.018642,84.6680466 C25.9366878,84.9232221 25.7979244,85.1616344 25.6028176,85.3837489 C25.1604511,85.8810618 24.5979473,86.130184 23.9157718,86.130184 C23.2494282,86.130184 22.6785427,85.8894435 22.2035809,85.4084282 C21.7286191,84.9250847 21.4911382,84.3453519 21.4911382,83.6687641 C21.4911382,82.9777412 21.7328099,82.391955 22.2156878,81.9109397 C22.6990313,81.4275962 23.2871458,81.1859244 23.9800313,81.1859244 C24.3525504,81.1859244 24.6999244,81.2618252 25.0226191,81.4140924 C25.3313443,81.5663595 25.6344817,81.8131534 25.9329626,82.154474 L25.4207489,82.6448023 C25.0300695,82.1246725 24.5541763,81.8643748 23.9926038,81.8643748 C23.4887718,81.8643748 23.0659626,82.0380618 22.7251076,82.3859015 C22.3833214,82.7267565 22.2128939,83.1546878 22.2128939,83.6687641 C22.2128939,84.1991382 22.4028786,84.6363824 22.7837794,84.9795656 C23.1395351,85.2980695 23.5250924,85.457787 23.9399855,85.457787 C24.2938786,85.457787 24.6114511,85.3381153 24.8931687,85.0997031 C25.1748863,84.8594282 25.3318099,84.5711916 25.3653366,84.2363901 L24.1774664,84.2363901 L24.1774664,83.5607336 Z"/>
    <polygon points="27.352 86.041 27.352 80.954 30.825 84.588 30.825 81.278 31.544 81.278 31.544 86.331 28.071 82.707 28.071 86.041"/>
    <path d="M38.6293908,84.2084977 L37.9230015,82.588971 L37.1835511,84.2084977 L38.6293908,84.2084977 Z M38.9227496,84.8841542 L36.8836733,84.8841542 L36.3532992,86.040826 L35.5789252,86.040826 L37.935574,80.9792229 L40.2088718,86.040826 L39.4223908,86.040826 L38.9227496,84.8841542 Z"/>
    <polygon points="41.039 81.278 42.278 84.461 43.574 81.047 44.814 84.461 46.131 81.278 46.911 81.278 44.783 86.343 43.558 82.969 42.281 86.346 40.258 81.278"/>
    <path d="M49.9700359 84.2084977L49.2636466 82.588971 48.5237305 84.2084977 49.9700359 84.2084977zM50.262929 84.8841542L48.2243183 84.8841542 47.6934786 86.040826 46.9195702 86.040826 49.2762191 80.9792229 51.5495168 86.040826 50.7625702 86.040826 50.262929 84.8841542zM53.1663893 83.465229L53.3945573 83.465229C54.0748702 83.465229 54.4157252 83.2049313 54.4157252 82.6848015 54.4157252 82.1972672 54.0846489 81.9537328 53.4224962 81.9537328L53.1663893 81.9537328 53.1663893 83.465229zM54.0609008 84.0109695L55.535145 86.0407328 54.656 86.0407328 53.2958397 84.0915267 53.1663893 84.0915267 53.1663893 86.0407328 52.4474275 86.0407328 52.4474275 81.278542 53.2897863 81.278542C53.9188779 81.278542 54.3733511 81.3968168 54.6527405 81.6329008 54.961 81.896458 55.1155954 82.2438321 55.1155954 82.6754885 55.1155954 83.0126183 55.0192061 83.3027176 54.8254962 83.5453206 54.6322519 83.7879237 54.377542 83.9429847 54.0609008 84.0109695L54.0609008 84.0109695zM57.1461969 85.3651229L57.4698229 85.3651229C57.7929832 85.3651229 58.0611969 85.3311305 58.2749298 85.2631458 58.4891282 85.1914359 58.6823725 85.0773519 58.8546626 84.9208939 59.2085557 84.5981992 59.3855023 84.1777183 59.3855023 83.6594511 59.3855023 83.1369931 59.210884 82.7137183 58.8611817 82.3886954 58.5464031 82.0985962 58.0826168 81.9537794 57.4698229 81.9537794L57.1461969 81.9537794 57.1461969 85.3651229zM56.4272351 86.0407794L56.4272351 81.2785885 57.4269832 81.2785885C57.9061359 81.2785885 58.2842427 81.3256191 58.5617695 81.4201458 58.8602504 81.5128099 59.1303267 81.6701992 59.3729298 81.8923137 59.864655 82.3402679 60.1100519 82.9297794 60.1100519 83.6594511 60.1100519 84.3914511 59.853945 84.9837565 59.3421969 85.4359015 59.0851588 85.6622069 58.8160137 85.8195962 58.5338305 85.9080695 58.2707389 85.9965427 57.8977542 86.0407794 57.4144107 86.0407794L56.4272351 86.0407794zM60.8095496.465835115L60.8095496 76.293026 59.9704504 76.293026C54.3654351 76.293026 48.7604198 76.2972168 43.1554046 76.2902321 41.254626 76.2883695 39.352916 76.2366824 37.4521374 76.2562397 36.897084 76.2613618 36.6940611 76.0420412 36.520374 75.5507817 31.9924046 62.7524229 18.185916 23.8483924 15.8236794 17.190545 15.7431221 16.963774 15.6430076 16.7439878 15.4725802 16.3258351 10.3155191 30.9933084 5.2250458 45.4694.134572519 59.9464229.0982519084 59.9389725.0614656489 59.9310565.0251450382 59.9236061L.0251450382.465835115 60.8095496.465835115z"/>
    <path d="M5.36734809,64.5480115 C5.50424885,60.628645 6.42716489,56.9290649 7.6206229,53.2890878 C8.54772977,50.460271 9.63501985,47.6910573 11.3118214,45.2086832 C11.8938824,44.3467672 12.5648824,43.5090649 13.3369282,42.8194389 C14.8754321,41.4457748 16.437684,41.535645 17.9556992,42.9270038 C19.3065466,44.1646985 20.2592641,45.6938893 21.0448137,47.3152786 C23.5462794,52.482584 25.2240122,57.9032023 25.6053786,63.6511718 C25.7059588,65.1663931 25.4936229,66.7528588 25.1355389,68.2368817 C24.5427679,70.6945763 22.8650351,72.3262099 20.4934855,73.1322481 C17.3810885,74.1902023 14.196516,74.2181412 11.0529206,73.299416 C7.69047023,72.3168969 5.74079847,69.7842328 5.46979084,66.2834847 C5.42322595,65.6855916 5.39808092,65.0863015 5.36734809,64.5480115"/>
  </g>
</svg>
