<svg class="svg-award--beer-1" xmlns="http://www.w3.org/2000/svg" viewBox="0 0 63 93" data-inview="short">
  <g fill-rule="evenodd">
    <path d="M0,92.1418537 L62.5943415,92.1418537 L62.5943415,0.512195122 L0,0.512195122 L0,92.1418537 Z M2.04007317,90.1007561 L60.5542683,90.1007561 L60.5542683,2.55329268 L2.04007317,2.55329268 L2.04007317,90.1007561 Z"/>
    <path d="M7.22712439,63.8899902 C8.60492927,63.8899902 9.75788049,63.6963805 10.7920024,62.7226976 C11.7201,61.8529902 12.1995146,60.6703317 12.1995146,59.4113561 C12.1995146,58.1236976 11.7052463,56.8795756 10.7310512,56.0267707 C9.69795366,55.1130146 8.5598561,54.9332341 7.22712439,54.9332341 L6.3128561,54.9332341 L6.3128561,63.8899902 L7.22712439,63.8899902 Z M5.05541707,53.7649171 L7.18256341,53.7649171 C8.8743439,53.7649171 10.252661,53.9897707 11.5859049,55.1273561 C12.8735634,56.2357463 13.457978,57.7492829 13.457978,59.426722 C13.457978,61.0734293 12.8587098,62.527039 11.6156122,63.6359415 C10.2675146,64.8334537 8.91992927,65.0583073 7.1523439,65.0583073 L5.05541707,65.0583073 L5.05541707,53.7649171 Z"/>
    <polygon points="15.213 53.765 21.069 53.765 21.069 54.933 16.471 54.933 16.471 58.289 20.934 58.289 20.934 59.457 16.471 59.457 16.471 63.89 21.069 63.89 21.069 65.059 15.213 65.059"/>
    <path d="M28.3356585,55.9669976 C27.8864634,55.1869244 27.3466098,54.7387537 26.3882927,54.7387537 C25.3849024,54.7387537 24.5162195,55.4578756 24.5162195,56.4909732 C24.5162195,57.4641439 25.5190976,57.9138512 26.2832927,58.2585585 L27.0326341,58.5884122 C28.5000732,59.2312171 29.7436829,59.9662171 29.7436829,61.7629976 C29.7436829,63.7410951 28.155878,65.2525829 26.1931463,65.2525829 C24.381,65.2525829 23.0329024,64.0852902 22.6733415,62.3330707 L23.9020976,61.987339 C24.0670244,63.1413146 24.9510732,64.0852902 26.163439,64.0852902 C27.3763171,64.0852902 28.4852195,63.1571927 28.4852195,61.8843878 C28.4852195,60.5654854 27.4516098,60.115778 26.4031463,59.6363634 L25.7142439,59.3372415 C24.3958537,58.7379732 23.2577561,58.0634122 23.2577561,56.4453878 C23.2577561,54.6936805 24.7400488,53.5709488 26.4185122,53.5709488 C27.6764634,53.5709488 28.7392683,54.2137537 29.3385366,55.3226561 L28.3356585,55.9669976 Z"/>
    <polygon points="31.617 65.059 32.876 65.059 32.876 53.765 31.617 53.765"/>
    <path d="M45.667778,59.3822634 C45.6979976,60.9091171 45.5330707,62.1670683 44.499461,63.3656049 C43.4658512,64.5646537 41.8939244,65.2525317 40.3209732,65.2525317 C37.1453634,65.2525317 34.5096073,62.6172878 34.5096073,59.4411659 C34.5096073,56.2056293 37.1453634,53.5708976 40.3957537,53.5708976 C42.3728268,53.5708976 43.9765098,54.4544341 45.1729976,56.0115073 L44.2597537,56.8648244 C43.3162902,55.5336293 42.0434854,54.7387024 40.3803878,54.7387024 C37.8040463,54.7387024 35.7675585,56.9098976 35.7675585,59.4570439 C35.7675585,60.6545561 36.2469732,61.793678 37.0854366,62.6469951 C37.9100707,63.4706049 39.1070707,64.085239 40.2907537,64.085239 C42.2529732,64.085239 44.3201927,62.6469951 44.3201927,60.5495561 L40.9642902,60.5495561 L40.9642902,59.3822634 L45.667778,59.3822634 Z"/>
    <polygon points="47.528 53.285 56.335 62.512 56.335 53.765 57.593 53.765 57.593 65.567 48.787 56.357 48.787 65.059 47.528 65.059"/>
    <polygon points="9.564 16.1 9.591 16.1 11.744 9.463 13.87 9.463 15.887 16.1 15.914 16.1 17.849 9.463 20.629 9.463 17.344 19.738 14.619 19.738 12.82 13.783 12.793 13.783 10.776 19.738 8.064 19.738 4.999 9.463 7.779 9.463"/>
    <path d="M35.236822,14.0692829 L35.4954805,14.0692829 C36.3672366,14.0692829 37.3486024,13.9058927 37.3486024,12.7887951 C37.3486024,11.6706732 36.3672366,11.5072829 35.4954805,11.5072829 L35.236822,11.5072829 L35.236822,14.0692829 Z M41.1096512,19.7382585 L37.7849927,19.7382585 L35.2639683,15.786161 L35.236822,15.786161 L35.236822,19.7382585 L32.5652122,19.7382585 L32.5652122,9.4631122 L36.5582854,9.4631122 C38.5886268,9.4631122 40.1287976,10.4306488 40.1287976,12.6248927 C40.1287976,14.0416244 39.3384805,15.2683317 37.880261,15.5275024 L41.1096512,19.7382585 Z"/>
    <polygon points="44.776 17.476 47.979 17.476 47.979 19.738 42.105 19.738 42.105 9.463 44.776 9.463"/>
    <path d="M51.5209902 17.4758415L52.1202585 17.4758415C53.714722 17.4758415 55.077161 16.6035732 55.077161 14.600378 55.077161 12.7610854 53.8642829 11.7254268 52.1479171 11.7254268L51.5209902 11.7254268 51.5209902 17.4758415zM48.8498927 9.46306098L52.6386 9.46306098C55.5002341 9.46306098 57.8573561 11.7121098 57.8573561 14.600378 57.8573561 17.4896707 55.4858927 19.7382073 52.6386 19.7382073L48.8498927 19.7382073 48.8498927 9.46306098zM10.9995439 34.2822439L11.5573244 34.2822439C12.8501049 34.2822439 15.0346171 34.3488293 15.0346171 32.4987805 15.0346171 30.4694634 12.8721293 30.6702439 11.4451537 30.6702439L10.9995439 30.6702439 10.9995439 34.2822439zM10.9995439 27.4157561L11.4902268 27.4157561C12.6493244 27.4157561 13.8529829 27.2149756 13.8529829 25.788 13.8529829 24.249878 12.4931049 24.1602439 11.3114707 24.1602439L10.9995439 24.1602439 10.9995439 27.4157561zM6.62949512 37.6263659L6.62949512 20.816122 12.8721293 20.816122C15.8597634 20.816122 17.8655195 21.9757317 17.8655195 25.1861707 17.8655195 26.7017561 17.3753488 27.9284634 16.0154707 28.6189024L16.0154707 28.6634634C18.4238122 28.9759024 19.4492268 30.6031463 19.4492268 32.9443902 19.4492268 36.4672683 16.4390561 37.6263659 13.3623 37.6263659L6.62949512 37.6263659z"/>
    <polygon points="25.2 24.517 25.2 27.326 30.128 27.326 30.128 31.027 25.2 31.027 25.2 33.925 30.395 33.925 30.395 37.627 20.83 37.627 20.83 20.816 30.395 20.816 30.395 24.517"/>
    <polygon points="36.57 24.517 36.57 27.326 41.498 27.326 41.498 31.027 36.57 31.027 36.57 33.925 41.765 33.925 41.765 37.627 32.2 37.627 32.2 20.816 41.765 20.816 41.765 24.517"/>
    <path d="M47.9401317 28.3519463L48.3637171 28.3519463C49.7901805 28.3519463 51.3959122 28.0845805 51.3959122 26.2560439 51.3959122 24.4280195 49.7901805 24.1601415 48.3637171 24.1601415L47.9401317 24.1601415 47.9401317 28.3519463zM57.5494244 37.6262634L52.1099122 37.6262634 47.9852049 31.1608244 47.9401317 31.1608244 47.9401317 37.6262634 43.5705951 37.6262634 43.5705951 20.8165317 50.1036439 20.8165317C53.4247171 20.8165317 55.9442049 22.3987024 55.9442049 25.9881659 55.9442049 28.3073854 54.6514244 30.3136537 52.2656195 30.737239L57.5494244 37.6262634zM9.8676439 41.5675024L9.84408293 41.5675024 8.88269268 44.4163317 10.8172537 44.4163317 9.8676439 41.5675024zM8.24142439 46.196722L7.62422927 47.7517463 5.15544878 47.7517463 8.5974 38.802161 11.1373756 38.802161 14.5091561 47.7517463 12.0280829 47.7517463 11.4462293 46.196722 8.24142439 46.196722z"/>
    <polygon points="17.084 44.582 17.108 44.582 18.983 38.802 20.835 38.802 22.592 44.582 22.616 44.582 24.301 38.802 26.722 38.802 23.862 47.751 21.489 47.751 19.921 42.565 19.897 42.565 18.141 47.751 15.779 47.751 13.108 38.802 15.53 38.802"/>
    <path d="M29.7841976 41.5675024L29.7606366 41.5675024 28.7992463 44.4163317 30.7343195 44.4163317 29.7841976 41.5675024zM28.157978 46.196722L27.5412951 47.7517463 25.0725146 47.7517463 28.5144659 38.802161 31.0544415 38.802161 34.426222 47.7517463 31.9446366 47.7517463 31.3627829 46.196722 28.157978 46.196722zM37.476139 42.8137244L37.7009927 42.8137244C38.460578 42.8137244 39.3154317 42.6713341 39.3154317 41.6981634 39.3154317 40.7249927 38.460578 40.5831146 37.7009927 40.5831146L37.476139 40.5831146 37.476139 42.8137244zM42.5909195 47.7517976L39.6954805 47.7517976 37.4997 44.3098463 37.476139 44.3098463 37.476139 47.7517976 35.1492366 47.7517976 35.1492366 38.8017 38.6270415 38.8017C40.3956512 38.8017 41.736578 39.6447732 41.736578 41.5557732 41.736578 42.7906756 41.0481878 43.8586024 39.7784561 44.0834561L42.5909195 47.7517976zM45.5472073 45.7813317L46.0696463 45.7813317C47.4571829 45.7813317 48.6449634 45.0212341 48.6449634 43.2766976 48.6449634 41.6745512 47.5888171 40.7720634 46.0926951 40.7720634L45.5472073 40.7720634 45.5472073 45.7813317zM43.2203049 38.802161L46.520378 38.802161C49.0127195 38.802161 51.0655976 40.7602829 51.0655976 43.2766976 51.0655976 45.7931122 49.000939 47.7517463 46.520378 47.7517463L43.2203049 47.7517463 43.2203049 38.802161zM56.585422 41.1048366C56.1587634 40.748861 55.6122512 40.5112024 55.042178 40.5112024 54.6155195 40.5112024 54.0459585 40.7606415 54.0459585 41.2590073 54.0459585 41.7814463 54.6749341 41.982739 55.0780317 42.1133488L55.6716659 42.2915927C56.9178366 42.659861 57.8787146 43.2888366 57.8787146 44.7368122 57.8787146 45.6270073 57.6651293 46.5407634 56.9536902 47.146178 56.2535195 47.7398122 55.3156902 47.988739 54.4137146 47.988739 53.285861 47.988739 52.1820805 47.6092024 51.2683244 46.9679341L52.2655683 45.0927878C52.8469098 45.6034463 53.5347878 46.0183244 54.330739 46.0183244 54.8762268 46.0183244 55.4575683 45.7458366 55.4575683 45.116861 55.4575683 44.4638122 54.5443244 44.2384463 54.0459585 44.0955439 52.585178 43.6806659 51.6232756 43.3006171 51.6232756 41.567861 51.6232756 39.7516171 52.9181049 38.564861 54.7102756 38.564861 55.6122512 38.564861 56.7165439 38.8496415 57.5114707 39.3008854L56.585422 41.1048366z"/>
    <polygon points="5.059 51.818 57.615 51.818 57.615 49.755 5.059 49.755"/>
    <polygon points="5.059 7.555 57.615 7.555 57.615 5.492 5.059 5.492"/>
    <path d="M26.8630976,16.8698634 L25.5703171,16.8698634 L27.6390732,13.3336683 L25.7444634,13.3336683 L25.7444634,12.3348878 L29.4676098,12.3348878 L26.8630976,16.8698634 Z M24.6483659,16.8698634 L23.4692927,16.8698634 L23.4692927,13.3316195 L22.8188049,13.3316195 L22.8188049,12.332839 L24.6483659,12.332839 L24.6483659,16.8698634 Z M25.9903171,9.14954634 C23.0267561,9.14954634 20.2952195,11.3350829 20.2952195,14.4492293 C20.2952195,17.7805463 22.685122,20.1294732 25.9903171,20.1294732 C29.2939756,20.1294732 31.683878,17.7805463 31.683878,14.4492293 C31.683878,11.3350829 28.9528537,9.14954634 25.9903171,9.14954634 L25.9903171,9.14954634 Z"/>
    <polygon points="8.973 82.506 12.264 74.36 15.555 82.506 18.225 74.886 19.453 74.886 15.555 85.582 12.264 77.395 8.973 85.582 5.075 74.886 6.302 74.886"/>
    <polygon points="20.668 85.056 21.801 85.056 21.801 74.886 20.668 74.886"/>
    <polygon points="23.392 74.454 31.323 82.763 31.323 74.886 32.456 74.886 32.456 85.514 24.525 77.219 24.525 85.056 23.392 85.056"/>
    <polygon points="34.102 74.454 42.033 82.763 42.033 74.886 43.166 74.886 43.166 85.514 35.235 77.219 35.235 85.056 34.102 85.056"/>
    <polygon points="44.745 74.886 50.018 74.886 50.018 75.938 45.878 75.938 45.878 78.959 49.898 78.959 49.898 80.011 45.878 80.011 45.878 84.004 50.018 84.004 50.018 85.056 44.745 85.056"/>
    <path d="M52.8110049 79.5929707L53.1618585 79.5929707C54.4433707 79.5929707 55.7376878 79.3501902 55.7376878 77.7721171 55.7376878 76.0998 54.5104683 75.9379463 53.1480293 75.9379463L52.8110049 75.9379463 52.8110049 79.5929707zM52.8110049 85.0555317L51.6780293 85.0555317 51.6780293 74.8858976 53.1480293 74.8858976C55.0769561 74.8858976 56.8706634 75.3986049 56.8706634 77.6911902 56.8706634 79.2559463 55.8862244 80.3617756 54.3214683 80.4964829L57.5590537 85.0555317 56.1694683 85.0555317 53.0942488 80.591239 52.8110049 80.591239 52.8110049 85.0555317zM8.90779024 68.6190366C8.48113171 68.1780366 7.89057073 67.9075976 7.27235122 67.9075976 6.0768878 67.9075976 5.10986341 68.9458171 5.10986341 70.126939 5.10986341 71.3075488 6.08405854 72.3457683 7.28618049 72.3457683 7.89057073 72.3457683 8.48113171 72.0615 8.90779024 71.6348415L8.90779024 72.3744512C8.44579024 72.7084024 7.87622927 72.9004756 7.30769268 72.9004756 5.79261951 72.9004756 4.51213171 71.6701829 4.51213171 70.147939 4.51213171 68.6118659 5.77110732 67.3528902 7.30769268 67.3528902 7.9049122 67.3528902 8.43093659 67.5234512 8.90779024 67.8794268L8.90779024 68.6190366z"/>
    <polygon points="13.316 72.253 13.316 72.808 9.476 72.808 12.399 68 9.846 68 9.846 67.445 13.395 67.445 10.465 72.253"/>
    <polygon points="14.084 67.445 16.865 67.445 16.865 68 14.682 68 14.682 69.593 16.801 69.593 16.801 70.148 14.682 70.148 14.682 72.253 16.865 72.253 16.865 72.809 14.084 72.809"/>
    <path d="M21.8291927,68.6190366 C21.4025341,68.1780366 20.8124854,67.9075976 20.1937537,67.9075976 C18.9982902,67.9075976 18.0312659,68.9458171 18.0312659,70.126939 C18.0312659,71.3075488 19.005461,72.3457683 20.2075829,72.3457683 C20.8124854,72.3457683 21.4025341,72.0615 21.8291927,71.6348415 L21.8291927,72.3744512 C21.3671927,72.7084024 20.7976317,72.9004756 20.2290951,72.9004756 C18.714022,72.9004756 17.4335341,71.6701829 17.4335341,70.147939 C17.4335341,68.6118659 18.6925098,67.3528902 20.2290951,67.3528902 C20.8263146,67.3528902 21.352339,67.5234512 21.8291927,67.8794268 L21.8291927,68.6190366 Z"/>
    <polygon points="26.067 69.622 26.067 67.445 26.665 67.445 26.665 72.809 26.067 72.809 26.067 70.176 23.322 70.176 23.322 72.809 22.725 72.809 22.725 67.445 23.322 67.445 23.322 69.622"/>
    <path d="M30.2769293,69.9275415 L30.4618317,69.9275415 C31.1379293,69.9275415 31.8206854,69.7994927 31.8206854,68.9676878 C31.8206854,68.0856878 31.1732707,68.0001512 30.4551732,68.0001512 L30.2769293,68.0001512 L30.2769293,69.9275415 Z M30.2769293,72.8081268 L29.6797098,72.8081268 L29.6797098,67.4454439 L30.4551732,67.4454439 C31.4718805,67.4454439 32.4179049,67.7158829 32.4179049,68.9246634 C32.4179049,69.7498098 31.898539,70.3332 31.0739049,70.4038829 L32.780539,72.8081268 L32.0481,72.8081268 L30.4264902,70.4535659 L30.2769293,70.4535659 L30.2769293,72.8081268 Z"/>
    <polygon points="33.534 67.445 36.315 67.445 36.315 68 34.131 68 34.131 69.593 36.251 69.593 36.251 70.148 34.131 70.148 34.131 72.253 36.315 72.253 36.315 72.809 33.534 72.809"/>
    <path d="M37.7867854 69.9062854L38.184761 69.9062854C38.8465171 69.9062854 39.4083951 69.7070415 39.4083951 68.9387488 39.4083951 68.0644317 38.7041268 68.0004073 38.0075415 68.0004073L37.7867854 68.0004073 37.7867854 69.9062854zM37.7867854 72.8083829L37.1890537 72.8083829 37.1890537 67.4451878 38.0715659 67.4451878C38.5335659 67.4451878 39.0104195 67.4595293 39.4012244 67.7299683 39.7997122 68.0070659 40.0056146 68.4767488 40.0056146 68.9530902 40.0056146 69.3869195 39.8278829 69.8279195 39.4939317 70.1055293 39.1307854 70.404139 38.6687854 70.4609927 38.2206146 70.4609927L37.7867854 70.4609927 37.7867854 72.8083829zM41.2070707 70.6388268C41.2070707 71.0368024 41.1932415 71.4926561 41.4416561 71.833778 41.6767537 72.1610707 42.1320951 72.3459732 42.5229 72.3459732 42.9070463 72.3459732 43.3270463 72.1677293 43.575461 71.8691195 43.8602415 71.5279976 43.8387293 71.0588268 43.8387293 70.6388268L43.8387293 67.4452902 44.436461 67.4452902 44.436461 70.8027293C44.436461 71.3856073 44.3939488 71.8481195 43.966778 72.2891195 43.5969732 72.6876073 43.063778 72.9006805 42.5229 72.9006805 42.0183878 72.9006805 41.4985098 72.7091195 41.1358756 72.3531439 40.6667049 71.9049732 40.6098512 71.4142902 40.6098512 70.8027293L40.6098512 67.4452902 41.2070707 67.4452902 41.2070707 70.6388268zM45.9508683 72.2534195L46.5480878 72.2534195C47.2170146 72.2534195 47.9207707 72.0900293 47.9207707 71.2720537 47.9207707 70.4397366 47.1243073 70.3188585 46.4702341 70.3188585L45.9508683 70.3188585 45.9508683 72.2534195zM45.9508683 69.8066634L46.1777707 69.8066634C46.8538683 69.8066634 47.4300878 69.7282976 47.4300878 68.8959805 47.4300878 68.0851756 46.9178927 68.0001512 46.1854537 68.0001512L45.9508683 68.0001512 45.9508683 69.8066634zM45.3531366 67.4454439L46.2351366 67.4454439C47.2093317 67.4454439 48.0278195 67.8009073 48.0278195 68.8959805 48.0278195 69.3298098 47.8639171 69.7001268 47.5007707 69.9418829 48.1410146 70.0981024 48.5185024 70.674322 48.5185024 71.3145659 48.5185024 72.3814683 47.6575024 72.8081268 46.5982829 72.8081268L45.3531366 72.8081268 45.3531366 67.4454439z"/>
    <polygon points="49.99 72.253 51.469 72.253 51.469 72.808 49.392 72.808 49.392 67.445 49.99 67.445"/>
    <polygon points="52.074 72.808 52.671 72.808 52.671 67.445 52.074 67.445"/>
    <path d="M57.8483927,68.6190366 C57.4217341,68.1780366 56.8316854,67.9075976 56.2129537,67.9075976 C55.0180024,67.9075976 54.0504659,68.9458171 54.0504659,70.126939 C54.0504659,71.3075488 55.024661,72.3457683 56.2267829,72.3457683 C56.8316854,72.3457683 57.4217341,72.0615 57.8483927,71.6348415 L57.8483927,72.3744512 C57.3863927,72.7084024 56.8168317,72.9004756 56.2482951,72.9004756 C54.733222,72.9004756 53.4527341,71.6701829 53.4527341,70.147939 C53.4527341,68.6118659 54.7117098,67.3528902 56.2482951,67.3528902 C56.8455146,67.3528902 57.3720512,67.5234512 57.8483927,67.8794268 L57.8483927,68.6190366 Z"/>
  </g>
</svg>
