<svg class="svg-award--zlatystrednik" xmlns="http://www.w3.org/2000/svg" viewBox="0 0 123 63">
  <g fill-rule="evenodd">
    <path d="M13.3123782,4.17554507 C10.3543852,4.17554507 8.01673028,5.07460141 6.16656127,6.92260141 C4.32181479,8.77168592 3.42438521,11.1060873 3.42438521,14.0651648 C3.42438521,17.0990732 4.32181479,19.4725169 6.16818803,21.3199746 C8.01673028,23.1668901 10.3543852,24.064862 13.3123782,24.064862 C16.3473711,24.064862 18.7197303,23.1668901 20.5677303,21.3199746 C22.4168148,19.4725169 23.3126176,17.0990732 23.3126176,14.0651648 C23.3126176,11.1060873 22.4168148,8.77005915 20.5677303,6.92260141 C18.7197303,5.07460141 16.3473711,4.17554507 13.3123782,4.17554507 Z M13.3123782,26.6975028 C9.67168803,26.6975028 6.64320211,25.5143056 4.3077162,23.1809887 C1.97602606,20.8460451 0.79228662,17.7806859 0.79228662,14.0651648 C0.79228662,10.4244746 1.97602606,7.39598873 4.3077162,5.06050282 C6.64157535,2.72827042 9.67168803,1.54344648 13.3123782,1.54344648 C17.0278993,1.54344648 20.0948852,2.72827042 22.4276599,5.06050282 L22.4287444,5.06050282 C24.761519,7.39490423 25.9441739,10.4228479 25.9441739,14.0651648 C25.9441739,17.7806859 24.761519,20.8476718 22.4287444,23.1809887 C20.0948852,25.5143056 17.0278993,26.6975028 13.3123782,26.6975028 Z M3.94277958,59.4637141 L14.0650261,59.4637141 L20.6772655,49.5046859 C22.4976106,46.7484113 23.4221528,44.0376859 23.4221528,41.4478831 C23.4221528,38.3613761 22.5024908,36.0177563 20.6116528,34.2852563 C18.6844838,32.5245592 16.3674345,31.6672563 13.5292796,31.6672563 C10.5669486,31.6672563 8.21302606,32.5684817 6.32652606,34.4246155 C4.4465331,36.2639394 3.53500493,38.5977986 3.53500493,41.5595873 C3.53500493,44.8071437 4.7241669,47.2651789 7.16973028,49.0714254 L7.99775141,49.6820028 L3.94277958,59.4637141 Z M15.476512,62.0958127 L5.42253521e-05,62.0958127 L4.79628662,50.5371366 C2.21190634,48.2884113 0.903990845,45.2734817 0.903990845,41.5595873 C0.903990845,37.9053408 2.10887817,34.8725169 4.48286408,32.5446225 C6.8498007,30.2172704 9.89292746,29.0367845 13.5292796,29.0367845 C17.0051246,29.0367845 19.9848077,30.1484042 22.3875331,32.342362 L22.3891599,32.342362 C24.8200824,34.5715662 26.0526246,37.6358408 26.0526246,41.4478831 C26.0526246,44.5609606 24.9822162,47.7607986 22.8712232,50.9573831 L15.476512,62.0958127 Z"/>
    <polygon points="42.52 15.189 48.1 15.189 48.1 17.221 38.604 17.221 44.476 7.16 39.528 7.16 39.528 5.131 48.392 5.131"/>
    <polygon points="53.252 5.131 53.252 15.189 56.987 15.189 56.987 17.221 50.896 17.221 50.896 5.131"/>
    <path d="M66.1969915,12.7618824 L64.4742521,8.4124669 L62.7520549,12.7618824 L66.1969915,12.7618824 Z M66.8856535,14.6836289 L62.0102521,14.6836289 L60.9398437,17.2213754 L58.3836606,17.2213754 L63.5860408,5.13074859 L65.4356676,5.13074859 L70.4921817,17.2213754 L67.9544352,17.2213754 L66.8856535,14.6836289 Z"/>
    <polygon points="75.825 7.16 75.825 17.221 73.467 17.221 73.467 7.16 70.749 7.16 70.749 5.131 78.545 5.131 78.545 7.16"/>
    <path d="M83.8382338 3.11730704L86.3759803.54214507 88.0065366 1.81264507 84.8538746 4.02449718 83.8382338 3.11730704zM84.0551352 11.691962L79.905269 5.13069437 82.6957056 5.13069437 85.2882197 9.33641268 87.879107 5.13069437 90.6711704 5.13069437 86.4106845 11.691962 86.4106845 17.2207789 84.0551352 17.2207789 84.0551352 11.691962zM45.5288359 29.6427225C44.8201106 28.6981169 43.9866669 28.6086451 43.5523218 28.6086451 42.2829063 28.6086451 41.8832655 29.4063 41.8832655 30.0217577 41.8832655 30.3129479 41.9705683 30.5857014 42.2655542 30.8394761 42.5551176 31.1100606 42.9498782 31.2543 43.7160824 31.5275958 44.658519 31.8529479 45.5456458 32.1788423 46.162188 32.7427859 46.7066106 33.2308141 47.1913852 34.0474479 47.1913852 35.2794479 47.1913852 37.6349972 45.4903359 39.2487437 42.9910894 39.2487437 40.7608007 39.2487437 39.4561387 37.8887718 38.8211599 36.9647718L40.3617021 35.4963493C40.9413711 36.6741239 42.0486528 37.1100958 42.8989063 37.1100958 43.9682303 37.1100958 44.7669697 36.4572225 44.7669697 35.4426662 44.7669697 35.0072366 44.6216458 34.6629056 44.2946669 34.3538211 43.843512 33.9379127 43.1179768 33.7020324 42.427688 33.4661521 41.7932514 33.2503352 41.0313852 32.9586028 40.4164697 32.4147225 40.0130331 32.0703915 39.4561387 31.4001662 39.4561387 30.1676239 39.4561387 28.3912014 40.65235 26.6131521 43.3348782 26.6131521 44.0951176 26.6131521 45.5288359 26.7595606 46.7602937 28.0295183L45.5288359 29.6427225z"/>
    <polygon points="53.614 28.916 53.614 38.977 51.258 38.977 51.258 28.916 48.539 28.916 48.539 26.887 56.334 26.887 56.334 28.916"/>
    <path d="M60.9031331,32.4508908 L61.5728162,32.4508908 C62.0272246,32.4508908 63.8936613,32.3972077 63.8936613,30.620243 C63.8936613,28.8264683 62.0456613,28.8074894 61.6113162,28.8074894 L60.9031331,28.8074894 L60.9031331,32.4508908 Z M64.23745,22.1193345 L65.3268373,23.2802993 L62.0640979,25.7074261 L58.8013585,23.2802993 L59.8923725,22.1193345 L62.0640979,23.7141021 L64.23745,22.1193345 Z M62.0456613,26.8862852 C63.7130908,26.8862852 64.5649711,27.3227993 65.1278303,27.7923908 C66.0518303,28.5710669 66.3240415,29.6067711 66.3240415,30.5123345 C66.3240415,31.6901092 65.8511965,32.7231021 64.9093021,33.358081 C64.6013021,33.5760669 64.1658725,33.7745317 63.5856613,33.8829824 L67.3564923,38.9763697 L64.4196472,38.9763697 L61.193781,34.1172359 L60.9031331,34.1172359 L60.9031331,38.9763697 L58.5470415,38.9763697 L58.5470415,26.8862852 L62.0456613,26.8862852 Z"/>
    <polygon points="76.386 28.916 72.036 28.916 72.036 31.618 76.204 31.618 76.204 33.648 72.036 33.648 72.036 36.947 76.386 36.947 76.386 38.977 69.678 38.977 69.678 26.887 76.386 26.887"/>
    <path d="M81.7534317,36.9467148 L82.4767979,36.9467148 C83.075988,36.9467148 84.3811923,36.9098415 85.4320796,36.1496021 C86.3929528,35.4598556 86.9373754,34.2289401 86.9373754,32.9394613 C86.9373754,31.6722148 86.4108472,30.4402148 85.4499739,29.7146796 C84.4717486,28.9891444 83.2755373,28.9159401 82.4767979,28.9159401 L81.7534317,28.9159401 L81.7534317,36.9467148 Z M82.5505444,26.8862852 C84.2358683,26.8862852 85.7042908,27.0657711 87.0458261,28.0640599 C88.5142486,29.1697148 89.3661289,30.9287852 89.3661289,32.9394613 C89.3661289,34.9517641 88.5310585,36.6923979 86.9373754,37.8164894 C85.5220937,38.8142359 84.1995373,38.9763697 82.5131289,38.9763697 L79.3962556,38.9763697 L79.3962556,26.8862852 L82.5505444,26.8862852 Z"/>
    <polygon points="92.27 38.976 92.27 26.886 93.9 26.886 101.261 34.952 101.261 26.886 103.616 26.886 103.616 38.976 101.986 38.976 94.625 30.893 94.625 38.976"/>
    <path d="M107.100585,38.9766408 L109.456676,38.9766408 L109.456676,26.8865563 L107.100585,26.8865563 L107.100585,38.9766408 Z M111.016739,23.7143732 L107.970901,25.7803592 L106.990507,24.9100423 L109.456676,22.481831 L111.016739,23.7143732 Z"/>
    <polygon points="115.295 31.998 119.737 26.885 122.709 26.885 117.597 32.469 122.98 38.976 119.863 38.976 115.567 33.557 115.295 33.829 115.295 38.976 112.938 38.976 112.938 26.885 115.295 26.885"/>
    <path d="M42.0841704 56.690762C42.3010718 56.4386141 43.7163535 54.8248676 44.1506986 54.1714521 44.476593 53.6817972 44.8572549 52.9372831 44.8572549 52.2318113 44.8572549 51.1440507 44.0774944 50.4011634 43.062938 50.4011634 41.8298535 50.4011634 41.178607 51.379931 41.1417338 52.4140085L38.712438 52.4140085C38.8208887 49.9483817 40.560438 48.3693394 42.9528606 48.3693394 45.7628183 48.3693394 47.2128042 50.2927127 47.2128042 52.2150014 47.2128042 54.081438 45.9629099 55.4229732 45.0193887 56.4386141L42.9360507 58.7041493 47.3044451 58.7041493 47.3044451 60.7338042 38.5307831 60.7338042 42.0841704 56.690762zM52.0555077 54.6795437C52.0555077 57.8332901 53.3417331 58.9763606 54.3714725 58.9763606 55.4088035 58.9763606 56.6950289 57.8332901 56.6950289 54.6795437 56.6950289 51.5436915 55.3914514 50.4011634 54.3714725 50.4011634 53.3601697 50.4011634 52.0555077 51.5436915 52.0555077 54.6795437M49.6983317 54.6795437C49.6983317 50.5280507 51.9638669 48.3709662 54.3714725 48.3709662 56.7866697 48.3709662 59.0516627 50.5280507 59.0516627 54.6979803 59.0516627 58.848931 56.7866697 61.0060155 54.3714725 61.0060155 51.9638669 61.0060155 49.6983317 58.848931 49.6983317 54.6795437"/>
    <polygon points="63.133 50.674 61.392 50.674 61.392 48.644 65.491 48.644 65.491 60.734 63.133 60.734"/>
    <polygon points="74.393 50.674 68.774 50.674 68.774 48.644 78.091 48.644 70.821 61.096 68.828 60.207"/>
  </g>
</svg>
