<svg class="svg-award--reddot" xmlns="http://www.w3.org/2000/svg" viewBox="0 0 116 79" data-inview="short">
  <g fill-rule="evenodd">
    <path d="M7.87218904,34.9296658 C7.87218904,34.9296658 16.2885452,36.0443781 25.5693397,31.7150356 C34.8580795,27.3856932 38.6312575,19.9585151 38.6312575,19.9585151 C38.6312575,19.9585151 38.5772301,31.5473918 28.1070384,36.6100767 C16.7199699,42.1137205 7.87218904,34.9296658 7.87218904,34.9296658 Z"/>
    <path d="M23.0999699 31.0979315C23.0999699 31.0979315 26.0675041 29.9212466 27.6152301 28.9948356 29.1589836 28.0676301 32.9424904 25.1604795 32.9424904 25.1604795 32.9424904 25.1604795 30.3992301 25.1604795 27.4277233 27.0760685 24.460189 28.9948356 23.0999699 31.0979315 23.0999699 31.0979315M35.2288027 17.7307589C35.2288027 17.7307589 35.9708849 18.1018 36.4023096 18.5959918 36.8337342 19.0917726 37.2675425 19.8966219 37.2675425 19.8966219 37.2675425 19.8966219 37.8856795 18.7827041 38.1367479 18.0398274 38.3838438 17.2977452 38.507789 16.6804027 38.507789 16.6804027L38.0731863 14.5773068 37.3914877 14.0211425C37.3914877 14.0211425 37.0840082 15.1954438 36.4626932 16.1234438 35.8469397 17.0514438 35.2288027 17.7307589 35.2288027 17.7307589M36.8334164 11.2298329C36.8334164 11.2298329 36.7094712 12.8450932 36.4019918 13.8962438 36.0905397 14.948189 33.2501288 20.8927918 22.7886767 26.026189 12.3311973 31.1595863 4.65374521 28.9333397 2.79536164 28.4383534 2.34486849 28.3167918 2.18040274 28.0045452 2.18040274 28.0045452 2.18040274 28.0045452 1.19122466 26.2732849 1.12766301 25.8394767 1.06727945 25.4080521.697032877 24.4093397.697032877 24.4093397.697032877 24.4093397 1.93330685 25.0997781 3.66138904 25.4692301 5.3958274 25.8394767 12.6386767 26.2033671 21.9226493 21.5649562 31.208211 16.9257507 34.2393068 10.7960247 34.2393068 10.7960247 34.2393068 10.7960247 34.9178274 8.81846301 34.9178274 8.4466274L34.9178274 7.88887397C34.9178274 7.88887397 35.7234712 9.18791507 35.9705671 9.49777808 36.2184575 9.80684658 36.8334164 11.2298329 36.8334164 11.2298329"/>
    <path d="M14.680674 23.4207973C14.680674 23.4207973 19.5733315 21.9986055 23.9010849 19.2781671 28.2304274 16.5553452 31.8264274 12.7138384 31.8264274 12.7138384 31.8264274 12.7138384 27.0640712 12.8449342 22.046674 16.4941671 17.0300712 20.1434 14.680674 23.4207973 14.680674 23.4207973M30.4593753 7.33366301C30.4593753 7.33366301 31.6392384 7.27089589 32.3844986 7.51799178 33.1234027 7.76667671 33.9282521 8.13771781 33.9282521 8.13771781 33.9282521 8.13771781 33.9918137 7.82785479 33.9918137 7.45601918 33.9918137 7.0857726 33.868663 6.6527589 33.868663 6.6527589 33.868663 6.6527589 32.7523616 5.35451233 32.3249096 4.98347123 31.8863342 4.61163562 31.1442521 4.05547123 31.1442521 4.05547123 31.1442521 4.05547123 31.1442521 5.04941644 31.084663 5.5388411 30.9607178 6.5288137 30.4593753 7.33366301 30.4593753 7.33366301M29.961211 3.31299178C29.961211 3.31299178 30.5189644 4.36493699 30.0247726 5.53844384 29.5305808 6.71433425 28.0464164 11.6093753 17.4618137 16.4940877 6.87959452 21.3795945 1.74540274 18.7823068 1.74540274 18.7823068 1.74540274 18.7823068.756224658 18.2881151.572690411 18.0402247.385183562 17.7915397.138087671 17.4832658.138087671 17.4832658.138087671 17.4832658.385183562 16.061074.509923288 15.1958411.633073973 14.3298137.880169863 13.5178137.880169863 13.5178137.880169863 13.5178137 1.25121096 14.1438959 2.05685479 14.5157315 2.85932055 14.8859781 5.96033425 15.7599507 9.97822466 14.6388822 14.0016767 13.5178137 19.2026082 11.2295945 22.1097589 8.81822466 25.014526 6.40526575 26.0346904 4.41340274 26.3151562 3.74521096 26.8093479 2.57090959 26.4986904 1.45063562 26.4986904 1.45063562 26.4986904 1.45063562 27.6149918 1.87490959 28.1695671 2.19112877 28.7241425 2.50893699 29.961211 3.31299178 29.961211 3.31299178"/>
    <path d="M25.1382329 3.80837534C25.1382329 3.80837534 24.0314658 6.6527589 19.4502603 9.43596438 14.8674658 12.2183753 9.8580137 13.6485123 9.8580137 13.6485123 9.8580137 13.6485123 11.0203973 11.6630055 15.4196575 8.57073151 19.8213014 5.47686849 25.1382329 3.80837534 25.1382329 3.80837534M7.49820822 24.7184877C7.49820822 24.7184877 8.06311233 23.1111726 8.55730411 22.2459397 9.05229041 21.3791178 10.1646192 19.9585151 10.1646192 19.9585151 10.1646192 19.9585151 8.55094795 20.3287616 7.00322192 20.4511178 5.45629041 20.5758575 4.77697534 20.3891452 4.77697534 20.3891452 4.77697534 20.3891452 4.65382466 20.6982137 4.03250959 21.8121315 3.41675616 22.9260493 3.04333151 24.2242959 3.04333151 24.2242959 3.04333151 24.2242959 3.53752329 24.4705973 5.0884274 24.6573096 6.63218082 24.8424329 7.49820822 24.7184877 7.49820822 24.7184877M.820024658 23.0499151C.820024658 23.0499151 1.0035589 21.9352027 1.19106575 21.3790384 1.3746 20.822874 1.68605205 19.8336959 1.68605205 19.8336959L.0143808219 18.9056959C.0143808219 18.9056959-.0452082192 19.6493671.0779424658 20.6369562.198709589 21.6269288.325832877 22.8020247.325832877 22.8020247L.820024658 23.0499151zM1.3747589 12.404611C1.3747589 12.404611 1.99289589 13.4025288 2.79536164 13.7735699 3.60418356 14.1438164 5.14793699 14.2065836 5.14793699 14.2065836 5.14793699 14.2065836 6.38500548 12.4665836 6.93958082 11.9096247 7.49812877 11.3526658 8.86549863 9.99244658 8.86549863 9.99244658 8.86549863 9.99244658 6.50895068 10.4858438 5.20832055 10.1163918 3.90769041 9.74535068 3.16958082 8.88011781 3.16958082 8.88011781 3.16958082 8.88011781 2.36393699 9.99244658 2.11763562 10.6105836 1.86974521 11.2295151 1.3747589 12.404611 1.3747589 12.404611"/>
    <path d="M3.85143836,7.88927123 C3.85143836,7.88927123 3.90784932,8.50820274 4.28286301,8.69412055 C4.65390411,8.88003836 7.17730137,10.6033534 14.2461507,7.14718904 C20.1915479,4.24003836 20.6229726,1.38850411 20.6229726,1.38850411 C20.6229726,1.38850411 20.6865342,0.769572603 20.4990274,0.46129863 C20.3154932,0.152230137 20.1915479,0.027490411 20.1915479,0.027490411 C20.1915479,0.027490411 19.2595753,-0.0344821918 18.1424795,0.027490411 C17.0301507,0.0902575342 16.2276849,0.274586301 16.2276849,0.274586301 C16.2276849,0.274586301 16.5955479,1.01746301 16.4120137,1.63480548 C16.2276849,2.25373699 14.6807534,3.86979178 12.8859315,4.73581918 C11.0942877,5.6026411 8.79812329,6.09603836 7.93289041,5.84973699 C7.06368493,5.6026411 6.88015068,5.16883288 6.88015068,5.16883288 L6.69264384,4.7985863 C6.69264384,4.7985863 5.70346575,5.72499726 5.20847945,6.21998356 C4.71746575,6.71417534 3.85143836,7.88927123 3.85143836,7.88927123"/>
    <path d="M7.93273151 3.87010959C7.93273151 3.87010959 7.55771781 3.87010959 7.6848411 4.42706849 7.80560822 4.9840274 8.98864932 5.35427397 12.0841014 3.99405479 15.1747863 2.63383562 15.3591151 1.5119726 15.4194986 1.14013699 15.4862384.769890411 14.8013616.707917808 14.8013616.707917808L13.9353342.831068493C13.9353342.831068493 12.4543479 1.31413699 11.0941288 1.9449863 9.6067863 2.63383562 7.93273151 3.87010959 7.93273151 3.87010959M15.1749452 33.447726C15.1749452 33.447726 15.2385068 32.3949863 15.5459863 31.4669863 15.8566438 30.5405753 16.2880685 29.4886301 16.2880685 29.4886301 16.2880685 29.4886301 14.2461507 30.0447945 13.196589 30.2315068 12.1438493 30.4174247 10.7224521 30.6025479 10.7224521 30.6025479 10.7224521 30.6025479 10.5357397 31.3446301 10.4157671 32.1470959 10.2894384 32.9511507 10.2894384 33.8799452 10.2894384 33.8799452 10.2894384 33.8799452 11.4017671 33.8799452 12.3313562 33.8179726 13.2569726 33.7567945 15.1749452 33.447726 15.1749452 33.447726M7.00314247 33.3232247C7.00314247 33.3232247 6.56853973 32.7662658 6.44538904 32.272074 6.32223836 31.7770877 6.19749863 30.6027863 6.19749863 30.6027863 6.19749863 30.6027863 5.08834795 30.2937178 4.65374521 30.2317452 4.22232055 30.1697726 3.04325205 29.6739918 3.04325205 29.6739918 3.04325205 29.6739918 3.78771781 30.6647589 4.1587589 31.2201288 4.53059452 31.7770877 5.45621096 32.7050877 5.45621096 32.7050877L7.00314247 33.3232247zM21.6156466 2.14059726C21.6156466 2.14059726 22.9194548 1.78465205 23.5979753 1.65991233 24.2764959 1.53676164 25.8130986 1.52007671 25.8130986 1.52007671 25.8130986 1.52007671 25.7400027 1.29681644 25.6367151 1.10930959 25.5326329.92180274 25.4261671.827254795 25.4261671.827254795 25.4261671.827254795 24.4401671.570624658 23.6345233.369610959 22.8249068.170980822 21.6720575.0533917808 21.6720575.0533917808 21.6720575.0533917808 21.8460575.417282192 21.8730712.862213699 21.9096192 1.48352877 21.6156466 2.14059726 21.6156466 2.14059726M.730005479 57.5468055L2.11564932 57.5468055 2.11564932 59.0262027 2.14663562 59.0262027C2.19827945 58.8823945 2.27693699 58.7147507 2.38499178 58.5256548 2.49304658 58.3357644 2.63606027 58.1554082 2.81721096 57.9861753 2.99597808 57.8169425 3.21764932 57.6731342 3.47904658 57.5555452 3.74044384 57.4363671 4.05189589 57.3783671 4.41101918 57.3783671L4.41101918 58.8871616C4.10274521 58.8871616 3.80718356 58.9308603 3.52512877 59.0182575 3.24227945 59.1048603 2.99915616 59.2589973 2.79416986 59.4806685 2.58838904 59.7007507 2.42392329 59.9963123 2.3007726 60.3649699 2.17762192 60.7352164 2.11564932 61.2023945 2.11564932 61.7672986L2.11564932 64.8786411.730005479 64.8786411.730005479 57.5468055zM9.44724658 59.7495342C9.44724658 59.6367123 9.42658904 59.5056164 9.38527397 59.3570411 9.34475342 59.2076712 9.27483562 59.0670411 9.17710959 58.9335616 9.07938356 58.8000822 8.94352055 58.6864658 8.76952055 58.5943014 8.59472603 58.502137 8.37305479 58.4560548 8.10689041 58.4560548 7.81927397 58.4560548 7.58330137 58.5069041 7.3989726 58.6093973 7.21384932 58.7126849 7.06527397 58.8366301 6.95245205 58.9796438 6.83883562 59.1234521 6.75938356 59.2672603 6.71409589 59.4110685 6.66721918 59.5548767 6.64417808 59.6676986 6.64417808 59.7495342L9.44724658 59.7495342zM10.6636575 64.8010959C10.3657123 64.8733973 10.0860411 64.9321918 9.82464384 64.978274 9.56324658 65.0243562 9.23113699 65.0473973 8.83069863 65.0473973 7.72154795 65.0473973 6.83883562 64.7089315 6.18256164 64.0312055 5.52469863 63.3534795 5.19576712 62.2967671 5.19576712 60.8586849 5.19576712 60.0673425 5.30620548 59.4444384 5.52708219 58.987589 5.74875342 58.5299452 6.01730137 58.1811507 6.33590411 57.9396164 6.65371233 57.6988767 6.98184932 57.5447397 7.32190411 57.478 7.66036986 57.4120548 7.94719178 57.3778904 8.1839589 57.3778904 8.6360411 57.3778904 9.02615068 57.4501918 9.35508219 57.594 9.68321918 57.7378082 9.95812329 57.9396164 10.1782055 58.2018082 10.3990822 58.4632055 10.5635479 58.773863 10.6716027 59.1337808 10.7796575 59.4929041 10.8328904 59.8877808 10.8328904 60.3192055L10.8328904 60.6735616 6.58220548 60.6735616C6.58220548 61.0128219 6.62828767 61.3767123 6.72045205 61.7676164 6.81420548 62.157726 6.96516438 62.5144658 7.17571233 62.8378356 7.38546575 63.1612055 7.66275342 63.4297534 8.00757534 63.645863 8.35080822 63.8611781 8.77428767 63.9700274 9.2780137 63.9700274 9.59582192 63.9700274 9.86516438 63.9390411 10.0860411 63.8770685 10.3069178 63.8150959 10.4991918 63.7594795 10.6636575 63.7070411L10.6636575 64.8010959zM13.4353425 61.2124849C13.4353425 61.4897726 13.4520274 61.7901014 13.4830137 62.1134712 13.5132055 62.4376356 13.5767671 62.7347863 13.6744932 63.0073068 13.7722192 63.2790329 13.918411 63.5078548 14.113863 63.6929781 14.3093151 63.8773068 14.5651507 63.9702658 14.8829589 63.9702658 15.1610411 63.9702658 15.4001918 63.882074 15.5996164 63.7072795 15.8006301 63.5324849 15.9643014 63.3100192 16.0930137 63.0374986 16.221726 62.7657726 16.3154795 62.4678274 16.3774521 62.1444575 16.4394247 61.8210877 16.470411 61.5048685 16.470411 61.197389 16.470411 60.8795808 16.4441918 60.5554164 16.3925479 60.2272795 16.3416986 59.8983479 16.2550959 59.6035808 16.1311507 59.3421836 16.008 59.0791973 15.8435342 58.8662658 15.6377534 58.7025945 15.4327671 58.5381288 15.1753425 58.4562932 14.8686575 58.4562932 14.6009041 58.4562932 14.3760548 58.5278 14.1909315 58.6716082 14.0058082 58.8154164 13.8564384 59.010074 13.744411 59.2563753 13.6307945 59.5026767 13.5513425 59.7934712 13.5052603 60.1271699 13.4583836 60.4608685 13.4353425 60.8223753 13.4353425 61.2124849L13.4353425 61.2124849zM16.470411 63.7533616L16.4394247 63.7533616C16.3981096 63.8566493 16.3297808 63.9821836 16.2320548 64.1307589 16.1335342 64.2801288 16.0016438 64.4215534 15.8379726 64.5550329 15.6735068 64.6885123 15.4740822 64.8037178 15.2381096 64.9014438 15.0013425 64.9983753 14.7240548 65.0476356 14.4070411 65.0476356 13.9644932 65.0476356 13.5839178 64.9530877 13.2669041 64.7631973 12.9483014 64.5733068 12.6861096 64.3103205 12.4811233 63.9774164 12.2753425 63.6445123 12.1275616 63.2512247 12.0338082 62.7991425 11.9424384 62.3470603 11.8955616 61.8592247 11.8955616 61.3364301 11.8955616 60.113663 12.1196164 59.1483205 12.5653425 58.4404027 13.0126575 57.7324849 13.6514521 57.3781288 14.4833151 57.3781288 14.7907945 57.3781288 15.0585479 57.4194438 15.2833973 57.5012795 15.5090411 57.5839096 15.7005205 57.6856082 15.853863 57.8095534 16.008 57.9319096 16.1335342 58.0606219 16.2320548 58.1948959 16.3297808 58.3275808 16.3981096 58.4507315 16.4394247 58.5643479L16.470411 58.5643479 16.470411 54.2516904 17.8552603 54.2516904 17.8552603 64.8784027 16.470411 64.8784027 16.470411 63.7533616zM20.9972712 61.2124849C20.9972712 61.4897726 21.0139562 61.7901014 21.0441479 62.1134712 21.0751342 62.4376356 21.1386959 62.7347863 21.2364219 63.0073068 21.3341479 63.2790329 21.4803397 63.5078548 21.6757918 63.6929781 21.8712438 63.8773068 22.1270795 63.9702658 22.4448877 63.9702658 22.7229699 63.9702658 22.9621205 63.882074 23.1615452 63.7072795 23.3625589 63.5324849 23.5262301 63.3100192 23.6549425 63.0374986 23.7836548 62.7657726 23.8774082 62.4678274 23.9393808 62.1444575 24.0013534 61.8210877 24.0315452 61.5048685 24.0315452 61.197389 24.0315452 60.8795808 24.0061205 60.5554164 23.9544767 60.2272795 23.9036274 59.8983479 23.8170247 59.6035808 23.6930795 59.3421836 23.5699288 59.0791973 23.405463 58.8662658 23.1996822 58.7025945 22.9946959 58.5381288 22.7372712 58.4562932 22.4305863 58.4562932 22.1628329 58.4562932 21.9379836 58.5278 21.7528603 58.6716082 21.567737 58.8154164 21.4183671 59.010074 21.3063397 59.2563753 21.1927233 59.5026767 21.1132712 59.7934712 21.067189 60.1271699 21.0203123 60.4608685 20.9972712 60.8223753 20.9972712 61.2124849L20.9972712 61.2124849zM24.0315452 63.7533616L24.0013534 63.7533616C23.9600384 63.8566493 23.8909151 63.9821836 23.793189 64.1307589 23.695463 64.2801288 23.5635726 64.4215534 23.3999014 64.5550329 23.2354356 64.6885123 23.036011 64.8037178 22.8000384 64.9014438 22.5632712 64.9983753 22.2859836 65.0476356 21.9689699 65.0476356 21.5264219 65.0476356 21.1458466 64.9530877 20.8288329 64.7631973 20.5102301 64.5733068 20.2480384 64.3103205 20.0430521 63.9774164 19.8372712 63.6445123 19.6894904 63.2512247 19.595737 62.7991425 19.5043671 62.3470603 19.4574904 61.8592247 19.4574904 61.3364301 19.4574904 60.113663 19.6815452 59.1483205 20.1272712 58.4404027 20.5745863 57.7324849 21.2133808 57.3781288 22.0452438 57.3781288 22.3527233 57.3781288 22.6204767 57.4194438 22.845326 57.5012795 23.0709699 57.5839096 23.2624493 57.6856082 23.4157918 57.8095534 23.5699288 57.9319096 23.695463 58.0606219 23.793189 58.1948959 23.8909151 58.3275808 23.9600384 58.4507315 24.0013534 58.5643479L24.0315452 58.5643479 24.0315452 54.2516904 25.417189 54.2516904 25.417189 64.8784027 24.0315452 64.8784027 24.0315452 63.7533616zM28.5592 61.2124849C28.5592 61.5001014 28.577474 61.8083753 28.6132274 62.1365123 28.6489808 62.4662384 28.7260493 62.763389 28.8436384 63.0303479 28.9628164 63.2973068 29.1352274 63.5205671 29.3608712 63.7001288 29.5865151 63.8796904 29.8900219 63.9702658 30.2682137 63.9702658 30.6392548 63.9702658 30.9364055 63.8796904 31.1620493 63.7001288 31.3892822 63.5205671 31.5601041 63.2973068 31.6784877 63.0303479 31.7960767 62.763389 31.8731452 62.4662384 31.9088986 62.1365123 31.9454466 61.8083753 31.962926 61.5001014 31.962926 61.2124849 31.962926 60.9145397 31.9454466 60.6038822 31.9088986 60.2813068 31.8731452 59.9571425 31.7960767 59.6599918 31.6784877 59.3874712 31.5601041 59.1157452 31.3892822 58.8924849 31.1620493 58.7176904 30.9364055 58.5428959 30.6392548 58.4562932 30.2682137 58.4562932 29.8900219 58.4562932 29.5865151 58.5428959 29.3608712 58.7176904 29.1352274 58.8924849 28.9628164 59.1157452 28.8436384 59.3874712 28.7260493 59.6599918 28.6489808 59.9571425 28.6132274 60.2813068 28.577474 60.6038822 28.5592 60.9145397 28.5592 61.2124849M30.2682137 65.0476356C29.7144329 65.0476356 29.2345425 64.9546767 28.829337 64.7703479 28.423337 64.5860192 28.0840767 64.326211 27.8131452 63.9925123 27.5406247 63.6596082 27.3404055 63.2559918 27.2124877 62.7832521 27.0837753 62.3113068 27.0194192 61.7885123 27.0194192 61.2124849 27.0194192 60.0421562 27.284789 59.1101836 27.8131452 58.4173616 28.3415014 57.7237452 29.1598575 57.3781288 30.2682137 57.3781288 31.3678301 57.3781288 32.1814192 57.7237452 32.7105699 58.4173616 33.2397205 59.1101836 33.5035014 60.0421562 33.5035014 61.2124849 33.5035014 61.7885123 33.4391452 62.3113068 33.3104329 62.7832521 33.1825151 63.2559918 32.9846795 63.6596082 32.7177205 63.9925123 32.4499671 64.326211 32.1146795 64.5860192 31.709474 64.7703479 31.303474 64.9546767 30.8243781 65.0476356 30.2682137 65.0476356M39.0019808 64.9398986C38.6738438 65.0122 38.3091589 65.0479534 37.9095151 65.0479534 37.4669671 65.0479534 37.1022822 65.0010767 36.8154603 64.9089123 36.5286384 64.8167479 36.3022 64.6912137 36.1385288 64.5315151 35.972474 64.372611 35.8604466 64.1827205 35.798474 63.9618438 35.7380904 63.7409671 35.7071041 63.5081726 35.7071041 63.2610767L35.7071041 58.6258438 34.3969397 58.6258438 34.3969397 57.5468849 35.7071041 57.5468849 35.7071041 55.8219808 37.0935425 54.959926 37.0935425 57.5468849 39.125926 57.5468849 39.125926 58.6258438 37.0935425 58.6258438 37.0935425 62.5372685C37.0935425 62.7017342 37.1022822 62.8685836 37.1237342 63.0370219 37.1435973 63.2070493 37.1936521 63.3611863 37.269926 63.4994329 37.3469945 63.638474 37.4645836 63.7520904 37.6242822 63.8386932 37.7831863 63.9260904 37.9961178 63.969789 38.2630767 63.969789 38.3870219 63.969789 38.5141452 63.9594603 38.6484192 63.9388027 38.7818986 63.9181452 38.8994877 63.891926 39.0019808 63.8617342L39.0019808 64.9398986zM47.1342164 61.5977479C46.8561342 61.5977479 46.5875863 61.6287342 46.3246 61.6907068 46.0632027 61.7510904 45.8296137 61.8416658 45.6254219 61.9600493 45.4196411 62.0784329 45.2551753 62.2270082 45.1312301 62.4065699 45.008874 62.5861315 44.9469014 62.7942959 44.9469014 63.0302685 44.9469014 63.3178849 45.0295315 63.5467068 45.1939973 63.7151452 45.3576685 63.8843781 45.5419973 63.9701863 45.7477781 63.9701863 45.9845452 63.9701863 46.2046274 63.9082137 46.4104082 63.7842685 46.6153945 63.6619123 46.7917781 63.5053918 46.9419425 63.3147068 47.0905178 63.1248164 47.2057233 62.9142685 47.2875589 62.683063 47.370189 62.4526521 47.4115041 62.2293918 47.4115041 62.0140767L47.4115041 61.5977479 47.1342164 61.5977479zM47.4115041 63.9701863L47.3805178 63.9701863C47.3399973 64.0718849 47.2676959 64.1855014 47.1644082 64.3086521 47.0619151 64.4310082 46.9339973 64.5470082 46.7798603 64.655063 46.6257233 64.7631178 46.4413945 64.8552822 46.2252849 64.9323507 46.0099699 65.0094192 45.7636685 65.0475562 45.4863808 65.0475562 44.7991205 65.0475562 44.2795041 64.8632274 43.9307096 64.4929808 43.5811205 64.1235288 43.4079151 63.6515836 43.4079151 63.0755562 43.4079151 62.5932822 43.5278877 62.1960219 43.7694219 61.8829808 44.0093671 61.5691452 44.3232027 61.3228438 44.7077507 61.1432822 45.0938877 60.9637205 45.5253123 60.8405699 46.0012301 60.7738301 46.4795315 60.7070904 46.9498877 60.6737205 47.4115041 60.6737205L47.4115041 59.395337C47.3495315 59.0362137 47.2136685 58.7891178 47.0031205 58.6556384 46.7917781 58.5229534 46.5542164 58.4562137 46.2872575 58.4562137 45.8653671 58.4562137 45.5650384 58.5690356 45.3862712 58.7946795 45.2059151 59.0211178 45.1169288 59.2825151 45.1169288 59.5796658L43.6526274 59.5796658C43.6526274 59.2825151 43.7002986 59.0020493 43.7916685 58.7406521 43.8846274 58.4792548 44.0387644 58.2456658 44.2540795 58.0398849 44.4693945 57.8356932 44.7514493 57.673611 45.1010384 57.5552274 45.4506274 57.4368438 45.8812575 57.3780493 46.3945178 57.3780493 46.9999425 57.3780493 47.464737 57.4757753 47.7881068 57.6704329 48.1122712 57.8650904 48.3474493 58.0970904 48.4968192 58.3632548 48.6453945 58.6310082 48.7335863 58.9019397 48.759011 59.1800219 48.7844356 59.4573096 48.7979425 59.6773918 48.7979425 59.8426521L48.7979425 64.8783233 47.4115041 64.8783233 47.4115041 63.9701863z"/>
    <polygon points="50.168 57.547 51.508 57.547 52.663 62.86 52.694 62.86 54.295 57.547 55.343 57.547 56.944 62.86 56.975 62.86 58.13 57.547 59.47 57.547 57.822 64.879 56.359 64.879 54.834 59.795 54.803 59.795 53.325 64.879 51.862 64.879"/>
    <path d="M64.1364795 61.5977479C63.8591918 61.5977479 63.5906438 61.6287342 63.3276575 61.6907068 63.0662603 61.7510904 62.8318767 61.8416658 62.6284795 61.9600493 62.4226986 62.0784329 62.2582329 62.2270082 62.1342877 62.4065699 62.0119315 62.5861315 61.9499589 62.7942959 61.9499589 63.0302685 61.9499589 63.3178849 62.032589 63.5467068 62.1970548 63.7151452 62.360726 63.8843781 62.5450548 63.9701863 62.7508356 63.9701863 62.9876027 63.9701863 63.2076849 63.9082137 63.4134658 63.7842685 63.6184521 63.6619123 63.7948356 63.5053918 63.945 63.3147068 64.0927808 63.1248164 64.2087808 62.9142685 64.2906164 62.683063 64.3732466 62.4526521 64.4145616 62.2293918 64.4145616 62.0140767L64.4145616 61.5977479 64.1364795 61.5977479zM64.4145616 63.9701863L64.3835753 63.9701863C64.3422603 64.0718849 64.2707534 64.1855014 64.1674658 64.3086521 64.0649726 64.4310082 63.9370548 64.5470082 63.7829178 64.655063 63.6287808 64.7631178 63.4444521 64.8552822 63.2283425 64.9323507 63.0130274 65.0094192 62.7659315 65.0475562 62.4894384 65.0475562 61.8021781 65.0475562 61.2825616 64.8632274 60.9337671 64.4929808 60.5833836 64.1235288 60.4101781 63.6515836 60.4101781 63.0755562 60.4101781 62.5932822 60.5309452 62.1960219 60.7724795 61.8829808 61.0124247 61.5691452 61.3262603 61.3228438 61.7108082 61.1432822 62.0969452 60.9637205 62.5275753 60.8405699 63.0042877 60.7738301 63.482589 60.7070904 63.9521507 60.6737205 64.4145616 60.6737205L64.4145616 59.395337C64.3517945 59.0362137 64.216726 58.7891178 64.0053836 58.6556384 63.7948356 58.5229534 63.557274 58.4562137 63.2895205 58.4562137 62.8684247 58.4562137 62.5680959 58.5690356 62.3893288 58.7946795 62.2089726 59.0211178 62.1199863 59.2825151 62.1199863 59.5796658L60.6556849 59.5796658C60.6556849 59.2825151 60.7025616 59.0020493 60.794726 58.7406521 60.8868904 58.4792548 61.0410274 58.2456658 61.2563425 58.0398849 61.4716575 57.8356932 61.7545068 57.673611 62.1033014 57.5552274 62.4536849 57.4368438 62.8843151 57.3780493 63.3967808 57.3780493 64.003 57.3780493 64.4677945 57.4757753 64.7911644 57.6704329 65.1153288 57.8650904 65.3505068 58.0970904 65.4998767 58.3632548 65.6484521 58.6310082 65.7366438 58.9019397 65.7620685 59.1800219 65.7866986 59.4573096 65.801 59.6773918 65.801 59.8426521L65.801 64.8783233 64.4145616 64.8783233 64.4145616 63.9701863zM67.6784521 57.5468055L69.0648904 57.5468055 69.0648904 59.0262027 69.0958767 59.0262027C69.1475205 58.8823945 69.2261781 58.7147507 69.3342329 58.5256548 69.4422877 58.3357644 69.5853014 58.1554082 69.7664521 57.9861753 69.9452192 57.8169425 70.1660959 57.6731342 70.4274932 57.5555452 70.6896849 57.4363671 71.0003425 57.3783671 71.3594658 57.3783671L71.3594658 58.8871616C71.0519863 58.8871616 70.7564247 58.9308603 70.4743699 59.0182575 70.1915205 59.1048603 69.9476027 59.2589973 69.7426164 59.4806685 69.5368356 59.7007507 69.3723699 59.9963123 69.2500137 60.3649699 69.126863 60.7352164 69.0648904 61.2023945 69.0648904 61.7672986L69.0648904 64.8786411 67.6784521 64.8786411 67.6784521 57.5468055zM73.4852849 61.2124849C73.4852849 61.4897726 73.5011753 61.7901014 73.5321616 62.1134712 73.5631479 62.4376356 73.6267096 62.7347863 73.7244356 63.0073068 73.8221616 63.2790329 73.9675589 63.5078548 74.163011 63.6929781 74.358463 63.8773068 74.6150932 63.9702658 74.9329014 63.9702658 75.2109836 63.9702658 75.4501342 63.882074 75.6495589 63.7072795 75.8497781 63.5324849 76.0142438 63.3100192 76.1421616 63.0374986 76.270874 62.7657726 76.3654219 62.4678274 76.4273945 62.1444575 76.4885726 61.8210877 76.5195589 61.5048685 76.5195589 61.197389 76.5195589 60.8795808 76.4941342 60.5554164 76.4424904 60.2272795 76.3908466 59.8983479 76.3042438 59.6035808 76.1810932 59.3421836 76.0579425 59.0791973 75.8926822 58.8662658 75.6876959 58.7025945 75.4827096 58.5381288 75.2252849 58.4562932 74.9186 58.4562932 74.6508466 58.4562932 74.4252027 58.5278 74.2400795 58.6716082 74.0549562 58.8154164 73.9063808 59.010074 73.7935589 59.2563753 73.680737 59.5026767 73.6012849 59.7934712 73.5544082 60.1271699 73.508326 60.4608685 73.4852849 60.8223753 73.4852849 61.2124849L73.4852849 61.2124849zM76.5195589 63.7533616L76.4885726 63.7533616C76.4472575 63.8566493 76.3789288 63.9821836 76.2812027 64.1307589 76.1834767 64.2801288 76.0515863 64.4215534 75.8879151 64.5550329 75.7234493 64.6885123 75.5232301 64.8037178 75.2880521 64.9014438 75.0512849 64.9983753 74.7732027 65.0476356 74.456189 65.0476356 74.0144356 65.0476356 73.6338603 64.9530877 73.3160521 64.7631973 72.9982438 64.5733068 72.7360521 64.3103205 72.5310658 63.9774164 72.3252849 63.6445123 72.1767096 63.2512247 72.0837507 62.7991425 71.9915863 62.3470603 71.9455041 61.8592247 71.9455041 61.3364301 71.9455041 60.113663 72.1695589 59.1483205 72.6152849 58.4404027 73.0626 57.7324849 73.7013945 57.3781288 74.532463 57.3781288 74.840737 57.3781288 75.1076959 57.4194438 75.3333397 57.5012795 75.5589836 57.5839096 75.7496685 57.6856082 75.903011 57.8095534 76.0579425 57.9319096 76.1834767 58.0606219 76.2812027 58.1948959 76.3789288 58.3275808 76.4472575 58.4507315 76.4885726 58.5643479L76.5195589 58.5643479 76.5195589 54.2516904 77.9052027 54.2516904 77.9052027 64.8784027 76.5195589 64.8784027 76.5195589 63.7533616zM83.7271315 63.7536C83.9424466 63.5796 84.2070219 63.3531616 84.520063 63.075874 84.8338986 62.7993808 85.1628301 62.4831616 85.506063 62.1296 85.8500904 61.7752438 86.1941178 61.4010247 86.5381452 61.0045589 86.8821726 60.6088877 87.1920356 60.2092438 87.4701178 59.8040384 87.7474055 59.3980384 87.9706658 58.9976 88.1406932 58.6027233 88.3091315 58.2070521 88.3941452 57.8399836 88.3941452 57.5007233 88.3941452 57.0796274 88.2757616 56.7292438 88.039789 56.4456 87.8038164 56.1643397 87.4240356 56.0229151 86.8996521 56.0229151 86.376063 56.0229151 86.0010493 56.1603671 85.7754055 56.4376548 85.5497616 56.715737 85.4369397 57.024011 85.4369397 57.3624767L83.7430219 57.3624767C83.7740082 57.1058466 83.8407479 56.8365041 83.9424466 56.5544493 84.0457342 56.2716 84.2141726 56.0094082 84.4509397 55.767874 84.6877068 55.5271342 85.0031315 55.3292986 85.3988027 55.1759562 85.794474 55.0218192 86.2989945 54.9439562 86.9155425 54.9439562 87.3366384 54.9439562 87.7291315 55.0035452 88.0930219 55.1211342 88.4577068 55.2403123 88.7755151 55.4087507 89.0480356 55.6304219 89.3205562 55.8505041 89.5366658 56.1277918 89.6955699 56.4614904 89.854474 56.795189 89.933926 57.1773534 89.933926 57.6087781 89.933926 58.2960384 89.7829671 58.9388055 89.4794603 59.5339014 89.1767479 60.1297918 88.8049123 60.6835726 88.3631589 61.1976274 87.920611 61.7108877 87.4494603 62.1828329 86.9465288 62.613463 86.4428027 63.0456822 85.9859534 63.4405589 85.5759808 63.8004767L90.0109945 63.8004767 90.0109945 64.8786411 83.7271315 64.8786411 83.7271315 63.7536zM93.3684795 59.9959151C93.3684795 60.4479973 93.3915205 60.9096137 93.4376027 61.3823534 93.4836849 61.8542986 93.5766438 62.2825452 93.7156849 62.6678877 93.853137 63.0532301 94.0557397 63.3670658 94.3234932 63.607011 94.5896575 63.8485452 94.9440137 63.9701068 95.3857671 63.9701068 95.8370548 63.9701068 96.1969726 63.8485452 96.4639315 63.607011 96.7300959 63.3670658 96.9358767 63.0532301 97.0796849 62.6678877 97.2242877 62.2825452 97.3188356 61.8542986 97.3649178 61.3823534 97.4117945 60.9096137 97.4340411 60.4479973 97.4340411 59.9959151 97.4340411 59.5438329 97.4117945 59.0853945 97.3649178 58.6174219 97.3188356 58.1502438 97.2242877 57.7243808 97.0796849 57.3398329 96.9358767 56.9544904 96.7300959 56.6382712 96.4639315 56.3919699 96.1969726 56.1456685 95.8370548 56.0233123 95.3857671 56.0233123 94.9440137 56.0233123 94.5896575 56.1456685 94.3234932 56.3919699 94.0557397 56.6382712 93.853137 56.9544904 93.7156849 57.3398329 93.5766438 57.7243808 93.4836849 58.1502438 93.4376027 58.6174219 93.3915205 59.0853945 93.3684795 59.5438329 93.3684795 59.9959151M95.3857671 65.0474767C94.6770548 65.0474767 94.0946712 64.904463 93.6386164 64.6168466 93.1817671 64.3292301 92.8170822 63.9518329 92.5445616 63.4846548 92.2720411 63.0174767 92.0853288 62.4811753 91.9820411 61.8749562 91.8795479 61.2695315 91.8286986 60.6426548 91.8286986 59.9959151 91.8286986 59.3491753 91.8795479 58.7230932 91.9820411 58.116874 92.0853288 57.5114493 92.2720411 56.9751479 92.5445616 56.5071753 92.8170822 56.0399973 93.1817671 55.6633945 93.6386164 55.3757781 94.0946712 55.0889562 94.6770548 54.9443534 95.3857671 54.9443534 96.095274 54.9443534 96.6800411 55.0889562 97.1416575 55.3757781 97.6040685 55.6633945 97.9703425 56.0399973 98.242863 56.5071753 98.514589 56.9751479 98.705274 57.5114493 98.8133288 58.116874 98.920589 58.7230932 98.9746164 59.3491753 98.9746164 59.9959151 98.9746164 60.6426548 98.920589 61.2695315 98.8133288 61.8749562 98.705274 62.4811753 98.514589 63.0174767 98.242863 63.4846548 97.9703425 63.9518329 97.6040685 64.3292301 97.1416575 64.6168466 96.6800411 64.904463 96.095274 65.0474767 95.3857671 65.0474767"/>
    <polygon points="103.425 56.5 101.485 57.67 101.485 56.331 103.672 55.114 104.965 55.114 104.965 64.878 103.425 64.878"/>
    <path d="M110.556184,57.5777918 C110.556184,58.1323671 110.689663,58.5479014 110.955827,58.825189 C111.223581,59.1024767 111.602567,59.2415178 112.09517,59.2415178 C113.122485,59.2415178 113.635745,58.6869425 113.635745,57.5777918 C113.635745,57.0955178 113.505444,56.715737 113.243252,56.4376548 C112.981855,56.1603671 112.598896,56.0229151 112.09517,56.0229151 C111.602567,56.0229151 111.223581,56.1603671 110.955827,56.4376548 C110.689663,56.715737 110.556184,57.0955178 110.556184,57.5777918 M110.386156,62.167737 C110.386156,62.7834904 110.529964,63.2379562 110.817581,63.5303397 C111.104403,63.8227233 111.53106,63.9697096 112.09517,63.9697096 C112.681526,63.9697096 113.112951,63.8227233 113.388649,63.5303397 C113.666732,63.2379562 113.805773,62.7834904 113.805773,62.167737 C113.805773,61.6131616 113.674677,61.1666411 113.413279,60.8273808 C113.151088,60.4889151 112.711718,60.3196822 112.09517,60.3196822 C111.53106,60.3196822 111.104403,60.4817644 110.817581,60.8051342 C110.529964,61.1285041 110.386156,61.5829699 110.386156,62.167737 M112.09517,65.047874 C110.935964,65.047874 110.104101,64.7936274 109.60117,64.2851342 C109.097444,63.7766411 108.846375,63.0965315 108.846375,62.2448055 C108.846375,61.8237096 108.901992,61.4685589 109.016403,61.181737 C109.12843,60.8941205 109.269855,60.661326 109.439882,60.4817644 C109.608321,60.3022027 109.796622,60.1607781 110.001608,60.0582849 C110.206595,59.9549973 110.402047,59.8787233 110.586375,59.8262849 L110.586375,59.7952986 C110.452896,59.7547781 110.29717,59.6872438 110.116814,59.595874 C109.938047,59.5029151 109.765636,59.3678466 109.60117,59.1866959 C109.437499,59.0079288 109.298458,58.7791068 109.185636,58.5018192 C109.072019,58.2245315 109.016403,57.8812986 109.016403,57.469737 C109.016403,57.0287781 109.09506,56.6489973 109.254759,56.3303945 C109.414458,56.0125863 109.632156,55.7503945 109.909444,55.5446137 C110.186732,55.3404219 110.512485,55.187874 110.886704,55.0901479 C111.262512,54.9932164 111.665334,54.9439562 112.09517,54.9439562 C112.526595,54.9439562 112.929416,54.9932164 113.305225,55.0901479 C113.680238,55.187874 114.005992,55.3404219 114.283279,55.5446137 C114.559773,55.7503945 114.777471,56.0125863 114.937964,56.3303945 C115.096868,56.6489973 115.176321,57.0287781 115.176321,57.469737 C115.176321,57.8812986 115.122293,58.2245315 115.014238,58.5018192 C114.906978,58.7791068 114.773499,59.0079288 114.6138,59.1866959 C114.454101,59.3678466 114.284868,59.5029151 114.106101,59.595874 C113.925745,59.6872438 113.758896,59.7547781 113.605553,59.7952986 L113.605553,59.8262849 C113.779553,59.8787233 113.967855,59.9549973 114.167279,60.0582849 C114.367499,60.1607781 114.555005,60.3022027 114.7298,60.4817644 C114.904595,60.661326 115.049992,60.8941205 115.168375,61.181737 C115.286759,61.4685589 115.344759,61.8237096 115.344759,62.2448055 C115.344759,62.6754356 115.286759,63.0631616 115.168375,63.407189 C115.049992,63.752011 114.863279,64.0443945 114.606649,64.2851342 C114.349225,64.5266685 114.015526,64.7141753 113.605553,64.8468603 C113.193992,64.9811342 112.691855,65.047874 112.09517,65.047874"/>
    <polygon points=".123 72.206 1.255 72.206 2.23 76.693 2.257 76.693 3.61 72.206 4.493 72.206 5.846 76.693 5.872 76.693 6.847 72.206 7.979 72.206 6.588 78.397 5.351 78.397 4.064 74.105 4.038 74.105 2.789 78.397 1.554 78.397"/>
    <path d="M9.51358904 78.3974877L10.6847123 78.3974877 10.6847123 72.2065836 9.51358904 72.2065836 9.51358904 78.3974877zM9.396 70.7494329L10.8015068 70.7494329 10.8015068 69.4225836 9.396 69.4225836 9.396 70.7494329zM12.6733973 72.2061863L13.8445205 72.2061863 13.8445205 73.5330356 13.8699452 73.5330356C13.921589 73.4027342 13.9938904 73.2525699 14.0844658 73.0841315 14.1758356 72.9148986 14.2989863 72.7552 14.4547123 72.6034466 14.6104384 72.4508986 14.8019178 72.3229808 15.0275616 72.2196932 15.252411 72.1148164 15.5209589 72.0631726 15.834 72.0631726 16.1891507 72.0631726 16.4767671 72.1322959 16.6984384 72.271337 16.9201096 72.4095836 17.0885479 72.5835836 17.2053425 72.7917479 17.3229315 72.9999123 17.4007945 73.2231726 17.439726 73.4615288 17.4786575 73.6998849 17.497726 73.913611 17.497726 74.1050904L17.497726 78.3970904 16.3281918 78.3970904 16.3281918 75.015611C16.3281918 74.7295836 16.3234247 74.475337 16.3146849 74.2552548 16.3051507 74.0335836 16.2757534 73.8468712 16.2241096 73.6951178 16.1716712 73.5441589 16.0874521 73.4289534 15.9690685 73.3502959 15.8530685 73.2724329 15.6909863 73.2335014 15.4828219 73.2335014 15.2389041 73.2335014 15.0188219 73.3073918 14.8193973 73.4543781 14.6191781 73.6021589 14.4475616 73.7968164 14.3053425 74.0399397 14.1623288 74.2822685 14.0495068 74.5539945 13.9668767 74.8535288 13.8850411 75.1522685 13.8445205 75.4573644 13.8445205 75.769611L13.8445205 78.3970904 12.6733973 78.3970904 12.6733973 72.2061863zM19.3453836 72.2061863L20.5165068 72.2061863 20.5165068 73.5330356 20.5419315 73.5330356C20.5935753 73.4027342 20.6658767 73.2525699 20.7564521 73.0841315 20.8478219 72.9148986 20.9709726 72.7552 21.1266986 72.6034466 21.2824247 72.4508986 21.4739041 72.3229808 21.6995479 72.2196932 21.9251918 72.1148164 22.1929452 72.0631726 22.5059863 72.0631726 22.861137 72.0631726 23.1487534 72.1322959 23.3704247 72.271337 23.5920959 72.4095836 23.7605342 72.5835836 23.8773288 72.7917479 23.9949178 72.9999123 24.0727808 73.2231726 24.1117123 73.4615288 24.1506438 73.6998849 24.1697123 73.913611 24.1697123 74.1050904L24.1697123 78.3970904 23.0001781 78.3970904 23.0001781 75.015611C23.0001781 74.7295836 22.995411 74.475337 22.9866712 74.2552548 22.977137 74.0335836 22.9477397 73.8468712 22.8960959 73.6951178 22.8436575 73.5441589 22.7594384 73.4289534 22.6418493 73.3502959 22.5250548 73.2724329 22.3629726 73.2335014 22.1548082 73.2335014 21.9108904 73.2335014 21.6908082 73.3073918 21.4913836 73.4543781 21.2911644 73.6021589 21.1195479 73.7968164 20.9773288 74.0399397 20.8343151 74.2822685 20.7214932 74.5539945 20.638863 74.8535288 20.5570274 75.1522685 20.5165068 75.4573644 20.5165068 75.769611L20.5165068 78.3970904 19.3453836 78.3970904 19.3453836 72.2061863zM29.1635918 74.0660795C29.1635918 73.970737 29.1469068 73.8602986 29.1119479 73.7347644 29.0777836 73.6092301 29.0181945 73.4892575 28.9363589 73.3764356 28.8529342 73.2636137 28.7393178 73.1690658 28.591537 73.0912027 28.4445507 73.0125452 28.2570438 72.9736137 28.0321945 72.9736137 27.7898658 72.9736137 27.5904411 73.0173123 27.4339205 73.1039151 27.2781945 73.1905178 27.1526603 73.2938055 27.0573178 73.4161616 26.9619753 73.5369288 26.8944411 73.6584904 26.8555096 73.7792575 26.8165781 73.9016137 26.7967151 73.9969562 26.7967151 74.0660795L29.1635918 74.0660795zM30.1909068 78.3318603C29.9398384 78.3922438 29.7030712 78.4422986 29.4821945 78.4812301 29.2613178 78.5201616 28.9816466 78.5400247 28.6439753 78.5400247 27.7072356 78.5400247 26.9619753 78.2539973 26.4066055 77.6819425 25.8520301 77.1090932 25.5739479 76.2160521 25.5739479 75.0028192 25.5739479 74.3354219 25.6677014 73.8078603 25.8536192 73.4217233 26.039537 73.0371753 26.2675644 72.7416137 26.5361123 72.5382164 26.8054548 72.3340247 27.0827425 72.2045178 27.3695644 72.1473123 27.6555918 72.0916959 27.897126 72.0630932 28.0973452 72.0630932 28.4795096 72.0630932 28.8084411 72.1242712 29.0857288 72.2450384 29.3630164 72.3666 29.5950164 72.5382164 29.7817288 72.7590932 29.9684411 72.9799699 30.1066877 73.2421616 30.1980575 73.5456685 30.2886329 73.8499699 30.3339205 74.182874 30.3339205 74.5475589L30.3339205 74.8462986 26.7442767 74.8462986C26.7442767 75.132326 26.7840027 75.4406 26.8626603 75.770326 26.9397288 76.0992575 27.0676466 76.4003808 27.2456192 76.6736959 27.4235918 76.947011 27.6571808 77.1742438 27.9479753 77.3569836 28.2387699 77.5389288 28.5955096 77.6295041 29.0205781 77.6295041 29.289126 77.6295041 29.5163589 77.6040795 29.7030712 77.5516411 29.8897836 77.4992027 30.0526603 77.4515315 30.1909068 77.4086274L30.1909068 78.3318603zM31.7132082 72.2061863L32.8843315 72.2061863 32.8843315 73.4543781 32.9105507 73.4543781C32.9542493 73.3328164 33.020989 73.1929808 33.1115644 73.0324877 33.2021397 72.8719945 33.3237014 72.7194466 33.4762493 72.5772274 33.6272082 72.4342137 33.8147151 72.3118575 34.0347973 72.2125425 34.255674 72.1132274 34.5170712 72.0631726 34.8213726 72.0631726L34.8213726 73.3375836C34.5607699 73.3375836 34.3120849 73.374926 34.0745233 73.4480219 33.8353726 73.5219123 33.6295918 73.6522137 33.4555918 73.838926 33.2831808 74.0256384 33.1441397 74.2743233 33.039263 74.5865699 32.9359753 74.8980219 32.8843315 75.2928986 32.8843315 75.769611L32.8843315 78.3970904 31.7132082 78.3970904 31.7132082 72.2061863z"/>
  </g>
</svg>
