<?xml version="1.0" encoding="utf-8"?>
<!-- Generator: Adobe Illustrator 22.0.1, SVG Export Plug-In . SVG Version: 6.00 Build 0)  -->
<svg version="1.1" id="Warstwa_1" xmlns="http://www.w3.org/2000/svg" xmlns:xlink="http://www.w3.org/1999/xlink" x="0px" y="0px"
	 viewBox="0 0 2386 1179.9" style="enable-background:new 0 0 2386 1179.9;" xml:space="preserve">
<title>Obszar roboczy 1</title>
<path d="M1761.4,153.8L1761.4,153.8C1588,83.7,1414.6,51.8,1193,45.3c-221.6,6.5-395,38.4-568.4,108.5
	c-197.2,79.7-302.8,96.5-571.3,96.5v679.2c268.5,0,374.1,16.8,571.3,96.5c173.4,70.1,346.8,102,568.4,108.5
	c221.6-6.5,395-38.4,568.4-108.5c197.2-79.7,302.8-96.5,571.3-96.5V250.3C2064.2,250.3,1958.6,233.5,1761.4,153.8z M2293,890
	l-14.5,0.2c-234,2.5-343.3,22.9-532,99.1c-167.1,67.5-333,99.1-554.7,105.6h-0.8c-219.6-6.5-384.5-38.1-551.5-105.6
	c-188.6-76.2-298-96.7-532-99.1L93,890V289.9l14.5-0.1c234-2.5,343.4-22.9,532-99.1c167-67.5,332.9-99.1,554.6-105.6h0.9
	c219.6,6.5,384.5,38.1,551.5,105.6c188.6,76.2,298,96.6,532,99.1l14.5,0.1L2293,890z"/>
<ellipse cx="987.7" cy="624.1" rx="73.8" ry="122.1"/>
<path d="M1735.5,217.8c-163.4-66.1-325.2-97-540.9-103.5c-217.8,6.4-380.6,37.4-544.1,103.5c-188.7,76.3-299.7,97.8-528.2,101.1v542
	c228.4,3.3,339.4,24.8,528.2,101.1c163.5,66.1,325.2,97,540.9,103.5c217.8-6.4,380.6-37.4,544.1-103.5l0,0
	c188.8-76.3,299.7-97.8,528.2-101.1v-542C2035.2,315.7,1924.2,294.1,1735.5,217.8z M701.6,321.1c31.7,0,57.4,25.7,57.4,57.4
	c0,31.7-25.7,57.4-57.4,57.4c-31.7,0-57.4-25.7-57.4-57.4v0C644.2,346.8,669.9,321.1,701.6,321.1z M596.6,786.7
	c0,0-127.3-9.8-282.5,0c0,0,29.4-226.4,5.6-443.2c0,0,89.5,7,142.7,0c0,0-25.2,174.8-18.2,384.6c0,0,117.5,2.8,152.5-9.8V786.7z
	 M640,786.7c0,0,19.6-178.8,0-317.3c0,0,58.8,12.6,120.3,1.4c0,0-21,178.8,2.8,315.9C763,786.7,709.9,775.5,640,786.7L640,786.7z
	 M1016.2,791.1c-56.7,0-88.1-21.2-106.7-49.7c2,52.3,6,109.2,13,168.5c0,0-50.3-15.4-120.3-4.2c0,0,18.2-216.8,4.2-446.2
	c0,0,60.2,8.4,110.5-2.8c-1.7,15.6-3,31.3-4,47c19.1-28.6,50.8-54,103.4-54c120.3,0,146.9,88.1,146.8,166.4
	S1144.9,791.1,1016.2,791.1L1016.2,791.1z M1389.7,786.8h-111.9c0,0-78.3,8.4-78.3-92.3s4.2-250.4-2.8-307.7c0,0,76.9-21,106.3-57.4
	l19.6,15.4c0,0-6.4,42.6-11.3,109.1h67.3v55.9c0,0-21.6-8.7-70.1-11.6c-3,54.9-4.3,120.4-1.2,189.3l0,0c0,0-8.4,74.2,82.5,61.5
	L1389.7,786.8z M1565.9,789.7L1565.9,789.7c-145.4,0-187.9-77-187.9-172.1s46.7-172.1,187.9-172.1s187.9,77,187.9,172.1
	S1711.4,789.7,1565.9,789.7z M1997.8,786.7c0,0,11.5-94.2,9.4-198c0,0,5.2-75.5-57.7-75.5c-36.6,0-52.5,19.9-57.7,60.8
	c0.5,61.7-0.5,139.3,8.4,212.7c0,0-70.3-8.4-122.7,0c0,0,21-172.9-2.1-330.2c0,0,70.3,8.4,114.3-1c0,0-0.6,13.5-1.2,36.2
	c18.5-18.1,55.5-45.7,109.2-45.7c79.7,0,113.3,45.1,113.3,118.5l0,0c0,73.4-1,175,7.4,222.2C2078.2,784.2,2037.9,784.2,1997.8,786.7
	L1997.8,786.7z"/>
<path d="M1566.3,757.6c59.8,0,71.8-61.1,71.8-136.5s-8.4-136.5-71.8-136.5s-71.8,61.1-71.8,136.5S1506.5,757.6,1566.3,757.6z"/>
</svg>
