<?xml version="1.0" encoding="utf-8"?>
<!-- Generator: Adobe Illustrator 22.0.1, SVG Export Plug-In . SVG Version: 6.00 Build 0)  -->
<svg version="1.1" id="Warstwa_1" xmlns="http://www.w3.org/2000/svg" xmlns:xlink="http://www.w3.org/1999/xlink" x="0px" y="0px"
	 viewBox="0 0 814 717" style="enable-background:new 0 0 814 717;" xml:space="preserve">
<title>Obszar roboczy 1</title>
<g id="Monster_Energy.jpg">
	<g id="_1">
		<path d="M429.2,31.2c-0.9,1.1-2.2,1.8-3.6,1.9c-1.9,0-4.8,1.2-5.7,2.3c-2,0.7-4,1.2-6,1.4c-16.8,3-34.4,8.8-46.1,15.3
			c-3.5,1.9-7.2,1.9-8.5-0.1c-1.7-2.3-4.6-3-13.7-3H337l-1.7-2.3c-1.1-1.4-2.4-2.5-3.9-3.4c-2-1-2.6-1-6.6,0.3
			c-3.2,1.1-6.1,2.6-8.9,4.5c-4.4,3.1-4.5,3.1-11,3.1c-4.4,0.1-8.9,0.5-13.2,1.1c-7.6,1.4-33.9,9.7-34.2,10.9
			c-0.2,0.6,2.8,0.8,9.3,0.8c7.3,0,9.9,0.3,11.3,1.1c1.4,1,3.6,1.1,10.5,1c7.4-0.2,8.9,0,10.1,1.1c0.8,0.7,1.7,1.2,2.8,1.4
			c1.2,0.3,2.3,1,3.1,1.9c1.7,1.6,1.9,2.5,1.9,7.7c0,7.4,1.4,10.3,7.5,16.9c2.7,2.9,5,6,5.4,7.6c1.7,6.2,0.5,14.8-4.5,30.2
			c-6,18.7-5.7,24.3,2.1,32.6c1.5,1.4,2.5,3.3,3,5.3c0.1,1.4,0.7,2.9,1.3,3.2s1.5,3,2,5.7c0.5,2.8,1.5,5.5,2.7,8.1
			c1.7,2.9,1.8,3.9,1.8,16c0,11,0.2,13.4,1.5,16.6c2.3,6,3.6,12.4,3.8,18.8c0,6-3.3,16.6-6.7,21.6c-2,3.2-3.9,7.3-3.9,9.2
			c0,0.5,1.5,2.7,3.4,4.9c3.2,3.7,5.4,8.5,4.5,9.8c-0.1,0.3,0,6.2,0.4,13.1c0.8,13,1.4,15.6,4.9,18.9c1.9,1.8,2.9,6,4.6,20.1
			s3.2,20.2,6.1,26.3c1.9,3.9,3,5.4,4.1,5.4c0.7,0,1.4-0.4,1.7-1c0.7-1.8-0.5-9.2-1.6-10.6c-1.9-2.1-1.4-32.4,0.7-41.2
			c1.7-7.1,1.5-18.8-0.4-28.3c-1.7-8.8-2-11.7-1.5-15c0.3-1.7,0.9-3,1.4-3c1,0,4.3-12,4.2-15.4c0.2-1.8,1-3.4,2.3-4.7
			c5-5.7,5-14.4,0-24.1l-3.2-6.1l0.3-9.3c0.1-7.1,0.5-9.4,1.4-10.1c1.8-1.4,3.3-5.9,3.2-9.6c0-2.2-1.3-6.5-3.6-12.1
			c-7.9-19.3-10.1-27.3-10.8-38.6c-0.5-8.8-0.1-10.5,3.1-14.1c3.4-3.9,4.2-5.6,4.2-9.2c0-2.3-0.3-3.1-1.1-3.1c-1,0-1.1-1.9-1.1-12.3
			l0.1-12.2l3.5-2.3c2.2-1.4,4.7-2.4,7.3-2.7c3.6-0.4,3.7-0.4,4.4-3.4c0.4-3.2,0.5-6.5,0.2-9.7l-0.5-6.6l2.7-2.8
			c1.4-1.5,2.6-3,2.6-3.4s2.6-0.6,5.8-0.6c4.2,0,6.1,0.3,7.1,1.2s2.8,1.2,7.9,1.1l6.5-0.2l1.2,2.6c1.9,3.6,5.1,6.7,6.9,6.7
			c3.1,0,4,6.8,2,14.1c-0.6,2.2-1.6,5.7-2.2,7.9c-1.4,4.8-0.7,6.8,3.2,9.4c3.8,2.3,4.4,4.5,3.1,10.5c-1.7,8.3-1.8,12.5-0.2,14.2
			c1.2,1.4,1.4,2.7,1.1,13.5l-0.3,12l2.6,2.6l2.6,2.6l-1.1,4.8c-1.7,7.3-0.9,24.2,1.7,35.8c3.2,14.8,4.5,22.4,3.5,23
			c-0.8,0.4-2.2,4.2-11,28.8c-3,8.3-3.2,9.1-3.2,17.8s0.1,9.3,2.6,14.6s2.5,5.5,1.2,7c-1.9,2-1.2,8.5,1.4,13.8l2,4.2l-0.3,24.3
			c-0.2,14.2-0.1,25.9,0.4,28.2c0.8,4.8,5.1,14,8.2,17.9c2.7,3.5,2.9,6.8,0.8,13.8c-0.7,2.2-1.2,4.4-1.5,6.7c0.1,1-0.4,1.9-1.1,2.5
			c-0.8,0.3-1.1,1.7-1.1,5.8c0,2.9,0.3,5.3,0.8,5.3c1.4,0,6.1-4.8,7.6-7.6c0.8-1.5,1.2-3.2,1.4-4.8c0-1.1,0.3-1.9,0.7-1.9
			c1.4,0,1.7-3.2,1.7-17.6c-0.1-14.6-0.1-14.9,1.4-14.9c0.9,0,1.6-0.1,1.6-0.2s0.8-2.6,1.9-5.7c2-5.8,2.6-14,1.1-14.9
			c-0.4-0.2-0.8-0.1-0.8,0.3c0,0.4-0.3,0.8-0.7,0.8c0,0,0,0,0,0c-1.1,0-3.6-9.5-4.6-17.4c-0.9-8.7-0.5-17.5,1.2-26.1
			c2.3-11.3,3-22.9,2-34.5c-1.2-17.7-1.1-21,0.7-24c0.9-1.4,1.4-3,1.5-4.7c0-1.5,0.4-2.3,1.1-2.3c1.7,0,3.2-3,3.9-7.9
			c0.7-6.2,1.4-7.9,3.9-8.9c2.7-1.1,9.1-8.2,9.7-10.8c0.9-3.5-0.3-8.9-4.3-19.2c-3-7.9-4-11.5-4.3-15.7c-0.3-4.4-0.1-5.7,0.8-6.4
			s1.2-2.6,1.4-7.9c0.2-6.3,0.5-7.1,2.2-9.1c2.4-2.6,3.4-6.8,1.9-8.5c-1.8-2.2-6-36.3-6.1-49.6c0-7,0.1-7.9,2.5-12.6
			c1.4-2.9,5.3-8.2,9.2-12.8c3.8-4.2,6.8-7.9,6.8-8.2s-0.8-0.5-1.7-0.5c-2.4-0.2-4.4-3-4.4-6s-2.5-5.9-4.6-5.4
			c-1,0.2-2.6-0.7-5.1-2.9c-2-1.8-4.5-3.5-5.7-3.8c-1.1-0.2-2-1-2.2-2.1c-0.1-1.1-1.1-1.9-2.7-2.4s-2.6-1.3-2.9-2.5
			C436.1,28.4,431.4,28.6,429.2,31.2"/>
		<path d="M518.3,43c-0.5,0.5-0.8,1.1-0.9,1.8c0,1.1-4.5,3.8-7.3,4.5c-1.1,0.3-3.1,2-4.6,4.2s-3.4,3.9-4.2,4s-3.9,0.7-6.7,1.1
			c-7.3,1.2-21.8,6.6-23.9,8.8c-0.6,0.8-1.5,1.5-2.4,1.9c-0.4,0-0.7,0.3-0.8,0.7c0,0,0,0.1,0,0.1c0,0.4,0.5,0.8,1,0.8
			s5.1,1.4,10.3,3c9.6,3.1,14.6,3.7,18.8,2.2c2-0.7,2.6-0.5,4.5,0.8c2,1.2,4.1,2.1,6.3,2.7c2.3,0.7,4.6,1.6,6.7,2.8
			c2.3,1.4,2.5,1.7,2,3.9c-1.9,9.2-2.8,18.6-2.6,28l0.2,11.9l-3.1,2c-6.1,4-7.1,9.7-2,12.1c3,1.4,3,1.6,1.5,9.5
			c-1.6,8.2-1.5,16.1,0.2,19.4c1,1.7,2.3,3.2,3.9,4.4c5,3.3,5.8,7.9,3.5,19.1c-1.9,9-1.7,12.5,1.4,17.4c2.3,3.8,2.6,4.7,2.6,10.2
			c0.1,3.5,0.5,6.9,1.2,10.4c1,3.9,1,4.5-0.2,6.8c-1.1,2.1-1.3,4.8-1.3,18c0,13.4-0.2,15.8-1.3,17.8c-0.6,0.9-1.1,2-1.4,3.1
			c-0.2,0.7-0.6,1.4-1.1,1.8c-1.6,1.3-1.4,5,0.4,10.2c2,5.7,1.9,7.3-0.3,10c-5.2,6.3-5.8,11.3-3.2,24.7c2.2,11.1,2.4,15.3,0.8,17.4
			s-1.4,9.1,0.8,15.1s3,7.2,4.3,5.9c0.5-0.5,0.9-4,0.9-9.5l0.1-8.6l3.5-7.1c1.7-3.6,3.7-7,6.1-10.2c5-5.8,5.1-6.3,5.1-23.3
			c0-8.5-0.3-17.2-0.7-19.5s-0.8-7.4-1.1-11.5c-0.3-7.2-0.2-7.6,1.8-10.6c2.5-3.7,2.8-7.9,1-13.7c-0.8-3.2-1.1-6.6-1.1-9.9
			c0-5.7,0.2-6.4,2.3-9.4c1.3-1.8,2.3-4,2.7-6.2c0.3-1.7,0.8-2.9,1.4-2.9c3.7,0,5.1-13.8,2-20.5c-0.9-2-2.3-3.8-3.9-5.3
			c-7.9-6-8.2-7.8-3.8-21.2c3.6-11,3.6-12.8-0.6-15.4c-2.4-1.5-2.4-1.6-2.5-7.6c-0.1-17.3,6.3-35.4,19.9-57.1c4.7-7.4,6.3-12,4.3-12
			c-1-0.4-1.9-1-2.6-1.9c-1.5-1.4-1.9-2.6-1.9-5.8c0-2.3-0.5-4.7-1.1-5.6c-1.4-2.6-2.7-5.2-3.8-7.9c-4.9-11.3-8.5-14.2-17.5-14.3
			c-2.5,0-5.1-0.4-7.5-1.1C521.1,41.9,519.4,41.9,518.3,43"/>
		<path d="M354,470.9c-1.9,1.6-3.7,5-3.7,6.9c0.2,1.5,0.8,2.9,1.7,4c1.7,2.1,1.7,2.6,1.9,25.5c0.2,12.9-0.1,23.7-0.5,24
			s-1.9-0.5-3.6-1.9s-7.3-6-12.8-10.4s-15.1-12.2-21.6-17.4s-12.5-9.9-13.4-10.4c-2-1.1-4.2-0.5-7.3,1.8c-1.9,1.4-4,2.6-6.1,3.7
			c-4.9,2.4-7.7,6.4-6.4,9.2c0.5,1,1.1,1.8,1.5,1.8c1.9,0,2.3,5.7,2.3,27.9c0,21.5-0.1,23.4-1.5,27.2c-2,5.1-1.5,7.6,2.3,11.7
			c1.4,1.5,2.6,3.1,3.7,4.8c2.1,3.9,6.8,3.5,10-0.8l2.2-3v-26.8c0-14.7,0.2-26.7,0.5-26.7s7,4.9,20.6,15.4
			c7.3,5.6,19.4,15.3,25.2,20.3l5.1,4.4v8.2c0,9.4,1,11.6,4.9,11.6c2.4,0,6-3.5,10.3-10.1c3.1-4.8,3.5-7.9,1.5-12.3
			c-1.5-3.5-1.6-4.7-1.6-36.8v-33.2l2.4-2.9c3.2-4.1,2.9-6.6-1.7-9.5c-2.2-1.5-4.3-3.1-6.4-4.8C360.3,469.9,356.2,469.2,354,470.9"
			/>
		<path d="M218.4,471.5c-1.8,0.3-3.6,0.4-5.4,0.1c-2.9-0.3-3.2-0.1-5.1,2.3c-2.4,3.2-2.5,5.4-0.5,9.8c1.5,3.4,2.1,12.3,0.9,13.1
			c-0.4,0.2-4.6,0.5-9.4,0.5c-8.2,0.1-8.8,0-11.5-1.9c-1.3-1-2.9-1.6-4.5-2c-0.9,0-4.8,1.9-8.5,4.2c-2.5,1.6-5.1,2.9-7.7,4.2
			c-1.2,0-5.4,5.7-5.4,7.4c0.2,1.2,0.7,2.4,1.4,3.3c1.2,1.4,1.6,3.5,1.9,10.4c0.7,13.1,3.6,22.2,9.8,31.7
			c3.9,5.9,13.5,15.3,18.9,18.6c2.2,1.4,4.2,2.9,6.1,4.6c2.7,2.7,5.1,4.1,7.1,4.1c1.3,0,1.6,0.6,1.8,4.2s-0.1,4.6-1.8,7.2
			c-2.4,3.6-2.6,4.5-1,7.6c1.8,3.5,5.1,4.8,10.5,4.3c4.3-0.4,4.8-0.7,7.4-3.6c3.6-4.2,3.9-6,2.6-12c-1.7-7.2-1.6-10.7,0.5-12.6
			c0.9-0.8,6.4-3.7,12.3-6.4c12.7-5.9,17.3-8.8,20.5-13c3-4.1,3.7-6.8,4.8-18.6c1.3-14.8,2.3-20.5,4.3-24.7
			c2.6-5.5,1.7-6.9-7.3-12.9c-7.9-5.1-9.6-5.5-15.9-3.5c-3.3,1.1-4.7,1.1-11.3,0.3l-7.6-0.9l0.5-7.3c1-11.9,0.8-15-0.9-16.6
			S221.4,470.8,218.4,471.5 M207.2,520c-0.3,6-0.5,16-0.5,22.5v11.6l-2-1.8c-8-7.4-16.2-24.8-16.2-34.4V514l3.3,0.4
			c2.6,0.3,4.1-0.2,8.1-2.3C207.9,507.7,207.7,507.4,207.2,520 M239.7,513.2c2,0.7,2.6,1.4,3.3,3.9c1.7,6.3,0.8,24.3-1.7,31.9
			c-1.2,3.9-15.2,13-16.7,10.8c-0.4-0.6-0.5-7.6-0.3-17.2c0.2-8.9,0.4-19.6,0.4-23.7v-7.5l6.3,0.5
			C234,512.1,236.8,512.5,239.7,513.2"/>
		<path d="M439,491.5c-3.3,1.3-6.7,2.3-10.2,3c-3.5,0.7-8.5,1.8-11.2,2.4c-5.5,1.4-7.9,1.5-10.7,0.7c-1.5-0.5-2.7,0-5.7,2
			c-1.7,1.2-3.5,2.3-5.5,3.1c-1.8,0.6-5.4,5.4-5.4,7.3c0,1.4,14.2,24.5,16.6,27c2.2,2.4,6.5,2.3,9.8-0.2c3.8-2.8,6.9-3.4,17.2-3.4
			c7.2,0,9.5,0.2,10.4,1.1c0.6,0.5,0.9,1.3,0.8,2.1c-6,19.6-13.8,37.1-17.3,39.5c-4.1,2.7-7.3,1.7-17.2-4.8
			c-9.5-6.4-12.2-7.3-15.6-5c-2.3,1.6-4.8,5.8-4.8,8c0.1,2.3,0.9,3.4,6.4,7.9c9.5,7.6,12.3,10.3,12.8,12c0.8,3.1,4.6,4.5,11.9,4.2
			c5.4-0.2,7.2-0.7,11.3-2.8c13.1-6.7,25.8-22.4,37.4-46.3c2.7-5.6,5.6-11.4,6.4-12.9c1.6-3,1.9-6.8,0.7-9.1
			c-1.3-1.4-2.8-2.5-4.5-3.3c-1.8-0.8-3.5-2-4.8-3.5c-3.1-4.5-8.3-5.6-14.5-3c-3.2,1.4-4.9,1.5-16.5,1.4l-13-0.1l-1.7-3.2l-1.7-3.2
			h2.1c1.1,0,5.4,0.4,9.5,0.9c4.8,0.7,9.6,0.7,14.4-0.2c4.7-0.6,9.5-0.9,14.2-0.9l7.3,0.2l2-2.5c4.9-5.8,4.1-8.4-3.4-11.1
			c-3.7-1.5-7.3-3.4-10.7-5.5C448.7,489,445.3,488.6,439,491.5"/>
		<path d="M612.8,492.7c-6.4,4.2-8.8,5.3-11,5.3c-3,0-5.2,1.4-7.1,4.2c-2.4,3.7-2,7,1.1,9c3.1,2,3.5,5.2,3,27.9
			c-0.5,17.3-0.6,18.4-2.4,21.8c-2.3,4.4-2.3,8.3-0.3,10.3c1.7,1.2,3.6,2.1,5.6,2.6c2.9,1.1,5.6,2.5,8.2,4.3c4.5,3.4,7,3.8,9.8,1.5
			c1.7-1.4,3-1.4,13.2-1.4c6.2,0,15.2-0.2,20-0.5c6.2-0.4,8.9-0.3,9.3,0.3c0.8,1.3,5.9,1,8.4-0.6c1.3-0.8,3.4-3.2,4.8-5.5
			c2-3.5,2.6-5.2,3-10.7c0.7-7.5,0.1-9.5-3-10.6s-5.5,0.5-8.2,5.2c-1.6,2.9-3.2,4.7-5.1,5.7c-5.1,2.6-20.6,3.8-32.5,2.5
			c-6.5-0.7-6.9-1.4-7.3-14c-0.2-5.5-0.2-10.4,0.2-11s3.9-1.1,8.8-1.4c7.8-0.5,8.1-0.5,8.1,1c0,3.5,3.6,5.7,7.6,4.5
			c1.9-0.5,5.3-4.8,5.3-6.7c0.4-1.9,0.8-3.9,1.4-5.8c1.7-5.7,1.3-7.8-2.3-9.6c-2.8-1.5-5.6-1-8.1,1.4c-1.7,1.5-2.6,1.7-11.3,1.7
			h-9.6v-6.6c0-4.3,0.4-7,1-7.6c0.8-0.8,4.2-1,12.8-1c11,0,12.1,0.1,14.9,1.7c2.1,1.3,3.9,3.2,5.3,5.3c3.5,5.7,4.9,7,7.7,7
			c3.5,0,5.1-1,7-4.2c1.4-2.2,1.6-3.3,1.1-6.3c-0.6-4.4-1.8-8.7-3.7-12.8c-2.2-4.2-8.3-6.8-12.8-5.4c-3.4,1-28.8,0.8-29.2-0.4
			c-0.5-1-1.2-1.8-2-2.6C621.7,488.7,618.3,489.1,612.8,492.7"/>
		<path d="M704.3,490.6c-0.9,0.5-3.8,2.2-6.5,3.7c-2.8,1.6-5.6,3.1-8.5,4.4c-3.8,1.7-5.1,3-6.4,6c-1,2.8,0.4,5.9,3.2,7l2.2,0.9
			l-0.2,21.6c-0.2,19.7-0.4,21.9-1.7,23.9c-1.7,3-1.9,6.6-0.5,9.7c1,1.4,2.3,2.6,3.8,3.5c2.2,1.5,4.3,3.3,6,5.4
			c4.8,5.7,8.8,6,12.6,1l2.1-2.7l0.4-19.3l0.4-19.3l4.4-1.5c3.8-1.4,4.5-1.4,6.1-0.4c4.4,2.8,11.8,13.4,20.1,29.1
			c8.2,15.3,13.2,22.8,18.6,27.5c4.6,4.1,7.8,4.2,13.1,0.6c2.2-1.5,4.7-2.7,7.3-3.5c2.4-0.5,4.4-2,5.8-4c1-1.2,1.7-2.5,2.2-3.9
			c0-1.7-3.2-4.9-6.3-6.3c-8.3-3.8-28.3-27.5-31.9-37.9c-0.6-1.8-1.6-3.5-2.8-5.1c-0.9-1-1.5-1.9-1.3-2c1.4-0.6,2.8-1.1,4.2-1.5
			c4.8-1.6,7.9-5.1,9.2-10.6c0.7-2.4,1.7-4.7,3.1-6.8c4.2-6,3.7-9-3-15c-4.5-4.1-6.8-4.7-11.4-3c-2.6,0.9-6,1.1-14.7,1
			s-12.1,0.1-14.7,1c-4.1,1.5-4.6,1.5-4.6,0.1c0-3.2-6.7-5.3-10.4-3.2 M738.8,506c2.7,0.5,3,1.9,1.3,5.9c-0.8,2-1.7,2.7-3.6,3.1
			c-3.8,0.8-17.8,4.8-22.8,6.6c-2.4,0.8-4.6,1.3-4.8,1.1s-0.2-1.9,0.1-3.8c0.9-5.8,7.8-12.8,11-11c2.2,1,4.8,1,7-0.1
			c2.8-1.1,5.7-1.8,8.7-2.1C736.7,505.7,737.8,505.8,738.8,506"/>
		<path d="M122.8,491.4c-1,0.5-2.6,2.4-3.6,4.2s-4.4,6-7.6,9.5c-7.4,7.7-14,16-19.8,24.9c-2.7,4-5.2,7.2-5.7,7s-3.6-4.1-7.2-8.9
			c-7.2-9.8-9.4-12.7-12.1-16c-1.1-1.3-2.6-3.2-3.4-4.1s-4.2-4.9-7.4-8.6c-7.3-8.2-8.4-8.5-17.5-3.9c-9.4,4.7-11.6,9.1-7.3,14.5
			c3.8,4.8,4.6,14.3,3.1,36.1c-0.5,7.9-1,10.7-2.6,14.3c-3.1,6.9-2.6,9.3,2.5,15.2c1.5,1.7,3.5,4,4.4,5.1c2.8,3.4,7.2,2.5,10-2.1
			c1.5-2.4,1.6-3.6,1.7-22.8c0.1-11.2,0.3-21.3,0.6-22.5c0.5-2,1.3-1.1,12.8,14.4c6.7,9.1,13,17.2,13.8,18c1.8,1.7,5.5,1.7,8.6,0
			c1-0.6,2.1-1,3.2-1.2c2,0,6.7-3,7.9-5.1c1.7-3.1,1.6-4.8-0.6-7c-1-0.8-1.6-2-1.9-3.2c0-2.4,23.2-33.8,25-33.8
			c0.4,0,0.7,18.7,0.8,41.5c0.2,39.5,0.3,41.6,1.7,43.1c2.3,2.5,5.2,2,9.8-1.5c2.1-1.7,5.6-4.2,7.6-5.4c2.4-1.5,4.3-3.6,5.7-6l2-3.5
			l-1.4-5.1c-1.4-4.6-1.5-8.3-1.8-35.1l-0.3-29.9l2.4-2.6c4.4-4.8,3-8.3-4.9-12.2c-2.1-1.1-4.1-2.3-6-3.8
			C130.3,490.6,126.4,489.5,122.8,491.4"/>
		<path d="M566.9,493.3c-4.5,1.8-64.3,2.3-69.5,0.6c-7.8-2.6-13.8,2.3-17.8,14.5c-2.6,8.2-2.3,10.5,2,11.7c3.4,1,7.2-1.1,10.3-5.9
			c1.8-2.9,3.2-4,5.4-4.8c3.3-1.1,18.8-1.6,19.8-0.6c0.7,0.6,0.5,24.3-0.2,38.2c-0.3,5.4-1,10.4-1.9,13c-2.7,8.3-1.7,10.9,6,14.3
			c2.7,1.2,5.2,2.7,7.5,4.5c3.4,3,5.8,3,8.9-0.4l2.4-2.6l0.5-29.3c0.3-16.1,0.8-31.3,1.1-33.8l0.5-4.5l9.4,0.1c11.2,0,14.1,1,17,5.5
			c2.6,3.9,6.1,5.2,9.3,3.6c3.5-1.8,4.7-4.3,4.7-9.7c0-7.4-2.3-12.3-6.5-14.6C573.1,491.6,570.7,491.7,566.9,493.3"/>
		<path d="M168.9,680.9v17.4h38.6v-6h-30.2v-9.1h8.2c4.5,0,8.5-0.3,9.1-0.7s0.9-1.6,0.8-2.8l-0.2-2.2l-8.9-0.2l-8.9-0.2l0.2-3.9
			l0.2-3.9l15-0.2l14.9-0.2v-5.3h-38.6V680.9"/>
		<path d="M252.8,680.9v17.4h7.6v-24.2l7,5.4c3.8,3,8.7,6.8,10.8,8.5s5,3.9,6.4,5s3.5,2.6,4.6,3.5c1.4,1.2,3.3,1.8,5.1,1.7h3.1
			l-0.1-17.2l-0.2-17.2l-3.5-0.2l-3.5-0.2l-0.2,12l-0.2,11.9L274,675.5c-13.7-10.6-15.8-11.9-18.3-11.9h-2.9V680.9"/>
		<path d="M345.8,680.9v17.4h38.5v-6h-30.2v-9l8.5-0.2l8.5-0.2v-5.3l-8.5-0.2l-8.5-0.2v-8.2h30.3l-0.2-2.5l-0.2-2.5l-19-0.2
			l-19.1-0.2L345.8,680.9"/>
		<path d="M429.7,680.9v17.5l4-0.2l3.9-0.2l0.4-6.4l0.4-6.4l3.9-0.1c3.9-0.2,3.9-0.1,11.6,6.6l7.8,6.7h5.7l5.7-0.1l-2-1.7
			c-1.1-0.9-4.6-3.7-7.9-6.1c-6.5-4.9-6.4-5.6,0.2-5.7c1.7,0.1,3.4-0.5,4.7-1.6c1.6-1.6,1.7-2.3,1.5-11s0.5-8.2-21.5-8.5l-18.5-0.2
			L429.7,680.9 M461.4,670.3c1.1,1.6,0.9,7.1-0.1,8.2c-0.6,0.6-4.4,0.9-12.1,0.9H438v-4.8c0-2.7,0.2-5.1,0.6-5.4s5.4-0.5,11.3-0.3
			C458.5,669.1,460.9,669.4,461.4,670.3"/>
		<path d="M520.2,664.5c-3.1,1.2-3.7,4.5-3.4,18.1l0.2,12l2.1,1.8c2.1,1.8,2.2,1.8,19.5,1.8c23.2,0,22.6,0.4,22.6-12.7v-7h-22.7
			l0.2,2.4l0.2,2.5l7.2,0.4l7.2,0.4l0.1,3.2c0.1,1.3,0,2.7-0.5,3.9c-0.3,0.6-4.8,0.8-14.1,0.7l-13.5-0.2l-0.2-11.2l-0.2-11.1h14.1
			c8.8,0,14,0.3,14.1,0.8s0.2,1.2,0.2,1.7c0.1,0.7,1.1,0.9,2.7,0.8c4.4-0.4,5.3-0.9,5.3-2.9c0-2.9-1.2-4.6-3.8-5.5
			C554.2,663.2,523,663.3,520.2,664.5"/>
		<path d="M610.6,673.2l9.6,9.6v15.5h8.3v-15.5l9.6-9.6l9.7-9.7h-9.7l-6.4,6.8l-6.5,6.9l-6.9-6.9l-6.8-6.8h-10.6L610.6,673.2"/>
	</g>
</g>
</svg>
