<?xml version="1.0" encoding="utf-8"?>
<!-- Generator: Adobe Illustrator 22.0.1, SVG Export Plug-In . SVG Version: 6.00 Build 0)  -->
<svg version="1.1" id="Layer_1" xmlns="http://www.w3.org/2000/svg" xmlns:xlink="http://www.w3.org/1999/xlink" x="0px" y="0px"
	 viewBox="0 0 142 65.9" style="enable-background:new 0 0 142 65.9;" xml:space="preserve">
<title>Obszar roboczy 1</title>
<path d="M98.1,43.3c0.3,0.3,0.1,0.8-0.3,1.7s-1.1,3.1-0.5,3.4s1.5,0,2.6-0.6c1-0.6,2-1.2,2.9-1.9c0.9-0.6,1.1-1.2,1.4-0.9
	s-0.3,0.9-0.5,1.7s0.2,2.1,1.7,1.5c1.6-0.8,3-1.8,4.4-2.9c0.9-0.8,1.9-1.4,3-2c1-0.4,2.4-0.7,2,0.3s-1.4,4.3-0.4,4.7
	s2.6,0.1,4.1-0.8c1.4-0.8,2.8-1.7,4.1-2.7c0.8-0.5,1-1.3-0.3-0.5c-1.1,0.7-2.2,1.3-3.3,1.9c-1,0.4-2.4,1.1-1.9-1
	c0.3-1.3,0.8-2.6,1.5-3.8c0.3-0.6,0.6-1.1,1-1.6c3.2-3.2,10-10.1,15-16.1s4.8-8.2,3.6-9c-1.6-0.9-7.2-2.1-22,25.2
	c-0.2,0.2-0.4,0.4-0.7,0.6c-2.4,1.7-4.3,2.9-5.1,3.4s-2.4,1.7-3.1,2s-1.3,0.3-0.8-0.8s1.2-2,1.1-2.7s-0.2-1-0.9-1s-0.8-0.1-1.2-0.7
	s-2-0.7-2.3-0.1s-0.4,1.2,0.6,1.5s1.3,0.6,0.8,1.3c-0.8,1.1-1.9,2.1-3.1,2.7c-1.3,0.6-2.2-0.1-1.7-1.5c0.4-1,1.1-1.9,2-2.4
	c0.7-0.5,1.3-1.3,0-1.5s-3.1,0.6-4.2,1.3s-3,1.9-4.1,2.5s-1.5,0.9-2.3,0.8s-1.1-0.4-0.6-1.1s1.1-2-0.3-2.2s-1.6,1-1.8,1.5
	c-0.1,0.5-0.2,1.1-0.2,1.6c0,0-0.8,1.4-1.9,1.6s-1.8,0.2-1.1-1.1c0.5-1,1.5-3.2,2-4.3c0.1-0.3,0.2-0.5,0.3-0.8
	c0.2-0.4,6.7-6.2,12.3-11.7s9.5-12.8,7.1-13.8c-4.3-2.2-17,17-18.7,19.7s-3.2,5.2-4.6,6c0,0,0,0-0.3,0.2c-1.6,1-4.1,2.6-5.2,3.3
	c-0.8,0.6-1.7,1.2-2.6,1.6c-1,0.4-1.4,0.1-1-0.8s1.6-2.2,1.3-3.1s-0.8-0.6-1.6-0.6c-0.6-0.9-0.8-1.3-1.8-1.3s-1.7,1.3-0.8,1.8
	c0.4,0.3,0.9,0.5,1.4,0.7c0,0,0.4,0.3-0.3,1s-1.4,1.8-2.6,2.4s-2.7,0.3-2.2-1c0.4-1.1,1.1-2,2-2.7c0.8-0.5,1.3-1.6-0.1-1.5
	c-2,0.2-3.9,1-5.6,2.2c-2.1,1.4-3.6,2.3-4.5,2.9s-1.8,0.7-1.8,0.1c0-0.8,0.3-1.5,0.8-2.1c0.5-0.5,1-1.1,1.4-1.7
	c-0.2-0.7-0.8-0.6-1.1-0.8S59,41,59.4,40.7s-0.3-1.7-1.7-0.8c-0.9,0.7-1.2,1.6-2.1,2.1c0,0-1.5,1-2.2,1.4c0,0-6.3,3.7-11,3.1
	c-9.5-1.4-3.2-13.2-2.2-14.9s1.9-5.1,6.8-5.5c4.4-0.4,9.8-2,16.6-5.4S78,8.5,75.5,5.8s-11.2,0.7-19.6,6c-5.5,3.7-10.4,8.2-14.4,13.5
	l-6,2.3c0,0,6.6-13.9,8.6-17s6.3-3.6,6.3-3.6V6.3c-1.6,0.1-3.2,0.5-4.6,1.1c-2,0.8-4.1,1.3-6.2,1.4c-1.3,0.1-2,0.1-1.5-0.6
	c1.7-2.2,3.8-4.1,6.2-5.5c0.8-0.3,0.4-0.6,0.4-0.6C44,2,40.6,3.4,37.4,7.2c-0.7,0.9-1,1.4-2.6,1.4c-2.9,0-16.4,2.2-17.3,11
	c-0.2,4.1,3.8,5.1,7.4,4.5s4-1,3.6,0.6c-1.1,4.6-2.9,9-5.4,13c-0.4,0.7,0.2,1,0.6,0.6s2.9-3.1,4.2-4.3c0.6-0.5,1.2-1,1.9-1.4
	c0,0,0.8,0.2-2.2,4.8S17,53.5,7.7,52.7c-3.5-0.3-4.1-4-2.7-7.5c1.2-3.1,5-8.1,8.7-7.9c1,0,1.9,0.4,2.6,1.1c1.1,1,4.2-1.6,2.4-3.1
	s-6.9,0.3-10.4,3.1c-4.1,3.3-9.9,13.8-0.8,15.5c10.1,1.6,24.7-16.8,27-24l5.1-2.2c0,0-9.9,15-3.4,19.2s16.2-2.1,18-3
	c2.4-1.3,2.8-1.6,3.2-1.5s0.9,0.3,0.3,1c-0.8,0.8-1.4,1.8-1.7,2.9c-0.3,1.4-0.1,2.4,0.6,2.4c1.2-0.2,2.3-0.7,3.2-1.5
	c1.1-0.8,3.2-2.5,4.3-3.1s2-1.3,2.4-0.8s-0.1,1.3-0.4,2.1s-1,2.7-0.1,3s1.5,0,2.7-0.7c1-0.5,1.9-1.2,2.8-1.8c0.7-0.6,1-1,1.2-0.8
	s-0.3,0.5-0.5,1.3s-0.2,1.5,0.4,1.9s1.7,0,2.7-0.8s2.8-2,3.9-2.8c0.8-0.6,1.7-1.1,2.6-1.5c0.8-0.3,1.1-0.6,1.4-0.3s0.2,0.6-0.3,1.5
	s-1.1,4.2,0,4.6s2.4-0.3,3.6-1.1s2.3-1.8,2.3-1.8c0.5,0.4,1,0.6,1.6,0.6c1-0.1,1.9-0.4,2.7-0.9c0.8-0.4,1.7-1.3,2.9-1.8
	S97.9,42.9,98.1,43.3z M121,37.2c0.4-1.8,3.4-7.2,7.6-13.3s7.6-8.1,8.4-7.5c1,0.7,0.2,2.7-2,5.8s-11.7,13.2-12.6,14
	S120.8,37.6,121,37.2z M90.2,35.8c7.4-12.4,14.4-19.5,15.5-19.2s-0.4,4.6-4.4,9.2c-3.3,3.8-6.8,7.3-10.5,10.6
	C89.7,37.2,89.6,36.8,90.2,35.8z M59.8,11.3c8.1-5.8,13.8-6,14.7-5c1.3,1.6-1.5,6.1-8,11c-6.2,4.7-16.8,7.2-19.7,7.3
	S51.8,17.1,59.8,11.3z M26.4,22.3c-0.9-0.1-5.2-1.7-2.3-7.6S35,9.9,35,9.9c0.1,0.5-0.3,0.7-1.3,2.5s-3.4,6.9-4.1,8.6
	S27.2,22.4,26.4,22.3L26.4,22.3z M30.6,31l-4.1,3.4c0,0,2.1-4.7,4.3-11.5s3.6-9.1,5.5-11.6S43.1,9,43.1,9c-1.8,1.2-4.9,5.5-6.9,9.8
	S30.6,31,30.6,31z M135.1,47.8c0,0.7,0.6,1,1.2,1.4s0.6,0.6,0.2,1.2s-1.1,2-4.8,3.5s-7.1,0.2-9.2-0.7c-2.5-1.1-5.2-1.9-8-2.2
	c-2.3-0.1-4.8,1.7-4.8,1.7c-1.9-1.1-4-1.8-6.2-2.1c-1.8-0.2-3.7,0-5.4,0.7c-0.8,0.4-2.2,1.3-1.9,1.5s0.9-0.5,1.5-0.8
	c1.3-0.5,2.7-0.6,4-0.3c2.1,0.4,4.1,1.1,5.9,2.2c1.3,0.8,1.3,0.2,2.8-1c1.1-1,2.6-1.3,4.1-0.9c1,0.3,3.4,1.2,6.3,2.5
	c2.8,1.1,5.8,1.3,8.7,0.8c2.9-0.3,5.5-1.9,7.3-4.2c1.8-2.4,1-3.3,0.5-4.1S135.1,47.1,135.1,47.8z"/>
<path d="M48.1,60.2C48.1,60.2,48,60.2,48.1,60.2l-0.5,1.3c-0.1,0.2-0.1,0.3-0.1,0.5c0,0.2,0.1,0.3,0.3,0.3h0.1c0.1,0,0.1,0,0.1,0.1
	s0,0.1-0.1,0.1h-0.9h-1c-0.1,0-0.2,0-0.2-0.1s0-0.1,0.1-0.1h0.3c0.4-0.1,0.6-0.3,0.7-0.8L49,56c0.1-0.2,0.2-0.3,0.2-0.3
	s0.1,0.1,0.2,0.3c0.2,0.5,1.6,4,2.2,5.4c0.3,0.8,0.6,0.9,0.8,1c0.1,0,0.2,0,0.4,0c0.1,0,0.1,0,0.1,0.1s-0.1,0.1-0.4,0.1s-1,0-1.7,0
	c-0.2,0-0.3,0-0.3-0.1s0-0.1,0.1-0.1c0.1,0,0.1-0.1,0.1-0.2c0,0,0,0,0,0l-0.7-1.9c0,0-0.1-0.1-0.1-0.1L48.1,60.2z M49.8,59.8
	C49.8,59.8,49.9,59.8,49.8,59.8l-0.8-2.2v-0.1c0,0,0,0,0,0.1l-0.8,2.2v0.1L49.8,59.8z"/>
<path d="M54.1,61.5c0,0.6,0.1,0.8,0.3,0.8c0.1,0,0.3,0,0.4,0c0.1,0,0.1,0,0.1,0.1s-0.1,0.1-0.2,0.1h-1h-0.8c-0.1,0-0.2,0-0.2-0.1
	s0.1-0.1,0.1-0.1c0.1,0,0.2,0,0.3,0c0.2,0,0.2-0.2,0.2-0.9l0.1-4.4c0-0.2,0-0.2,0.1-0.2s0.2,0.1,0.3,0.2s1.2,1.3,2.4,2.4
	c0.5,0.5,1.5,1.6,1.7,1.7l0,0l0-3.3c0-0.5-0.1-0.6-0.3-0.7c-0.1,0-0.3,0-0.4,0c-0.1,0-0.1,0-0.1-0.1s0.1-0.1,0.2-0.1h1
	c0.1,0,0.4,0,0.8,0c0.1,0,0.2,0,0.2,0.1s0,0.1-0.1,0.1c-0.1,0-0.2,0-0.2,0c-0.2,0.1-0.3,0.2-0.3,0.6l-0.1,4.7c0,0.2-0.1,0.2-0.1,0.2
	c-0.1,0-0.2-0.1-0.3-0.2c-0.5-0.4-1.4-1.4-2.2-2.1s-1.7-1.7-1.8-1.8l0,0L54.1,61.5z"/>
<path d="M61.5,61.5c0,0.6,0.1,0.8,0.3,0.8c0.1,0,0.3,0,0.4,0c0.1,0,0.1,0,0.1,0.1s-0.1,0.1-0.2,0.1h-1h-0.8c-0.1,0-0.2,0-0.2-0.1
	s0-0.1,0.1-0.1c0.1,0,0.2,0,0.3,0c0.2,0,0.2-0.2,0.2-0.9l0.1-4.4c0-0.2,0-0.2,0.1-0.2s0.2,0.1,0.3,0.2s1.2,1.3,2.4,2.4
	c0.5,0.5,1.6,1.6,1.7,1.7l0,0l-0.1-3.3c0-0.5-0.1-0.6-0.3-0.7c-0.1,0-0.3,0-0.4,0c-0.1,0-0.1,0-0.1-0.1s0.1-0.1,0.2-0.1h1h0.8
	c0.1,0,0.2,0,0.2,0.1s0,0.1-0.1,0.1c-0.1,0-0.2,0-0.2,0c-0.2,0.1-0.3,0.2-0.3,0.6l-0.1,4.7c0,0.2-0.1,0.2-0.1,0.2
	c-0.1,0-0.2-0.1-0.3-0.2C65,62,64,61.1,63.2,60.3s-1.7-1.7-1.8-1.8l0,0L61.5,61.5z"/>
<path d="M67.4,59.7c0-1.6,1.3-2.9,3-2.9c0.1,0,0.2,0,0.3,0c1.9,0,3.1,1.1,3.1,2.8c0,1.7-1.3,3-3,3c-0.1,0-0.2,0-0.2,0
	c-1.6,0.1-3-1.1-3.1-2.6C67.4,59.8,67.4,59.8,67.4,59.7z M72.7,59.8c0.2-1.3-0.8-2.5-2-2.6c-0.1,0-0.1,0-0.2,0
	c-0.8,0-1.9,0.5-1.9,2.3c0,1.5,0.9,2.7,2.3,2.7C71.4,62.2,72.7,61.9,72.7,59.8z"/>
<path d="M79.1,58.5v-1.1c0-0.2,0-0.3-0.1-0.3c-0.3,0.1-0.7,0.3-1,0.4c0,0-0.1,0-0.1,0c0,0-0.1,0-0.1-0.1c0-0.1,0-0.1,0.1-0.1
	c0,0,1.7-1.1,2-1.3c0.1-0.1,0.1-0.1,0.2-0.1c0.1,0,0.1,0.1,0.1,0.2s0,0.9,0,2.3v1.6c0,0.8,0,1.6,0,2s0.1,0.4,0.3,0.5
	c0.2,0,0.4,0.1,0.6,0.1c0,0,0.1,0,0.1,0.1c0,0,0,0,0,0c0,0.1,0,0.1-0.1,0.1h-1.5h-1.5c-0.1,0-0.2,0-0.2-0.1c0,0,0-0.1,0.1-0.1
	c0,0,0,0,0,0c0.2,0,0.5,0,0.7-0.1c0.3-0.1,0.3-0.2,0.3-0.5s0-1.1,0-2L79.1,58.5z"/>
<path d="M86.9,58.2c0,2.4-2.1,4-3.2,4.5c-0.1,0-0.1,0-0.2,0c0,0-0.1,0-0.1-0.1s0.1-0.1,0.1-0.2c1.4-0.9,2.2-2.4,2.3-4
	c0-1.5-0.7-2.2-1.3-2.2s-1,0.6-1,1.3c0,1.3,0.9,1.7,1.2,1.7c0.2,0,0.4,0,0.6-0.1c0.1,0,0.1-0.1,0.2-0.1s0.1,0,0.1,0.1
	c0,0,0,0.1,0,0.1c-0.3,0.3-0.7,0.4-1.2,0.4c-0.9,0.1-1.7-0.7-1.8-1.6c0,0,0-0.1,0-0.1c0-1.1,0.9-2,2-2c0.1,0,0.2,0,0.2,0
	c1.2,0,2.1,1,2.1,2.2C86.9,58.1,86.9,58.1,86.9,58.2z"/>
<path d="M87.7,60.1c0.2-1.9,1.4-3.6,3.2-4.3c0.1,0,0.1,0,0.2,0c0,0,0.1,0,0.1,0.1c0,0,0,0,0,0c0,0.1-0.1,0.1-0.2,0.2
	c-1.4,0.9-2.3,2.4-2.2,4.1c0,1,0.4,2.1,1.3,2.1c0.6,0,1.1-0.5,1.1-1.5c0-1.2-0.7-1.7-1.2-1.7c-0.2,0-0.3,0-0.5,0.1
	c-0.1,0-0.1,0-0.2,0c0,0-0.1,0-0.1-0.1s0-0.1,0.1-0.1c0.3-0.2,0.7-0.3,1.1-0.3c1,0,1.8,0.7,1.8,1.7c0,0,0,0,0,0.1
	c0,1.2-1,2.2-2.2,2.2c0,0-0.1,0-0.1,0c-1.2,0-2.3-0.9-2.3-2.2C87.7,60.3,87.7,60.2,87.7,60.1z"/>
<path d="M92.9,60.1c0.2-1.9,1.4-3.6,3.2-4.3c0.1,0,0.1,0,0.2,0c0,0,0.1,0,0.1,0.1c0,0,0,0,0,0c0,0.1-0.1,0.1-0.2,0.2
	c-1.4,0.9-2.3,2.4-2.2,4c0,1,0.4,2.1,1.3,2.1c0.6,0,1.1-0.5,1.1-1.5c0-1.2-0.7-1.7-1.2-1.7c-0.2,0-0.3,0-0.5,0.1c-0.1,0-0.1,0-0.2,0
	c0,0-0.1,0-0.1-0.1s0-0.1,0.1-0.1c0.3-0.2,0.7-0.3,1.1-0.3c1,0,1.8,0.7,1.8,1.7c0,0,0,0,0,0.1c0,1.2-0.9,2.2-2.1,2.2
	c-0.1,0-0.1,0-0.2,0c-1.2,0-2.3-1-2.3-2.2C92.9,60.3,92.9,60.2,92.9,60.1z"/>
</svg>
