<?xml version="1.0" encoding="utf-8"?>
<!-- Generator: Adobe Illustrator 22.0.1, SVG Export Plug-In . SVG Version: 6.00 Build 0)  -->
<svg version="1.1" id="Layer_1" xmlns="http://www.w3.org/2000/svg" xmlns:xlink="http://www.w3.org/1999/xlink" x="0px" y="0px"
	 viewBox="0 0 1390 847.5" style="enable-background:new 0 0 1390 847.5;" xml:space="preserve">
<title>Artboard 2 copy 18</title>
<g id="Layer_1_1_">
	<g id="_grupa_">
		<g id="_grupa_2">
			<path id="_ścieżka_złożona_" d="M525.5,671.7l-0.2,28.2l-9,1.7l0.6-70.4l24.5-4.7c6.3-1.2,11.4-0.2,15.3,3s5.9,7.9,5.8,14.1
				c-0.1,6.8-2,12.4-5.7,16.7s-9,7.1-15.8,8.5L525.5,671.7z M525.6,664.2l15.5-3c3.7-0.6,6.9-2.6,9.1-5.6c2.2-3,3.4-6.6,3.4-10.2
				c0-4.1-1-7.3-3-9.4c-2-2.1-5.1-2.8-9.3-2l-15.5,3L525.6,664.2z"/>
			<path id="_ścieżka_złożona_2" d="M592.8,687l-9,1.7l0.6-70.4l9-1.7L592.8,687z"/>
			<path id="_ścieżka_złożona_3" d="M638.2,660.9l1.6,5h0.3l1.3-5.5l14.4-55.6l9.7-1.9l-21.4,74.4l-7.7,1.5l-25.5-65.5l9.7-1.8
				L638.2,660.9z"/>
			<path id="_ścieżka_złożona_4" d="M733.5,631.8c-0.1,9.3-2.4,16.9-6.8,22.9c-4.3,6-10.9,10-18.2,11.2
				c-6.6,1.4-13.5-0.6-18.3-5.4c-5.2-4.9-7.8-11.6-7.7-20l0.1-12.6c0.1-9.2,2.2-16.8,6.4-22.9c4.1-5.9,10.4-10,17.5-11.2
				c6.8-1.5,13.9,0.5,18.9,5.3c5.4,4.9,8.1,11.6,8,19.9L733.5,631.8z M724.6,620.8c0.1-6.8-1.6-11.9-5-15.3c-3.4-3.5-7.7-4.7-13-3.7
				c-4.5,0.8-8.1,3.5-10.8,8c-2.7,4.5-4.1,9.9-4.1,16.3l-0.2,12.7c-0.1,6.8,1.5,12,4.7,15.5s7.3,4.8,12.4,3.8
				c4.8-0.9,9-3.9,11.5-8.2c2.9-4.5,4.3-10,4.4-16.5L724.6,620.8z"/>
			<path id="_ścieżka_złożona_5" d="M774.3,635l1.6,5h0.3l1.3-5.5l14.4-55.6l9.7-1.9l-21.4,74.4l-7.7,1.5L747,587.4l9.7-1.8
				L774.3,635z"/>
			<path id="_ścieżka_złożona_6" d="M853.3,619.3l-26,5l-6.1,19.3l-9.2,1.7l25.1-75.1l7.6-1.5l23.4,65.8l-9.2,1.8L853.3,619.3z
				 M830,615.8l20.7-4l-9.8-29.4h-0.3L830,615.8z"/>
			<path id="_ścieżka_złożona_7" d="M896.5,598.7l-0.3,30.5l-9,1.7l0.7-70.4l23.1-4.4c6.5-1.2,11.6-0.5,15.4,2.3
				c3.8,2.7,5.7,7.3,5.6,13.7c0,3.6-0.9,7.1-2.7,10.3c-1.9,3.1-4.5,5.7-7.5,7.6c3,0.5,5.7,2.3,7.3,4.8c1.7,2.9,2.5,6.3,2.4,9.7v6.6
				c-0.1,2,0.1,3.9,0.6,5.8c0.3,1.4,1.1,2.8,2.2,3.8v1.2l-9.3,1.8c-1.3-1.1-2-2.7-2.1-4.4c-0.3-2.2-0.4-4.4-0.4-6.5l0.1-6.4
				c0-4-0.9-7-2.7-8.8s-4.4-2.5-7.7-1.8L896.5,598.7z M896.5,591.2l13.1-2.5c4.3-0.8,7.6-2.5,9.9-5c2.3-2.8,3.6-6.3,3.5-9.9
				c0-4.2-0.9-7.1-2.8-8.8c-1.9-1.7-5.1-2.1-9.4-1.3l-14,2.7L896.5,591.2z"/>
		</g>
		<g id="_grupa_3">
			<path id="_ścieżka_" d="M444.8,656.3l-8.8-2.1c6.1-25.7,21.8-44.7,47.9-58.1c22.2-11.4,49.2-17.1,73-22.2
				c4.1-0.9,8.1-1.7,12.1-2.6c2.7-0.5,259.5-51.7,304.7-61.7c4-0.9,8-1.7,12.1-2.6c47.7-10.1,101.7-21.6,114.1-73.5l8.8,2.1
				c-6.2,25.7-21.8,44.7-47.9,58.1c-22.2,11.4-49.2,17.1-73.1,22.2c-4.1,0.9-8.1,1.7-12.1,2.6c-45.3,10-302.2,61.2-304.8,61.7
				c-3.9,0.9-7.9,1.7-12,2.6C511.2,592.9,457.2,604.4,444.8,656.3z"/>
		</g>
		<g id="_grupa_4">
			<path id="_ścieżka_2" d="M443.9,738.2l-6.8-1.6c11.1-46.4,51.4-62.7,89.3-72.5l1.8,6.8C492.2,680.2,454.1,695.4,443.9,738.2z"
				/>
		</g>
		<g id="_grupa_5">
			<path id="_ścieżka_3" d="M918.4,594l-1.8-6.8c35.9-9.3,74-24.5,84.3-67.3l6.8,1.6C996.7,567.9,956.4,584.2,918.4,594z"/>
		</g>
		<g id="_grupa_6">
			<path id="_ścieżka_4" d="M444.8,821.3l-8.8-2.1c6.1-25.7,21.8-44.7,47.9-58.1c22.2-11.4,49.2-17.1,73-22.2
				c4.1-0.9,8.1-1.7,12.1-2.6c2.7-0.5,259.5-51.7,304.7-61.7c4-0.9,8-1.7,12.1-2.6c47.7-10.1,101.7-21.6,114.1-73.5l8.8,2.1
				c-6.2,25.7-21.8,44.7-47.9,58.1c-22.2,11.3-49.2,17.1-73,22.2c-4.1,0.9-8.1,1.7-12.1,2.6c-45.3,10-302.2,61.2-304.8,61.7
				c-3.9,0.8-7.9,1.7-12,2.6C511.2,757.9,457.2,769.4,444.8,821.3z"/>
		</g>
		<g id="_grupa_7">
			<g id="_grupa_8">
				<path id="_ścieżka_złożona_8" d="M414.8,164.4c-13.1-12.1-35,12.7-56.5,50c-26.7,9.6-64.1,17.6-95.3,19.3
					c-25.8,1.4-82.3-2.4-113.5-8.2c-24.7-6.6-58.1-14.4-79.4-15c-11.7-0.3-21.6,3.4-22,15.6c-0.3,8.7,8.7,16.6,23,12.4
					c19.7-5.8,47.4-6.7,70.1-6.2c-22,1.1-45.8,5-62.3,15.4c-9.9,6.2-27.5,15-19.9,31.4c3.7,7.9,18.9,6.8,27.7-5.3
					c15.2-20.9,35.8-31.4,55.2-36.4c-13.5,6-25.5,15.1-35,26.4c-13.3,16-21.5,32.7-21.4,43.5c0.1,6.4,3.2,11,8.6,12.5
					c2.1,0.7,4.3,1,6.5,1c3.1,0,6.1-1,8.6-2.8c5.1-3.9,7.7-11.3,7.6-22.1c0-4.1,1.7-19,9-33.3c21.6-28.8,49.2-13.1,139.2-14.4
					c31.6-0.4,58.7-4.6,81-11c-12.8,25.2-24,51.1-33.7,77.6c-22.2,61.3-41.6,123.5-64.9,184.4c-20.3,53.1-39.9,112.2-73.4,158.9
					c-11.5,16-26.8,30-45.1,37.7c-13.4,5.7-30.5,9.1-44.3,2.9c-16.2-7.2-21.9-28.1-21.5-44.4c0.7-24.3,7.9-56,27.8-72.1
					c4.2-3.4,9.3-5.8,14.8-5.6c2.7,0.1,5.3,0.7,7.8,1.8c8.8,3.9,9.1,12.1,6.6,20.2c-0.1,0.2-0.2,0.7-0.3,0.9c-0.5,1.5-1.2,3-2,4.4
					c-0.4,0.7-0.8,1.4-1.1,2.1c7.6-3.8,11.4-7.4,14.8-12.6c2.7-5.1,4.2-10.9,2.5-16.3c-4.1-13.3-17.8-22.3-36.5-18.8
					c-15.6,2.9-29.4,15.6-38,29c-17.2,26.8-23.2,54.4-19.9,83c2,17.5,10.2,35.5,24.3,46.9c15.6,12.7,37.4,13.3,55.9,7.5
					c25.7-8,49.2-27.8,65.6-48.5c42.2-53.2,62.6-117.9,85.3-180.7c18-49.8,32.1-100.8,50.1-150.7c5.2-14.4,10.5-28.8,15.6-43.2
					c10.1-28.7,20-52.3,29.1-71.1C414.7,211.2,432.6,181,414.8,164.4z M383.6,202.8c-1.3,0.9-2.8,1.7-4.4,2.5
					c14.7-24.6,26-34.1,30.4-29.3C412,178.6,405.6,188.9,383.6,202.8L383.6,202.8z"/>
			</g>
			<g id="_grupa_9">
				<path id="_ścieżka_złożona_9" d="M638,353.4c-3.2-16.6-11.1-28.7-21.3-32.3c-17-6-38.6,8.6-55.3,34.7
					c-8-4.7-13.8-12-18.7-21.4c0,0-27.9,27.6-51.6,60.4l19-54.1l-21.2,4.6c-59.6,138.2-74.9,152-87,156.2s-16-11.9-12.6-22.4
					l42.4-121.8l-21.1,4.3l-11.9,34.1c-3.3-13.6-10-23.4-19.8-26.9c-23.3-8.2-55.2,22.1-71.3,67.8s-10.3,89.3,13,97.6
					c15.6,5.5,35.1-6.4,51.1-28.6c3.2,8.4,9,17.4,19.1,17.4c11,0,29.6-0.1,58.6-65.6l-20.3,57.6l1.4-0.3l19.7-3.9l22.3-63.4
					c26.8-53.5,69-97.3,69-97.3s3.2,7.6,13.7,16c-3.9,7.4-7.2,15-9.9,22.9c-16.1,45.7-10.3,89.3,12.9,97.5s55.2-22.2,71.3-67.8
					c6.8-19.2,9.7-38.1,9-54.1c0.8-0.4,1.5-0.9,2.3-1.3c-0.9-3.3-1.3-6.7-1.5-10.1C639.2,353.4,639.2,353.1,638,353.4z M379,452.5
					l-3,8.7c-12,31.6-32,52.9-45.5,48.1c-14-4.9-15.8-36.2-3.9-69.8s32.8-56.9,46.8-51.9C386.8,392.4,389,420.9,379,452.5z
					 M611.2,339.9c5.6,2,10.1,11.8,11.7,20.5c-13,5.8-29.6,9.3-45.3,2.8C588.2,347.4,602.1,336.7,611.2,339.9z M615.1,409.7
					c-11.9,33.6-32.8,56.9-46.8,51.9s-15.8-36.2-3.9-69.8c1.9-5.6,4.2-11.1,6.9-16.4c0.4,0.2,3.3,1.4,3.5,1.5
					c13.7,6,29.2,3.9,43.5-0.4c0.4-0.1,4.9-1.5,4.9-1.8C622.7,386,619.9,396.1,615.1,409.7z"/>
			</g>
			<g id="_grupa_10">
				<path id="_ścieżka_złożona_10" d="M1188,159.9c6.3-8.2,12.5-16.5,18.3-25c0-0.1,0.1-0.2,0.1-0.2c36.8-50.6,53-74,53.6-90.9
					c0.8-21.2-29.3-37.3-64.7,39.8c-9.8,21.5-34.3,78.6-47.7,109.8c-18.9,21.2-39.7,40.6-62.1,58.1c-5.6,4.3-11.3,8.6-17.2,12.6
					c2.7-5,4.1-10.6,4.1-16.3c0.3-34-61.2-21.8-57.9,22.1c0.3,3.6,0.8,7.1,1.6,10.6c-0.5-0.1-0.9-0.2-1.4-0.2c-5.1-2-9.6-5.4-13-9.7
					c-6-7.6-3.2-17.9,2.6-29.2c0,0-1.9,0.3-4.6,0.9l-18.9,3.8l-75,149.4c-2.7-26.2-6.8-66.1-7.6-75c-0.5-5.5-1-11.2-1.2-16.8
					c23.4-19,23.6-38.2,16.3-42.1c-12.9-6.8-28.3,7.2-30.4,41.5c-6.8,3.1-13.9,5.5-21.2,7.3c-2.4-17.5-9.6-30.3-21.2-34.4
					c-7.3-2.6-15.5-1.4-23.7,3c-6.8,2.9-13.1,5.7-19,8.5c-4.7,6.2-1.6,4.5-5.6,11.1c2.9-1.3,1.5,0.1-0.6,3
					c-9.7,12.9-17.2,27.2-22.5,42.4c-16.1,45.7-10.3,89.3,12.9,97.5s55.3-22.2,71.4-67.8c6.3-17.8,9.2-35.2,9.1-50.4
					c6.9-2.7,13.6-6,20.1-9.7c0.1,4.1,0.3,8.5,0.8,13c1.5,15.1,8.8,95.7,8.8,95.7l23.5-4.8l71.1-141.8c8,9.5,19.5,12.7,31.3,12.3
					c10.4,27.5,36.5,34.3,29.8,62.8c-9.7,41.8-71.2,36.2-71.3,2.7c0.4-13.9,5.5-17.1,9.1-22.8c1.9-3-27.9,15.9-13.1,49.5
					c18.1,41.3,92.4,21.7,97.3-29.4c3.5-36.3-25.8-43-39-64.6l0.7-0.1c2-0.5,3.9-1,5.9-1.6c4.9-1.2,9.7-3,14.2-5.3
					c11.7-5.1,22.8-11.9,33.2-19.2c19-13.1,36.6-28.4,53.1-44.6l-59.3,169.2l1.4-0.4l19.7-3.9l44.9-128c10.8-12,31.7-34.3,42.7-25.9
					c16,12.3-48.3,72.1-48.3,72.1c19-5.2,40.5,10.9,46.4,64.5l19.1-3.8c-0.5-2.5-1.1-5.9-1.6-8.2c-8.1-42-23.1-56-41.5-64.6
					c0,0,65.2-47.4,48.2-77.8c-10.3-18.3-39.7,5.2-57.1,20.9l7-20c0,0,1.3-4.5,6.9-20.5c0.1-0.2,0.2-0.6,0.2-0.6
					C1174.4,178.4,1181.6,168.7,1188,159.9z M900.6,278.3c4.5-12.4,14-9,10.6-0.7c-3.2,6.7-8,12.5-13.9,16.9
					C897.7,288.9,898.8,283.5,900.6,278.3z M839,364.4c-11.9,33.6-32.8,56.9-46.8,51.9s-15.8-36.2-3.9-69.8s32.8-56.9,46.8-51.9
					S850.9,330.8,839,364.4z M1052.4,255.3c-2.8,10.1-12.4,21.1-24.5,24.4c-1.3-3.2-2.1-6.6-2.6-10.1
					C1020.8,234.4,1059.2,231.2,1052.4,255.3L1052.4,255.3z M1205.5,87.4c13.9-31.7,33.4-62.4,35.6-48.7c0.7,4.4-0.6,9.1-2,13.3
					c-2.4,6.7-5.2,13.3-8.6,19.6c-4.4,8.7-9.3,17.2-14.3,25.7c-6.2,10.6-12.6,22.1-19.3,32c-3,4.4-5.5,8-8.6,12.3s-6.4,9.1-9.5,13.4
					C1186.8,133.2,1196.4,108.2,1205.5,87.4z"/>
			</g>
			<g id="_grupa_11">
				<path id="_ścieżka_złożona_11" d="M781.3,291.8c-17.7,7-25.3,11.5-35.5,18.7c-0.2-0.5-1-3-1.2-3.5
					c-4.6-10.8-16-15.3-27-12.4c-3.5,1-6.9,2.4-10,4.2c-3.1,1.8-6,3.9-8.6,6.5c-3.8,3.9-6.6,8-10,12.3c-3.3,4.3-7.1,8.1-11.3,11.5
					c-11.2,8.8-27.3,19.2-40.7,24.3c-4.3,1.6-14.9,16.5-13.8,21.3c25.6-9.7,43.9-23.9,54.9-33.1c3.7-3.1,7.2-6.4,10.5-10
					c0.2,5.1,0.9,10.2,2,15.2c3.7,14.3,12.5,25,22.7,35.2c3.1,3.1,5.8,6.6,8.1,10.4c3.8,6.4,4.3,13.9,3.4,21.2
					c-5.4,42.6-67.6,42.3-71.1,9c-1-13.9,3.8-17.6,6.7-23.6c1.5-3.2-26.1,18.6-8,50.6c22.2,39.3,94.1,12.2,93.7-39.2
					c0-4-0.4-7.9-1.3-11.8c-0.7-3.3-1.9-6.4-3.4-9.5c-1.4-2.7-3.1-5.3-5-7.6c-1.9-2.3-4-4.4-6.2-6.4c-2.2-2-4.5-3.8-6.9-5.5
					c-4.5-3.3-9.3-6.4-13.4-10.4c-4-3.9-6.9-8.7-8.7-14c0-0.1-0.1-0.2-0.1-0.3c-2.5-8.1-3.4-15.7-0.9-24c3.9-13.1,24.1-21.8,32.6-11
					c1.9,2.4,3.2,5.1,3.7,8.1c-21.6,19.4-19.4,33.8-12.2,37.9c14.6,8.4,28.8-21.3,23.8-38.5c7.9-5,16.4-8.9,25.3-11.7
					c12.4-3.8,20.1-5.8,20.1-5.8l20.3-19.9C813.8,280.2,786.5,289.5,781.3,291.8z M736,334.8c-4.8,14.9-10.2,9.5-7.6,3
					c2.3-4.7,5.5-8.9,9.4-12.4C737.7,328.6,737,331.8,736,334.8L736,334.8z"/>
			</g>
			<g id="_grupa_12">
				<path id="_ścieżka_5" d="M727.2,265.6c0,0,12.5-62.9,63.1-103.5c-30.9,18.9-53.8,39.1-71.6,86.6l-10.6-29.1l-8.8,2l16.4,46.2
					L727.2,265.6z"/>
			</g>
			<g id="_grupa_13">
				<path id="_ścieżka_6" d="M1346.6,86.6l2,11.6c-42.8,21.9-57.1,72.9-57.1,72.9S1292.1,116.1,1346.6,86.6z"/>
			</g>
			<g id="_grupa_14">
				<path id="_ścieżka_7" d="M1331.4,175c-13.1,36.6-21.1,69.7-42,109.2c-10.1,19.1-18.3,30.5-30.7,39.9
					c-3.2,2.4-9.4,5.5-13.6,5.7c-7.2,0.3-11.2-5.4-11.9-11.6c-1.8-13.9,2.6-29.4,6.2-42.7c1.1-4.1,2.3-8.1,3.6-12.2
					c10.4-33.1,26.1-75.7,26.1-75.7l-21.8,4.4c-10.7,32.3-19.8,57.5-27.6,89c-4,16.4-7.2,33.4-4.3,48.3c1.9,10.2,7.5,20.3,17.9,23.5
					c13.2,4.1,24.5-3.9,33.2-13.1c5-5.4,9.5-11.1,13.6-17.2c-3.1,9.1-5.5,16.4-8.3,24.9c-2.9,8.8-5.9,17.6-9,26.4
					c-7.3,20.7-13.7,41.8-22.9,61.8c-10.2,22.2-24.3,50.3-48.2,60.3c-16.5,6.9-38.4,5.9-52.4-6c-7.4-6.3-12.5-16-11.3-25.7
					c1-7.9,6.1-15,12.7-19.5s14.5-6.9,22.4-8c-12.6-5.7-27-2.4-39.2,4.1c-15.1,8-20.4,28.8-14.8,44.1c10.8,29.6,41.5,39,68.3,35.8
					c36.8-4.3,57-32.3,69-58c8.7-18.6,20.4-50,27-69.4c2.6-7.5,3-8.5,5.6-16.4l72.1-205.8L1331.4,175z"/>
			</g>
		</g>
	</g>
</g>
</svg>
