<?xml version="1.0" encoding="utf-8"?>
<!-- Generator: Adobe Illustrator 22.0.1, SVG Export Plug-In . SVG Version: 6.00 Build 0)  -->
<svg version="1.1" id="Warstwa_1" xmlns="http://www.w3.org/2000/svg" xmlns:xlink="http://www.w3.org/1999/xlink" x="0px" y="0px"
	 viewBox="0 0 2014.1 1274.2" style="enable-background:new 0 0 2014.1 1274.2;" xml:space="preserve">
<title>Obszar roboczy 1</title>
<path d="M994.2,388.7c5.7-22.9,13.8-40.1,21.8-52.7v-1.1c8-12.6,20.6-25.2,36.7-35.5L914,290.1c-31-2.3-51.6,13.8-60.8,47
	c-2.3-18.4-11.5-31-29.8-42.4c-13.8-8-29.8-12.6-48.2-13.8c-51.6-5.7-99.8,5.7-146.8,35.5C558.6,362.3,504.7,446,466.9,567.5
	c-35.5,118.1-34.4,211,3.5,276.3c6.9,11.5,14.9,21.8,22.9,32.1c11.5,11.5,24.1,22.9,37.8,29.8c22.9,13.8,45.9,21.8,71.1,24
	c47,4.6,83.7-6.9,108.9-35.5c4.6,25.2,20.6,39,48.2,41.3l131.9,9.2c-12.6-12.6-20.6-29.8-22.9-52.8c-2.3-21.8,0-43.6,6.9-66.5
	L994.2,388.7z M784.4,385.2c12.6,0,21.8,5.7,28.7,13.8c5.7,8,8.2,17.8,6.9,27.5l-2.3,10.3l-88.3,316.5c-6.9,26.4-16,44.7-26.4,55
	c-12.6,13.8-29.8,19.5-52.7,17.2l-10.3-2.3c-16-6.9-27.5-26.4-31-59.6c-4.6-37.8,0-89.4,13.8-154.8c13.8-63.1,36.7-117,69.9-160.5
	C724.8,403.6,754.6,382.9,784.4,385.2L784.4,385.2z"/>
<path d="M1154.8,306.1c-16-2.3-29.8,2.3-42.4,10.3s-20.7,20.6-25.2,36.7L967.9,776.2c-9.2,42.4-9.2,78,2.3,107.8
	c6.9,17.2,16,31,28.7,41.3c12.6,11.5,28.7,19.5,48.2,25.2c95.2,25.2,165.1,11.5,208.7-44.7c1.3,24.6-3.8,49.1-14.9,71.1l-4.6,9.2
	c-12.6,22.9-31,42.4-53.9,57.3c-25.2,16.1-56.2,21.8-95.2,18.3l-96.3-19.5c-28.7-6.9-51.6-4.6-69.9,3.4c-16.1,8-27.5,21.8-31,41.3
	l-27.5,104.4l39-3.4c40.1-3.4,81.4,0,123.8,8l65.4,13.8l68.8,5.7c53.9,0,98.6-17.2,133-49.3c41.3-39,78-105.5,106.6-200.7l141-542.3
	c5.7-21.8,13.8-40.1,22.9-52.7c8.8-14.9,20.9-27.5,35.6-36.7l-137.6-9.2c-14.7-1.1-29.3,2.9-41.3,11.5c-12.6,8-20.7,20.6-26.4,36.7
	l-105.5,379.6c-6.9,34.4-17.2,59.6-29.8,73.4c-16,18.3-41.3,26.3-73.4,24.1l-22.9-4.6c-17.2-6.9-26.4-20.7-27.5-41.3
	c-2.3-14.9,2.3-37.8,10.3-68.8l89.4-330.2c5.7-22.9,13.8-41.3,21.8-53.9c8-13.8,20.7-25.2,35.6-36.7L1154.8,306.1L1154.8,306.1z"/>
<path d="M1642.1,147.9l-14.9,2.3c-5.7,2.3-9.2,6.9-10.3,14.9l-27.5,103.2c-6.9,21.8-1.1,32.1,14.9,27.5l17.2-6.9
	c20.7-9.2,41.3-22.9,61.9-40.1c20.7-18.3,35.5-35.5,44.7-56.2l8-21.8l2.3-12.6c-1.2-2.3-5.7-3.4-13.8-4.6L1642.1,147.9L1642.1,147.9
	z"/>
<path d="M1817.5,348.5c-61.9-4.6-104.3-3.5-128.4,2.3c-33.2,9.2-60.8,31-83.7,67.6s-27.5,79.1-13.8,127.3
	c11.4,44.7,35.5,84.8,71.1,120.4l78,82.6c17.2,24,19.5,50.4,9.2,78c-13.8,33.2-44.7,48.2-94,44.7l-104.3-6.9
	c-29.8-2.3-50.5,11.5-60.8,41.3c-4.6,12.6-11.5,36.7-21.8,74.5l37.8,2.3l193.8,11.5l71.1-5.8c53.9-9.2,97.4-34.4,128.4-74.6
	c26.3-33.2,41.3-72.2,47-120.4c2.3-28.7-4.6-60.8-21.8-94l-1.2-1.2c-16-28.7-39-57.3-69.9-86l-64.2-55l-5.7-4.6
	c-18.3-18.3-25.2-36.7-24.1-55c3.4-27.5,20.7-40.1,50.5-39l104.3,6.9c28.7,2.3,47-13.8,57.3-47l5.7-21.8l10.3-37.9L1817.5,348.5
	L1817.5,348.5z"/>
<path d="M565.4,79.1l-154.8-9.2c-55-3.4-90.6,22.9-106.6,79.1L30,1125.9l42.4-11.5c26.4-5.7,51.6-10.3,74.6-11.4l157,5.7
	c55,6.9,134.1,25.2,237.3,55l100.9,28.7l67.7,14.9c28.7,2.3,50.5-2.3,66.5-13.8c14.9-10.3,24.1-26.4,29.8-50.5l14.9-57.3l13.8-56.2
	c-23.2,11.7-48.6,18.3-74.5,19.5c-28.7,0-66.5-4.6-111.2-16l-70-21.8c-40.1-14.9-67.6-24.1-86-29.8
	c-61.9-19.5-120.4-29.8-174.3-32.1h-37.8c24.1-94,94.4-346.6,211-757.9c9.5-26.9,22.6-52.3,39-75.7C541.4,102,552.9,89.4,565.4,79.1
	L565.4,79.1z"/>
</svg>
