<?xml version="1.0" encoding="utf-8"?>
<!-- Generator: Adobe Illustrator 22.0.1, SVG Export Plug-In . SVG Version: 6.00 Build 0)  -->
<svg version="1.1" id="Calque_1" xmlns="http://www.w3.org/2000/svg" xmlns:xlink="http://www.w3.org/1999/xlink" x="0px" y="0px"
	 viewBox="0 0 572.3 249.6" style="enable-background:new 0 0 572.3 249.6;" xml:space="preserve">
<path d="M46.8,88.6h15.9L81.8,119H82l19.8-30.4H120v71.7h-17.9v-32l-0.2-0.7l-19.1,27.5h-0.2L65,127.5h-0.2v32.7h-18V88.6z"/>
<path d="M163.8,88.6h21.6l29.1,71.7H196l-3-7.3h-33.9l-3.2,7.3h-18.5L163.8,88.6z M184.7,134.6l-9.4-25.8l-0.2-0.7l-9.9,26.5H184.7z
	"/>
<path d="M229.7,88.6h36.2c22.9,0.6,26.3,15,26.3,28.6c0,7.4-6.7,17.7-13,22.4c0.9-0.6,12.2,20.7,12.2,20.7h-20.6l-11.7-17.6h-11
	v17.6h-18.4L229.7,88.6L229.7,88.6z M248.1,126.5h13.8c4.1,0,13.3-2.2,12.7-10.1c-0.6-8.2-5.5-10.8-13.9-10.8h-12.6V126.5
	L248.1,126.5z"/>
<path d="M322.2,106.9h-17.7V88.6h57.1V107h-20.1v53.3h-19.3V106.9L322.2,106.9z"/>
<path d="M420.2,88.6h18.9l25.3,32.9h-0.5V88.6h18.7v71.7h-17.8L439,124h-0.2v36.2h-18.7L420.2,88.6L420.2,88.6z"/>
<path d="M507.3,88.6h18.4v71.7h-18.4L507.3,88.6L507.3,88.6z"/>
<path d="M378.2,88.6h18.4v71.7h-18.4V88.6z"/>
<path d="M562.3,61.2H388.1c-21.2-34-58.9-56.5-101.9-56.5s-80.8,22.6-102,56.6H10.1v127.1h174.2c21.2,34,58.9,56.6,101.9,56.6
	s80.8-22.6,102-56.6h174.1L562.3,61.2L562.3,61.2z M553.8,179.8H393.1h-7.7h-206v0.1H18.6V69.8h160.8h8.2h205.5v-0.1h160.7V179.8z"
	/>
</svg>
