<?xml version="1.0" encoding="utf-8"?>
<!-- Generator: Adobe Illustrator 22.0.1, SVG Export Plug-In . SVG Version: 6.00 Build 0)  -->
<svg version="1.1" id="Warstwa_1" xmlns="http://www.w3.org/2000/svg" xmlns:xlink="http://www.w3.org/1999/xlink" x="0px" y="0px"
	 viewBox="0 0 2484 944" style="enable-background:new 0 0 2484 944;" xml:space="preserve">
<title>Obszar roboczy 1</title>
<path d="M308.4,701.1l-0.7-437.3c0-29.1,25-54.6,58.7-54.6s55,28.7,55,55v647.3h256.7V737.8h-11.7c-20.2,0-36.6-16.4-36.6-36.6l0,0
	l-0.3-437.3c0-29.1,25-54.6,58.7-54.6s55,28.7,55,55v647.3h266.3V737.8h-11.7c-20.2,0-36.6-16.4-36.6-36.6c0,0,0,0,0,0l0,0l-1-529.3
	C960.2,40,774-34,613.8,68.3c-96.2-72.7-196-51.8-305.8,0V34.6H36.8v162.4h20.3c20.2,0,36.6,16.4,36.6,36.6l0,0v467.6
	c0,20.2-16.4,36.6-36.6,36.6c0,0,0,0,0,0H42.9v173.8h313.8V737.8H345C324.8,737.8,308.4,721.4,308.4,701.1L308.4,701.1z
	 M1501.2,701.1l-0.7-437.3c0-29.1,25-54.6,58.7-54.6s55,28.7,55,55v647.3h257V737.8h-11.7c-20.2,0-36.6-16.4-36.6-36.6l0,0
	l-0.7-437.3c0-29.1,25-54.6,58.7-54.6s55,28.7,55,55v647.3h266.3V737.8h-11.7c-20.2,0-36.6-16.4-36.6-36.6v0l0,0l-1-529.3
	C2153.1,40,1966.9-34,1806.6,68.3c-96.2-72.7-196-51.8-305.8,0V34.6h-271.2v162.4h20.3c20.2,0,36.6,16.4,36.6,36.6l0,0v467.6
	c0,20.2-16.4,36.6-36.6,36.6c0,0,0,0,0,0h-14.2v173.8h313.8V737.8h-11.7C1517.6,737.8,1501.2,721.4,1501.2,701.1L1501.2,701.1z"/>
<path d="M1225.9,556.5l-18.3-27.2c13.9-24,22-41.3,22-41.3h31.4v-66.6h-70.2l-24.8,45.8l-40.6-60.4l8.2-9.4
	c42.5-49.9,53.6-83.2,31.4-123.9s-111-49.9-144.3,5.5c-27.4,45.7,10.4,103.9,24.6,123l-11.6,12c-40.7,38.8-81.4,118.3-37,181.2
	s129.4,48.1,168.3-1.9c0.9-1.1,1.8-2.3,2.7-3.5l21.4,33.1h74v-66.6L1225.9,556.5L1225.9,556.5z M1081.7,342
	c-11.1-24-18.5-55.5,14.8-55.5c24.7,0,24,32.7,14.2,46.2c-3,3.8-10.8,12.2-20.3,22.2L1081.7,342L1081.7,342z M1055.8,560.2
	c-29.6-20.3-11.1-59.2,5.6-79.5l20.3-23.5l48.7,75.3C1110.2,564.6,1084.8,580.2,1055.8,560.2z M2195,201.4l-35.1,105.4h53.6
	l35.1-105.4L2195,201.4z M2378.1,358.7h48.1V240.3H2380v14.8c-38.8-20.4-105.4-25.9-138.7,25.9s-7.4,114.6,20.3,131.3
	s96.2,48.1,111,74c14.8,27.7,16.6,57.3-7.4,70.3s-74,3.7-85.1-72.1h-55.5v135h57.3v-24c38.8,38.8,90.6,31.4,127.6,11.1
	s66.6-70.3,48.1-129.4s-51.8-72.1-99.9-99.9c-28.6-14.3-47.2-29.1-51.8-40.2c-8.8-20.8,0.9-34.7,12-40.2c20.8-10.6,43.5,0.9,51.3,18
	S2378.1,341.1,2378.1,358.7L2378.1,358.7z"/>
</svg>
